<svg width="322" height="151" viewBox="0 0 322 151" fill="none" xmlns="http://www.w3.org/2000/svg">
<g filter="url(#filter0_i_45_703)">
<path fill-rule="evenodd" clip-rule="evenodd" d="M292.314 140.507C295.172 137.195 298.364 135.695 300.4 137.253C303.001 139.245 301.917 142.341 298.134 146.16C295.276 149.472 291.73 151.216 289.695 149.658C287.659 148.1 289.456 143.819 292.314 140.507ZM253.142 137.653C249.025 133.296 252.634 126.039 260.889 119.329C269.145 112.62 279.946 108.167 284.062 112.524C288.179 116.88 283.971 124.949 275.716 131.659C266.229 140.479 258.404 143.223 253.142 137.653ZM225.583 110.742C250.914 113.478 269.631 99.4836 268.73 95.707C282.329 94.1512 292.778 89.9668 291.073 82.8272C308.608 78.6418 318.683 71.9379 313.316 60.9367C326.515 45.7833 322.484 40.4182 311.313 31.937C315.739 20.4719 307.929 11.8152 284.225 12.9169C281.152 0.0439859 269.577 -1.73654 246.846 4.02971C223.174 -0.312674 211.936 1.87003 183.899 15.9848C162.168 12.8093 148.201 18.1535 129.793 28.8998C102.448 29.3005 87.6081 30.826 66.9053 48.8243C54.7416 51.4618 25.6458 60.6444 22.1714 83.9006C-0.0915003 90.9344 -1.87816 109.702 1.90094 116.374C4.46669 127.122 24.9569 147.885 54.2807 135.051C57.911 158.504 98.3691 145.714 118.144 136.388C130.476 145.113 160.881 135.091 165.464 125.093C178.959 133.54 213.44 126.045 225.583 110.742Z" fill="white"/>
</g>
<defs>
<filter id="filter0_i_45_703" x="0.342773" y="-4.09961" width="321.248" height="154.334" filterUnits="userSpaceOnUse" color-interpolation-filters="sRGB">
<feFlood flood-opacity="0" result="BackgroundImageFix"/>
<feBlend mode="normal" in="SourceGraphic" in2="BackgroundImageFix" result="shape"/>
<feColorMatrix in="SourceAlpha" type="matrix" values="0 0 0 0 0 0 0 0 0 0 0 0 0 0 0 0 0 0 127 0" result="hardAlpha"/>
<feOffset dy="-5"/>
<feGaussianBlur stdDeviation="4.5"/>
<feComposite in2="hardAlpha" operator="arithmetic" k2="-1" k3="1"/>
<feColorMatrix type="matrix" values="0 0 0 0 0 0 0 0 0 0 0 0 0 0 0 0 0 0 0.5 0"/>
<feBlend mode="normal" in2="shape" result="effect1_innerShadow_45_703"/>
</filter>
</defs>
</svg>
