<svg width="101" height="74" viewBox="0 0 101 74" fill="none" xmlns="http://www.w3.org/2000/svg">
<g filter="url(#filter0_i_52_1226)">
<path fill-rule="evenodd" clip-rule="evenodd" d="M71.4728 61.7449C79.5264 63.3499 85.1487 58.1815 84.7866 56.6646C89.0482 56.3263 92.2611 54.8805 91.5766 52.0129C97.0267 50.712 100.07 48.2588 98.1499 43.784C102.006 38.0427 100.624 35.8314 96.9228 32.2373C98.0849 27.7794 95.4416 24.1846 87.9805 24.1355C86.7463 18.9652 83.0553 18.0213 75.9972 19.8428C68.4342 17.6344 64.9311 18.2699 56.3688 23.2949C49.4428 21.5893 45.143 23.4231 39.5517 27.3091C30.9266 26.9072 26.2726 27.2081 20.1056 33.9242C16.3194 34.7212 7.32167 37.7676 6.70179 46.9232C-0.182731 49.2572 -0.361873 56.6665 0.968113 59.3911C1.99864 63.7083 8.89361 72.3661 17.8884 67.8758C19.5156 77.2551 32.0266 73.0108 38.0786 69.7162C42.1509 73.4306 51.5448 70.0783 52.7865 66.2054C57.2205 69.8336 67.9529 67.5672 71.4728 61.7449ZM73.7943 10.1519C73.3081 11.9344 75.3436 13.3833 78.5628 14.008C81.7819 14.6326 85.3654 14.2742 85.8516 12.4916C86.3378 10.709 84.0216 9.12656 80.8024 8.50188C76.9419 7.48217 74.4158 7.87325 73.7943 10.1519ZM84.0115 3.71258C85.099 4.50996 86.1617 4.73995 86.6654 4.13117C87.3094 3.353 86.7697 2.498 85.3692 1.61216C84.2818 0.814783 83.0961 0.535858 82.5924 1.14463C82.0886 1.75341 82.9241 2.9152 84.0115 3.71258Z" fill="white"/>
</g>
<defs>
<filter id="filter0_i_52_1226" x="0.318481" y="-0.726446" width="100.135" height="74.3164" filterUnits="userSpaceOnUse" color-interpolation-filters="sRGB">
<feFlood flood-opacity="0" result="BackgroundImageFix"/>
<feBlend mode="normal" in="SourceGraphic" in2="BackgroundImageFix" result="shape"/>
<feColorMatrix in="SourceAlpha" type="matrix" values="0 0 0 0 0 0 0 0 0 0 0 0 0 0 0 0 0 0 127 0" result="hardAlpha"/>
<feOffset dy="-1.54127"/>
<feGaussianBlur stdDeviation="1.38714"/>
<feComposite in2="hardAlpha" operator="arithmetic" k2="-1" k3="1"/>
<feColorMatrix type="matrix" values="0 0 0 0 0 0 0 0 0 0 0 0 0 0 0 0 0 0 0.5 0"/>
<feBlend mode="normal" in2="shape" result="effect1_innerShadow_52_1226"/>
</filter>
</defs>
</svg>
