<svg width="153" height="93" viewBox="0 0 153 93" fill="none" xmlns="http://www.w3.org/2000/svg">
<rect width="168.294" height="19.0497" rx="9.52483" transform="matrix(0.902928 -0.429791 -0.0234749 0.999724 0.527832 73.2195)" fill="white"/>
<path d="M70.6745 51.8059C70.3902 51.9413 70.1273 52.0182 69.8859 52.0368C69.6479 52.05 69.4414 52.0075 69.2663 51.9092C69.0946 51.8094 68.9626 51.6573 68.8704 51.4529C68.7781 51.2485 68.7355 50.9945 68.7427 50.691C68.7498 50.3874 68.8054 50.0867 68.9094 49.7889C69.0135 49.4911 69.1557 49.2084 69.336 48.941C69.5197 48.672 69.7329 48.4316 69.9755 48.2197C70.2216 48.0025 70.4868 47.8263 70.7711 47.6909C71.1198 47.525 71.4262 47.4458 71.6904 47.4534C71.9581 47.4595 72.1769 47.548 72.3469 47.7191L71.5728 48.8268C71.4714 48.7306 71.3572 48.6738 71.2304 48.6563C71.1071 48.6335 70.9659 48.6599 70.8068 48.7356C70.6816 48.7953 70.5677 48.8717 70.4651 48.965C70.3625 49.0583 70.2729 49.1658 70.1964 49.2875C70.1233 49.4075 70.065 49.539 70.0215 49.682C69.9781 49.8213 69.9546 49.9659 69.9511 50.1158C69.9475 50.2657 69.9646 50.3928 70.0024 50.4972C70.0402 50.5977 70.0936 50.6742 70.1626 50.7266C70.2351 50.7773 70.3216 50.801 70.422 50.7977C70.5225 50.7943 70.6354 50.7628 70.7606 50.7032C70.9197 50.6275 71.0628 50.5205 71.1899 50.3821C71.3205 50.2385 71.4399 50.0686 71.5483 49.8725L72.2873 50.26C72.1054 50.5949 71.8774 50.8961 71.6033 51.1637C71.3328 51.4259 71.0231 51.64 70.6745 51.8059ZM74.4038 50.0308C74.116 50.1678 73.8498 50.2445 73.6051 50.2609C73.3638 50.2757 73.1556 50.234 72.9805 50.1358C72.8055 50.0338 72.6701 49.8814 72.5745 49.6786C72.4822 49.4742 72.4396 49.224 72.4465 48.9279C72.4536 48.6281 72.5091 48.3312 72.613 48.0371C72.7205 47.7377 72.8661 47.4534 73.0498 47.1844C73.2336 46.9116 73.4485 46.6666 73.6946 46.4494C73.9441 46.2306 74.2127 46.0527 74.5004 45.9158C74.7915 45.7772 75.0577 45.7005 75.299 45.6857C75.5404 45.6709 75.7485 45.7145 75.9235 45.8165C76.0986 45.9147 76.2323 46.066 76.3246 46.2704C76.4203 46.4694 76.4647 46.7189 76.4576 47.0187C76.4507 47.3147 76.3935 47.6125 76.286 47.9119C76.182 48.2098 76.038 48.4951 75.8542 48.7678C75.6705 49.0369 75.4556 49.28 75.2095 49.4972C74.9635 49.7144 74.6949 49.8923 74.4038 50.0308ZM74.429 48.9571C74.5407 48.9039 74.6444 48.8323 74.7403 48.7422C74.8395 48.6505 74.9256 48.5465 74.9986 48.4302C75.0751 48.3086 75.1351 48.1781 75.1785 48.0389C75.222 47.8959 75.2456 47.7475 75.2492 47.5939C75.2528 47.4402 75.2357 47.3131 75.1979 47.2125C75.1602 47.1082 75.1051 47.0325 75.0325 46.9855C74.9635 46.9331 74.8804 46.9078 74.7833 46.9096C74.6896 46.9097 74.5869 46.9364 74.4752 46.9895C74.3635 47.0427 74.258 47.1151 74.1588 47.2068C74.063 47.2969 73.9768 47.4028 73.9003 47.5244C73.8273 47.6407 73.769 47.7704 73.7255 47.9134C73.6821 48.0526 73.6585 48.1991 73.6549 48.3527C73.6513 48.5064 73.6684 48.6354 73.7061 48.7397C73.7439 48.8403 73.7973 48.9168 73.8664 48.9692C73.9389 49.0162 74.022 49.0396 74.1158 49.0395C74.2129 49.0377 74.3173 49.0103 74.429 48.9571ZM76.8463 48.7792L76.9387 44.8441L78.6498 44.0296C78.9815 43.8717 79.2661 43.7956 79.5036 43.8011C79.7445 43.805 79.9283 43.888 80.0551 44.05C80.1819 44.2083 80.2417 44.4392 80.2346 44.7428C80.2275 45.0464 80.1553 45.3401 80.0181 45.6241C79.8809 45.908 79.689 46.1698 79.4424 46.4095C79.1992 46.6438 78.9118 46.84 78.5801 46.9979L77.5342 47.4957L78.0806 46.6742L78.0446 48.2089L76.8463 48.7792ZM78.0772 46.8203L77.5582 46.4726L78.5279 46.011C78.6938 45.932 78.8166 45.8328 78.8964 45.7133C78.9796 45.5922 79.0228 45.4604 79.0262 45.318C79.0295 45.1756 78.9916 45.0825 78.9123 45.0387C78.8363 44.9933 78.7155 45.0101 78.5496 45.089L77.5798 45.5506L78.1271 44.6954L78.0772 46.8203ZM81.4839 46.5717L81.5245 44.8459L81.78 45.508L80.2359 43.2746L81.5002 42.6729L82.5436 44.2051L81.8074 44.5556L82.9574 41.9792L84.115 41.4282L82.4401 45.1939L82.7227 44.2755L82.6822 46.0014L81.4839 46.5717Z" fill="url(#paint0_linear_54_1379)"/>
<defs>
<linearGradient id="paint0_linear_54_1379" x1="71.8793" y1="50.4713" x2="66.5462" y2="41.0357" gradientUnits="userSpaceOnUse">
<stop stop-color="#861B43"/>
<stop offset="0.403846" stop-color="#FF0A69"/>
</linearGradient>
</defs>
</svg>
