<svg width="120" height="80" viewBox="0 0 120 80" fill="none" xmlns="http://www.w3.org/2000/svg">
<rect width="120" height="19" rx="9.5" transform="matrix(0.902928 -0.429791 -0.0234749 0.999724 0 60)" fill="white"/>
<path d="M50.6745 38.8059C50.3902 38.9413 50.1273 39.0182 49.8859 39.0368C49.6479 39.05 49.4414 39.0075 49.2663 38.9092C49.0946 38.8094 48.9626 38.6573 48.8704 38.4529C48.7781 38.2485 48.7355 37.9945 48.7427 37.691C48.7498 37.3874 48.8054 37.0867 48.9094 36.7889C49.0135 36.4911 49.1557 36.2084 49.336 35.941C49.5197 35.672 49.7329 35.4316 49.9755 35.2197C50.2216 35.0025 50.4868 34.8263 50.7711 34.6909C51.1198 34.525 51.4262 34.4458 51.6904 34.4534C51.9581 34.4595 52.1769 34.548 52.3469 34.7191L51.5728 35.8268C51.4714 35.7306 51.3572 35.6738 51.2304 35.6563C51.1071 35.6335 50.9659 35.6599 50.8068 35.7356C50.6816 35.7953 50.5677 35.8717 50.4651 35.965C50.3625 36.0583 50.2729 36.1658 50.1964 36.2875C50.1233 36.4075 50.065 36.539 50.0215 36.682C49.9781 36.8213 49.9546 36.9659 49.9511 37.1158C49.9475 37.2657 49.9646 37.3928 50.0024 37.4972C50.0402 37.5977 50.0936 37.6742 50.1626 37.7266C50.2351 37.7773 50.3216 37.801 50.422 37.7977C50.5225 37.7943 50.6354 37.7628 50.7606 37.7032C50.9197 37.6275 51.0628 37.5205 51.1899 37.3821C51.3205 37.2385 51.4399 37.0686 51.5483 36.8725L52.2873 37.26C52.1054 37.5949 51.8774 37.8961 51.6033 38.1637C51.3328 38.4259 51.0231 38.64 50.6745 38.8059ZM54.4038 37.0308C54.116 37.1678 53.8498 37.2445 53.6051 37.2609C53.3638 37.2757 53.1556 37.234 52.9805 37.1358C52.8055 37.0338 52.6701 36.8814 52.5745 36.6786C52.4822 36.4742 52.4396 36.224 52.4465 35.9279C52.4536 35.6281 52.5091 35.3312 52.613 35.0371C52.7205 34.7377 52.8661 34.4534 53.0498 34.1844C53.2336 33.9116 53.4485 33.6666 53.6946 33.4494C53.9441 33.2306 54.2127 33.0527 54.5004 32.9158C54.7915 32.7772 55.0577 32.7005 55.299 32.6857C55.5404 32.6709 55.7485 32.7145 55.9235 32.8165C56.0986 32.9147 56.2323 33.066 56.3246 33.2704C56.4203 33.4694 56.4647 33.7189 56.4576 34.0187C56.4507 34.3147 56.3935 34.6125 56.286 34.9119C56.182 35.2098 56.038 35.4951 55.8542 35.7678C55.6705 36.0369 55.4556 36.28 55.2095 36.4972C54.9635 36.7144 54.6949 36.8923 54.4038 37.0308ZM54.429 35.9571C54.5407 35.9039 54.6444 35.8323 54.7403 35.7422C54.8395 35.6505 54.9256 35.5465 54.9986 35.4302C55.0751 35.3086 55.1351 35.1781 55.1785 35.0389C55.222 34.8959 55.2456 34.7475 55.2492 34.5939C55.2528 34.4402 55.2357 34.3131 55.1979 34.2125C55.1602 34.1082 55.1051 34.0325 55.0325 33.9855C54.9635 33.9331 54.8804 33.9078 54.7833 33.9096C54.6896 33.9097 54.5869 33.9364 54.4752 33.9895C54.3635 34.0427 54.258 34.1151 54.1588 34.2068C54.063 34.2969 53.9768 34.4028 53.9003 34.5244C53.8273 34.6407 53.769 34.7704 53.7255 34.9134C53.6821 35.0526 53.6585 35.1991 53.6549 35.3527C53.6513 35.5064 53.6684 35.6354 53.7061 35.7397C53.7439 35.8403 53.7973 35.9168 53.8664 35.9692C53.9389 36.0162 54.022 36.0396 54.1158 36.0395C54.2129 36.0377 54.3173 36.0103 54.429 35.9571ZM56.8463 35.7792L56.9387 31.8441L58.6498 31.0296C58.9815 30.8717 59.2661 30.7956 59.5036 30.8011C59.7445 30.805 59.9283 30.888 60.0551 31.05C60.1819 31.2083 60.2417 31.4392 60.2346 31.7428C60.2275 32.0464 60.1553 32.3401 60.0181 32.6241C59.8809 32.908 59.689 33.1698 59.4424 33.4095C59.1992 33.6438 58.9118 33.84 58.5801 33.9979L57.5342 34.4957L58.0806 33.6742L58.0446 35.2089L56.8463 35.7792ZM58.0772 33.8203L57.5582 33.4726L58.5279 33.011C58.6938 32.932 58.8166 32.8328 58.8964 32.7133C58.9796 32.5922 59.0228 32.4604 59.0262 32.318C59.0295 32.1756 58.9916 32.0825 58.9123 32.0387C58.8363 31.9933 58.7155 32.0101 58.5496 32.089L57.5798 32.5506L58.1271 31.6954L58.0772 33.8203ZM61.4839 33.5717L61.5245 31.8459L61.78 32.508L60.2359 30.2746L61.5002 29.6729L62.5436 31.2051L61.8074 31.5556L62.9574 28.9792L64.115 28.4282L62.4401 32.1939L62.7227 31.2755L62.6822 33.0014L61.4839 33.5717Z" fill="url(#paint0_linear_54_1379)"/>
<defs>
<linearGradient id="paint0_linear_54_1379" x1="51.8793" y1="37.4713" x2="46.5462" y2="28.0357" gradientUnits="userSpaceOnUse">
<stop stop-color="#861B43"/>
<stop offset="0.403846" stop-color="#FF0A69"/>
</linearGradient>
</defs>
</svg>
