<svg width="802" height="437" viewBox="0 0 802 437" fill="none" xmlns="http://www.w3.org/2000/svg">
<path d="M11 436.5V381V359L655 50L801.5 51L11 436.5Z" fill="url(#paint0_linear_37_773)"/>
<path d="M11 436.5V381V359L655 50L801.5 51L11 436.5Z" fill="#E84481" fill-opacity="0.1"/>
<path d="M20.6791 393.04L27.9798 389.488C28.1016 389.633 28.2401 389.83 28.3951 390.079C28.564 390.321 28.7054 390.559 28.8195 390.793C29.3293 391.841 29.6305 392.845 29.723 393.807C29.8155 394.768 29.7231 395.699 29.446 396.601C29.1263 397.627 28.595 398.567 27.852 399.423C27.1022 400.266 26.1276 400.979 24.9281 401.562C23.8526 402.086 22.7384 402.389 21.5854 402.473C20.4462 402.549 19.3538 402.424 18.3081 402.098C17.2557 401.757 16.2945 401.219 15.4247 400.482C14.5482 399.732 13.8348 398.792 13.2847 397.661C12.7346 396.531 12.4382 395.396 12.3957 394.257C12.3464 393.105 12.5159 392.016 12.9041 390.992C13.2856 389.953 13.8581 389.01 14.6216 388.161C15.3989 387.305 16.3253 386.616 17.4007 386.092C18.6554 385.482 19.8487 385.166 20.9804 385.143C22.126 385.115 23.2314 385.302 24.2969 385.704L23.1512 388.922C22.4338 388.674 21.739 388.56 21.0667 388.58C20.4016 388.58 19.6622 388.778 18.8487 389.173C18.2145 389.482 17.6718 389.891 17.2205 390.4C16.7763 390.889 16.4412 391.445 16.215 392.066C15.996 392.667 15.9032 393.318 15.9368 394.018C15.9775 394.697 16.1689 395.388 16.511 396.092C16.8532 396.795 17.2823 397.379 17.7985 397.844C18.3217 398.288 18.8977 398.613 19.5264 398.819C20.1484 399.011 20.799 399.087 21.4784 399.046C22.151 398.991 22.8114 398.807 23.4594 398.491C24.7279 397.874 25.5769 397.043 26.0065 395.999C26.1402 395.678 26.2298 395.319 26.2753 394.921C26.3278 394.504 26.3255 394.078 26.2685 393.646L21.9874 395.729L20.6791 393.04ZM35.6212 396.103C35.0696 396.372 34.5069 396.407 33.933 396.209C33.3591 396.01 32.938 395.636 32.6696 395.084C32.4013 394.533 32.3662 393.97 32.5644 393.396C32.7626 392.822 33.1375 392.401 33.689 392.133C34.2405 391.864 34.8032 391.829 35.3771 392.027C35.951 392.226 36.3722 392.6 36.6405 393.152C36.9089 393.703 36.9439 394.266 36.7457 394.84C36.5475 395.414 36.1727 395.835 35.6212 396.103ZM44.8855 391.851C43.5068 392.522 42.1363 392.737 40.7743 392.496C39.4193 392.235 38.1995 391.515 37.115 390.338L39.5715 387.659C40.0929 388.275 40.6711 388.71 41.3061 388.963C41.9412 389.217 42.6378 389.159 43.3962 388.79C43.6444 388.67 43.8653 388.528 44.0591 388.366C44.2667 388.196 44.4263 388.016 44.5381 387.826C44.657 387.614 44.7279 387.392 44.751 387.159C44.7741 386.926 44.7286 386.693 44.6146 386.458C44.5005 386.224 44.3483 386.034 44.1579 385.888C43.9745 385.721 43.7392 385.605 43.4518 385.541C43.1578 385.462 42.7982 385.424 42.373 385.426C41.9411 385.414 41.4162 385.44 40.7983 385.502L39.7273 385.613C39.2742 385.663 38.7838 385.672 38.2561 385.639C37.7355 385.585 37.2259 385.466 36.7272 385.283C36.2286 385.099 35.7685 384.837 35.347 384.496C34.9188 384.142 34.5706 383.689 34.3022 383.138C34.0137 382.545 33.8592 381.929 33.8387 381.291C33.8181 380.653 33.931 380.044 34.1773 379.464C34.4168 378.87 34.7863 378.315 35.2856 377.799C35.7849 377.283 36.4 376.848 37.1307 376.492C37.9028 376.116 38.615 375.898 39.2671 375.836C39.9125 375.761 40.5054 375.788 41.0458 375.917C41.5795 376.033 42.0505 376.23 42.459 376.509C42.8812 376.781 43.2416 377.066 43.5401 377.364L41.3217 379.901C40.9553 379.534 40.543 379.299 40.0846 379.199C39.6195 379.084 39.125 379.154 38.6011 379.409C38.0496 379.677 37.6654 380.009 37.4485 380.404C37.2387 380.779 37.2211 381.146 37.3955 381.505C37.5766 381.877 37.9031 382.127 38.3749 382.256C38.8467 382.384 39.5735 382.389 40.5555 382.269L41.6164 382.136C43.0791 381.953 44.3295 382.053 45.3678 382.434C46.406 382.816 47.2204 383.613 47.8107 384.826C48.1864 385.598 48.3532 386.344 48.3112 387.064C48.2829 387.777 48.1112 388.44 47.796 389.054C47.4945 389.661 47.0772 390.205 46.544 390.686C46.0312 391.175 45.4784 391.563 44.8855 391.851ZM57.4161 385.345L56.1134 381.196L53.797 382.323L53.0428 379.774L55.3177 378.667L54.6708 376.654L52.3545 377.781L51.5796 375.242L53.8752 374.125L52.6424 370.172L55.2483 368.904L56.4811 372.857L58.5493 371.851L57.3164 367.898L59.9223 366.63L61.1552 370.583L63.4715 369.456L64.2465 371.995L61.9508 373.112L62.5977 375.125L64.9347 373.988L65.7097 376.526L63.3933 377.653L64.6961 381.803L62.0902 383.071L60.7874 378.921L58.7193 379.928L60.022 384.077L57.4161 385.345ZM57.861 377.481L60.0533 376.414L59.4075 374.298L57.2152 375.365L57.861 377.481ZM73.0647 374.457L78.3799 371.87L79.668 374.518L70.0717 379.187L68.7433 376.457C69.1748 375.241 69.5744 374.117 69.9421 373.086C70.1045 372.649 70.2636 372.205 70.4194 371.754C70.5613 371.309 70.696 370.903 70.8234 370.534C70.9579 370.144 71.0747 369.806 71.1738 369.519C71.28 369.212 71.3545 368.98 71.3974 368.822C71.5825 368.186 71.6773 367.663 71.6818 367.251C71.6795 366.826 71.5811 366.414 71.3865 366.014C71.192 365.614 70.8759 365.35 70.4384 365.222C70.008 365.073 69.5308 365.126 69.0069 365.381C68.483 365.636 68.1362 365.993 67.9667 366.45C67.8043 366.887 67.7646 367.384 67.8477 367.94L64.4715 368.151C64.3876 367.663 64.3794 367.156 64.4468 366.628C64.5142 366.101 64.674 365.588 64.9263 365.09C65.1718 364.579 65.5165 364.096 65.9603 363.641C66.4179 363.18 66.9776 362.788 67.6394 362.466C68.3839 362.103 69.1063 361.888 69.8065 361.821C70.5 361.739 71.1373 361.787 71.7183 361.965C72.313 362.136 72.8448 362.423 73.3137 362.825C73.7825 363.228 74.1612 363.726 74.4496 364.319C74.8656 365.174 75.0514 366.064 75.0071 366.989C74.9699 367.894 74.7708 368.869 74.4098 369.914L72.8606 374.3L73.0647 374.457ZM87.7012 371.018C86.7637 371.474 85.8321 371.697 84.9064 371.687C83.9807 371.677 83.0949 371.469 82.2489 371.062C81.403 370.655 80.6172 370.074 79.8916 369.319C79.173 368.543 78.5555 367.624 78.0389 366.563C77.5223 365.501 77.1838 364.455 77.0235 363.425C76.8703 362.374 76.8946 361.39 77.0965 360.473C77.2984 359.556 77.6811 358.731 78.2445 357.996C78.8079 357.262 79.5584 356.666 80.4959 356.21C81.4197 355.761 82.3445 355.541 83.2701 355.551C84.2096 355.554 85.1023 355.759 85.9483 356.166C86.7942 356.573 87.5765 357.164 88.295 357.94C89.0206 358.695 89.6417 359.604 90.1583 360.666C90.6749 361.727 91.0098 362.783 91.1631 363.834C91.3234 364.865 91.3026 365.838 91.1007 366.755C90.8988 367.672 90.5092 368.501 89.932 369.242C89.3686 369.977 88.625 370.569 87.7012 371.018ZM86.2924 368.123C86.7612 367.895 87.1211 367.583 87.3723 367.188C87.6305 366.772 87.7864 366.304 87.84 365.784C87.9074 365.256 87.869 364.687 87.7248 364.075C87.5943 363.456 87.3714 362.823 87.0561 362.175C86.7408 361.527 86.38 360.961 85.9738 360.476C85.5813 359.985 85.1568 359.603 84.7003 359.331C84.2576 359.052 83.7964 358.893 83.3168 358.853C82.8442 358.793 82.3736 358.877 81.9048 359.105C81.436 359.334 81.0725 359.655 80.8143 360.071C80.5632 360.466 80.4039 360.927 80.3365 361.454C80.2828 361.975 80.3213 362.545 80.4518 363.163C80.596 363.775 80.8258 364.405 81.1411 365.053C81.4564 365.701 81.8103 366.271 82.2028 366.762C82.609 367.246 83.0335 367.628 83.4762 367.907C83.9327 368.179 84.3973 368.346 84.8698 368.406C85.3494 368.445 85.8236 368.351 86.2924 368.123ZM98.3108 362.172L103.626 359.586L104.914 362.233L95.3178 366.903L93.9895 364.173C94.4209 362.957 94.8205 361.833 95.1882 360.801C95.3507 360.364 95.5098 359.92 95.6655 359.469C95.8075 359.025 95.9421 358.619 96.0696 358.25C96.2041 357.86 96.3209 357.522 96.42 357.235C96.5262 356.928 96.6007 356.695 96.6435 356.538C96.8287 355.902 96.9235 355.379 96.9279 354.967C96.9257 354.542 96.8272 354.13 96.6327 353.73C96.4381 353.33 96.1221 353.066 95.6846 352.938C95.2542 352.789 94.777 352.842 94.253 353.097C93.7291 353.352 93.3824 353.708 93.2129 354.166C93.0504 354.603 93.0108 355.1 93.0939 355.656L89.7177 355.867C89.6338 355.379 89.6255 354.871 89.6929 354.344C89.7604 353.817 89.9202 353.304 90.1724 352.806C90.418 352.294 90.7627 351.811 91.2065 351.357C91.664 350.895 92.2237 350.504 92.8855 350.182C93.6301 349.819 94.3525 349.604 95.0527 349.536C95.7462 349.455 96.3834 349.503 96.9644 349.68C97.5592 349.851 98.091 350.138 98.5598 350.541C99.0287 350.944 99.4073 351.442 99.6958 352.035C100.112 352.889 100.298 353.78 100.253 354.705C100.216 355.61 100.017 356.585 99.656 357.63L98.1068 362.016L98.3108 362.172ZM111.955 359.217C111.389 359.492 110.794 359.688 110.169 359.805C109.543 359.921 108.919 359.935 108.296 359.846C107.687 359.75 107.092 359.545 106.513 359.23C105.933 358.915 105.41 358.471 104.943 357.897L107.243 355.422C107.696 356.003 108.207 356.385 108.774 356.57C109.334 356.74 109.932 356.671 110.566 356.363C111.117 356.094 111.492 355.673 111.691 355.099C111.889 354.526 111.847 353.949 111.565 353.37C111.283 352.791 110.856 352.402 110.282 352.204C109.722 351.999 109.152 352.038 108.573 352.319C108.173 352.514 107.865 352.757 107.649 353.05C107.434 353.342 107.279 353.656 107.187 353.991L103.544 354.075L100.898 346.692L109.15 342.677L110.438 345.324L104.771 348.081L105.663 351.28L105.9 351.241C106.061 350.907 106.291 350.556 106.59 350.189C106.903 349.815 107.342 349.491 107.907 349.216C108.486 348.934 109.095 348.783 109.732 348.762C110.378 348.721 111.001 348.81 111.602 349.029C112.217 349.242 112.792 349.584 113.329 350.056C113.866 350.528 114.312 351.13 114.667 351.86C115.023 352.591 115.224 353.32 115.271 354.048C115.312 354.761 115.208 355.443 114.961 356.091C114.714 356.74 114.337 357.333 113.831 357.869C113.325 358.405 112.699 358.855 111.955 359.217Z" fill="white"/>
<path fill-rule="evenodd" clip-rule="evenodd" d="M143.675 334.601C144.69 334.236 145.685 334.153 147.091 334.316L148.14 334.437L148.258 333.541C148.401 332.448 148.894 331.812 149.947 331.357C150.866 330.961 151.926 330.98 153.082 331.415L153.904 331.723L154.055 331.076C154.138 330.72 154.422 330.107 154.686 329.713C155.094 329.104 155.362 328.903 156.47 328.37C157.858 327.703 159.014 327.564 160.436 327.896L161.11 328.054L161.265 326.932C161.468 325.467 161.988 324.714 163.148 324.208C163.702 323.966 164.273 323.862 164.753 323.914L165.497 323.995L165.612 323.464C165.676 323.172 165.926 322.677 166.168 322.363C167.368 320.809 169.77 320.485 172.571 321.501C174.576 322.229 174.461 322.395 171.952 322.397C169.008 322.399 167.598 322.804 167.019 323.817C166.666 324.433 166.719 324.61 167.42 325.169C168.267 325.845 169.254 327.59 169.282 328.463C169.322 329.685 168.631 330 167.523 329.265C166.924 328.867 165.961 327.189 165.713 326.112C165.619 325.703 165.531 325.349 165.518 325.326C165.505 325.303 165.152 325.268 164.733 325.249C163.32 325.184 162.435 326.032 162.26 327.619L162.168 328.449L163.038 328.962C164.299 329.706 165.097 330.511 165.779 331.726C166.292 332.641 166.351 332.837 166.325 333.534C166.299 334.206 166.224 334.357 165.795 334.596C165.376 334.83 165.177 334.817 164.572 334.521C163.647 334.068 162.967 333.254 162.227 331.712C161.912 331.054 161.545 330.292 161.413 330.02C161.193 329.568 161.068 329.507 160.017 329.341C157.466 328.936 155.387 330.033 154.932 332.024C154.86 332.343 154.891 332.404 155.372 332.88C156.566 334.061 157.306 336.035 157.06 337.384C156.727 339.207 154.989 337.766 154.268 335.069C154.102 334.447 153.874 333.752 153.761 333.526C153.307 332.615 150.828 332.327 150.037 333.094C149.655 333.465 149.252 334.425 149.381 334.657C149.424 334.734 149.986 335.04 150.631 335.338C153.341 336.591 155.161 338.701 155.125 340.546C155.1 341.855 154.078 342.251 152.597 341.525C151.225 340.853 150.074 339.543 149.065 337.509L148.362 336.089L146.903 335.952C146.1 335.877 145.146 335.869 144.782 335.935C144.06 336.067 142.756 336.718 142.491 337.079C142.326 337.303 142.332 337.313 142.945 337.871C143.845 338.69 145.218 340.968 145.516 342.135C146.041 344.191 144.527 345.117 142.848 343.768C142.166 343.22 141.181 341.678 140.831 340.611C140.68 340.151 140.539 339.396 140.519 338.933C140.486 338.168 140.459 338.092 140.213 338.085C140.064 338.082 139.611 338.272 139.205 338.508C138.336 339.013 137.67 340.001 137.459 341.098L137.315 341.846L138.275 342.475C140.683 344.05 142.255 346.721 141.345 347.688C140.811 348.255 139.539 347.914 138.47 346.916C137.619 346.122 136.831 344.647 136.578 343.376L136.375 342.359L135.762 342.119C135.064 341.845 133.346 341.651 133.055 341.814C132.789 341.962 132.487 341.703 132.732 341.537C133.471 341.039 134.402 340.951 135.583 341.269L136.376 341.482L136.547 340.662C137.061 338.2 138.318 336.836 140.154 336.75C140.826 336.718 140.986 336.647 141.299 336.243C141.831 335.557 142.715 334.946 143.675 334.601ZM141.658 339.234C141.694 340.786 142.717 342.616 143.754 342.982C144.364 343.197 144.43 343.159 144.489 342.558C144.531 342.122 144.454 341.937 143.734 340.758C142.942 339.461 141.98 338.35 141.757 338.475C141.694 338.51 141.65 338.852 141.658 339.234ZM167.665 328.077C167.899 328.336 168.16 328.51 168.245 328.463C168.475 328.334 168.063 327.376 167.512 326.76C166.751 325.907 166.695 325.909 166.976 326.784C167.173 327.399 167.347 327.724 167.665 328.077ZM137.978 344.916C138.639 346.103 140.05 347.11 140.505 346.719C140.988 346.304 139.841 344.694 138.17 343.441L137.337 342.817L137.496 343.577C137.584 343.995 137.801 344.598 137.978 344.916ZM150.265 337.588C151.234 339.325 153.025 340.854 153.67 340.494C154.241 340.175 153.558 339.016 152.201 338C151.419 337.415 150.058 336.66 149.922 336.735C149.867 336.767 150.021 337.15 150.265 337.588ZM155.59 336.065C155.954 336.721 155.957 336.722 155.891 336.222C155.854 335.945 155.635 335.384 155.404 334.977L154.984 334.236L155.103 334.82C155.169 335.141 155.388 335.701 155.59 336.065ZM163.216 331.702C163.827 332.802 164.645 333.583 165.05 333.455C165.65 333.265 164.769 331.806 163.454 330.812C162.502 330.093 162.444 330.312 163.216 331.702Z" fill="white"/>
<path fill-rule="evenodd" clip-rule="evenodd" d="M129.877 338.06C130.581 337.507 131.065 336.801 131.538 335.636L131.89 334.767L132.614 335.214C133.497 335.759 134.184 335.766 134.972 335.238C135.659 334.778 136.093 333.962 136.255 332.823L136.371 332.015L136.921 332.287C137.224 332.438 137.806 332.589 138.214 332.624C138.844 332.678 139.109 332.596 139.979 332.073C141.068 331.419 141.662 330.623 142.014 329.345L142.181 328.739L143.09 329.293C144.278 330.016 145.064 330.071 145.935 329.494C146.352 329.218 146.672 328.846 146.836 328.451L147.09 327.837L147.538 328.068C147.784 328.194 148.263 328.301 148.601 328.305C150.278 328.324 151.538 326.694 151.959 323.959C152.261 322 152.087 321.988 151.024 323.892C149.776 326.127 148.875 326.954 147.868 326.788C147.255 326.687 147.144 326.541 147.021 325.674C146.871 324.627 145.976 322.833 145.332 322.288C144.429 321.527 143.9 321.863 143.984 323.144C144.03 323.837 144.884 325.574 145.589 326.406C145.857 326.723 146.086 327.001 146.098 327.024C146.11 327.048 145.986 327.337 145.824 327.667C145.274 328.779 144.262 328.943 142.994 328.126L142.332 327.699L142.314 326.732C142.288 325.329 142.02 324.24 141.395 322.995C140.924 322.058 140.802 321.896 140.266 321.498C139.75 321.116 139.605 321.083 139.243 321.265C138.89 321.444 138.815 321.602 138.782 322.238C138.731 323.213 139.056 324.216 139.902 325.701C140.264 326.335 140.681 327.069 140.83 327.333C141.077 327.77 141.07 327.901 140.75 328.799C139.975 330.979 138.27 331.9 136.58 331.053C136.309 330.918 136.277 330.857 136.122 330.207C135.74 328.594 134.568 326.85 133.45 326.229C131.937 325.391 132.286 327.573 134.009 329.735C134.407 330.234 134.832 330.823 134.955 331.044C135.447 331.934 134.615 333.989 133.703 334.13C133.263 334.199 132.37 333.93 132.251 333.693C132.211 333.614 132.218 333.004 132.267 332.336C132.471 329.528 131.656 326.883 130.252 325.805C129.257 325.041 128.527 325.58 128.446 327.14C128.371 328.583 128.868 330.242 129.972 332.226L130.742 333.61L130.227 334.8C129.944 335.454 129.546 336.184 129.343 336.42C128.938 336.889 127.896 337.49 127.513 337.475C127.274 337.466 127.269 337.456 127.109 336.656C126.874 335.483 125.742 333.076 124.99 332.151C123.666 330.522 122.329 331.117 122.633 333.2C122.756 334.046 123.499 335.718 124.153 336.622C124.436 337.012 124.944 337.57 125.284 337.863C125.845 338.345 125.891 338.412 125.791 338.603C125.731 338.718 125.396 338.948 125.047 339.115C124.3 339.473 123.274 339.387 122.36 338.891L121.736 338.552L121.67 337.447C121.504 334.675 120.161 331.882 119.049 331.995C118.396 332.061 118.114 333.231 118.412 334.64C118.649 335.761 119.425 337.244 120.274 338.196L120.953 338.958L120.874 339.568C120.785 340.262 120.203 341.683 119.958 341.807C119.734 341.92 119.801 342.305 120.03 342.217C120.717 341.954 121.177 341.3 121.438 340.213L121.613 339.483L122.302 339.844C124.371 340.928 125.929 340.79 126.771 339.447C127.079 338.956 127.201 338.877 127.636 338.881C128.378 338.888 129.212 338.582 129.877 338.06ZM125.539 336.818C124.387 335.862 123.444 333.99 123.608 332.983C123.704 332.391 123.76 332.363 124.237 332.679C124.583 332.907 124.689 333.077 125.271 334.329C125.912 335.707 126.34 337.102 126.152 337.197C126.099 337.224 125.823 337.053 125.539 336.818ZM144.938 323.747C144.842 323.414 144.821 323.112 144.893 323.076C145.087 322.978 145.633 323.865 145.864 324.652C146.183 325.741 146.157 325.781 145.618 325.044C145.24 324.527 145.068 324.2 144.938 323.747ZM119.708 336.211C119.095 334.998 118.935 333.324 119.422 333.213C119.939 333.094 120.664 334.929 120.899 336.948L121.016 337.954L120.511 337.378C120.234 337.061 119.873 336.536 119.708 336.211ZM130.42 331.267C129.524 329.491 129.132 327.216 129.675 326.942C130.157 326.699 130.74 327.912 130.93 329.551C131.039 330.495 131.031 331.98 130.916 332.038C130.869 332.061 130.646 331.715 130.42 331.267ZM133.819 328.135C133.48 327.466 133.48 327.463 133.828 327.813C134.022 328.007 134.35 328.508 134.559 328.928L134.938 329.69L134.55 329.25C134.336 329.008 134.007 328.507 133.819 328.135ZM140.328 324.956C139.76 323.834 139.518 322.745 139.787 322.514C140.183 322.172 140.907 323.715 141.098 325.308C141.237 326.461 141.047 326.375 140.328 324.956Z" fill="white"/>
<path d="M186.832 312.194L194.133 308.641C194.255 308.787 194.393 308.984 194.548 309.232C194.717 309.474 194.858 309.712 194.973 309.947C195.482 310.994 195.784 311.999 195.876 312.96C195.969 313.921 195.876 314.853 195.599 315.755C195.279 316.78 194.748 317.721 194.005 318.577C193.255 319.419 192.281 320.132 191.081 320.716C190.006 321.239 188.891 321.542 187.738 321.626C186.599 321.703 185.507 321.578 184.461 321.251C183.409 320.911 182.448 320.372 181.578 319.636C180.701 318.886 179.988 317.945 179.438 316.815C178.888 315.684 178.591 314.55 178.549 313.411C178.499 312.258 178.669 311.17 179.057 310.145C179.439 309.107 180.011 308.163 180.775 307.314C181.552 306.459 182.478 305.769 183.554 305.246C184.809 304.635 186.002 304.319 187.133 304.297C188.279 304.268 189.385 304.455 190.45 304.857L189.304 308.075C188.587 307.827 187.892 307.713 187.22 307.734C186.555 307.733 185.815 307.931 185.002 308.327C184.368 308.635 183.825 309.044 183.374 309.554C182.929 310.043 182.594 310.598 182.368 311.22C182.149 311.821 182.056 312.471 182.09 313.171C182.131 313.851 182.322 314.542 182.664 315.245C183.006 315.948 183.435 316.532 183.952 316.997C184.475 317.442 185.051 317.767 185.679 317.973C186.301 318.164 186.952 318.24 187.631 318.199C188.304 318.145 188.964 317.96 189.612 317.645C190.881 317.028 191.73 316.197 192.16 315.152C192.293 314.831 192.383 314.472 192.428 314.075C192.481 313.657 192.479 313.232 192.422 312.799L188.14 314.882L186.832 312.194ZM201.774 315.257C201.223 315.525 200.66 315.56 200.086 315.362C199.512 315.164 199.091 314.789 198.823 314.237C198.554 313.686 198.519 313.123 198.718 312.549C198.916 311.975 199.291 311.554 199.842 311.286C200.394 311.018 200.956 310.983 201.53 311.181C202.104 311.379 202.525 311.754 202.794 312.305C203.062 312.857 203.097 313.42 202.899 313.993C202.701 314.567 202.326 314.989 201.774 315.257ZM211.039 311.005C209.66 311.676 208.289 311.891 206.927 311.65C205.572 311.388 204.353 310.669 203.268 309.491L205.725 306.812C206.246 307.428 206.824 307.863 207.459 308.117C208.094 308.371 208.791 308.313 209.549 307.944C209.797 307.823 210.018 307.682 210.212 307.519C210.42 307.35 210.579 307.17 210.691 306.979C210.81 306.768 210.881 306.546 210.904 306.313C210.927 306.08 210.882 305.846 210.768 305.612C210.654 305.377 210.501 305.187 210.311 305.041C210.128 304.874 209.892 304.759 209.605 304.694C209.311 304.615 208.951 304.577 208.526 304.579C208.094 304.568 207.569 304.593 206.951 304.655L205.88 304.767C205.427 304.817 204.937 304.825 204.409 304.792C203.889 304.739 203.379 304.62 202.88 304.436C202.382 304.253 201.922 303.99 201.5 303.65C201.072 303.295 200.724 302.843 200.455 302.291C200.167 301.698 200.012 301.083 199.992 300.445C199.971 299.807 200.084 299.198 200.33 298.617C200.57 298.023 200.939 297.468 201.439 296.953C201.938 296.437 202.553 296.001 203.284 295.646C204.056 295.27 204.768 295.051 205.42 294.99C206.066 294.914 206.659 294.941 207.199 295.071C207.733 295.186 208.204 295.383 208.612 295.662C209.034 295.934 209.395 296.219 209.693 296.517L207.475 299.055C207.108 298.687 206.696 298.453 206.238 298.352C205.773 298.237 205.278 298.307 204.754 298.562C204.203 298.831 203.818 299.163 203.602 299.558C203.392 299.933 203.374 300.3 203.549 300.658C203.73 301.03 204.056 301.281 204.528 301.409C205 301.538 205.727 301.542 206.709 301.422L207.77 301.29C209.232 301.107 210.483 301.206 211.521 301.588C212.559 301.969 213.373 302.766 213.964 303.98C214.34 304.752 214.506 305.498 214.464 306.217C214.436 306.93 214.264 307.594 213.949 308.207C213.648 308.814 213.23 309.359 212.697 309.84C212.184 310.328 211.631 310.716 211.039 311.005ZM223.569 304.498L222.266 300.349L219.95 301.476L219.196 298.927L221.471 297.82L220.824 295.808L218.508 296.935L217.733 294.396L220.028 293.279L218.795 289.326L221.401 288.058L222.634 292.011L224.702 291.004L223.469 287.051L226.075 285.783L227.308 289.736L229.625 288.609L230.4 291.148L228.104 292.265L228.751 294.278L231.088 293.141L231.863 295.68L229.546 296.807L230.849 300.956L228.243 302.224L226.94 298.075L224.872 299.081L226.175 303.23L223.569 304.498ZM224.014 296.634L226.206 295.567L225.561 293.452L223.368 294.518L224.014 296.634ZM239.218 293.61L244.533 291.024L245.821 293.671L236.225 298.34L234.896 295.611C235.328 294.394 235.727 293.271 236.095 292.239C236.258 291.802 236.417 291.358 236.572 290.907C236.714 290.463 236.849 290.056 236.976 289.687C237.111 289.298 237.228 288.96 237.327 288.673C237.433 288.365 237.508 288.133 237.55 287.976C237.736 287.34 237.83 286.816 237.835 286.405C237.833 285.98 237.734 285.567 237.54 285.167C237.345 284.768 237.029 284.504 236.592 284.375C236.161 284.227 235.684 284.28 235.16 284.535C234.636 284.79 234.289 285.146 234.12 285.604C233.957 286.041 233.918 286.538 234.001 287.094L230.625 287.304C230.541 286.817 230.532 286.309 230.6 285.782C230.667 285.254 230.827 284.742 231.079 284.244C231.325 283.732 231.67 283.249 232.113 282.794C232.571 282.333 233.131 281.941 233.792 281.619C234.537 281.257 235.259 281.042 235.96 280.974C236.653 280.892 237.29 280.94 237.871 281.118C238.466 281.289 238.998 281.576 239.467 281.979C239.936 282.382 240.314 282.879 240.603 283.472C241.019 284.327 241.204 285.217 241.16 286.143C241.123 287.047 240.924 288.022 240.563 289.068L239.014 293.454L239.218 293.61ZM253.854 290.172C252.917 290.628 251.985 290.851 251.059 290.841C250.134 290.831 249.248 290.622 248.402 290.216C247.556 289.809 246.77 289.228 246.045 288.472C245.326 287.696 244.709 286.778 244.192 285.716C243.675 284.654 243.337 283.608 243.177 282.578C243.023 281.527 243.048 280.543 243.25 279.627C243.452 278.71 243.834 277.884 244.398 277.15C244.961 276.415 245.711 275.82 246.649 275.363C247.573 274.914 248.498 274.694 249.423 274.704C250.363 274.708 251.255 274.913 252.101 275.319C252.947 275.726 253.73 276.318 254.448 277.094C255.174 277.849 255.795 278.757 256.311 279.819C256.828 280.881 257.163 281.937 257.316 282.988C257.476 284.018 257.456 284.992 257.254 285.908C257.052 286.825 256.662 287.654 256.085 288.395C255.522 289.13 254.778 289.722 253.854 290.172ZM252.445 287.276C252.914 287.048 253.274 286.736 253.525 286.341C253.784 285.926 253.939 285.458 253.993 284.937C254.061 284.41 254.022 283.84 253.878 283.228C253.747 282.61 253.524 281.976 253.209 281.328C252.894 280.68 252.533 280.114 252.127 279.63C251.734 279.139 251.31 278.757 250.853 278.485C250.411 278.205 249.949 278.046 249.47 278.007C248.997 277.947 248.527 278.031 248.058 278.259C247.589 278.487 247.226 278.809 246.967 279.224C246.716 279.619 246.557 280.081 246.49 280.608C246.436 281.128 246.474 281.698 246.605 282.317C246.749 282.929 246.979 283.559 247.294 284.207C247.61 284.855 247.963 285.424 248.356 285.915C248.762 286.4 249.187 286.781 249.629 287.061C250.086 287.333 250.55 287.499 251.023 287.559C251.502 287.599 251.977 287.504 252.445 287.276ZM264.464 281.326L269.779 278.74L271.067 281.387L261.471 286.056L260.143 283.326C260.574 282.11 260.974 280.986 261.341 279.955C261.504 279.518 261.663 279.074 261.819 278.623C261.961 278.179 262.095 277.772 262.223 277.403C262.357 277.014 262.474 276.675 262.573 276.389C262.679 276.081 262.754 275.849 262.797 275.691C262.982 275.056 263.077 274.532 263.081 274.121C263.079 273.695 262.98 273.283 262.786 272.883C262.591 272.483 262.275 272.219 261.838 272.091C261.407 271.942 260.93 271.996 260.406 272.251C259.882 272.505 259.535 272.862 259.366 273.319C259.203 273.757 259.164 274.253 259.247 274.81L255.871 275.02C255.787 274.532 255.779 274.025 255.846 273.497C255.913 272.97 256.073 272.457 256.326 271.96C256.571 271.448 256.916 270.965 257.36 270.51C257.817 270.049 258.377 269.657 259.039 269.335C259.783 268.973 260.506 268.758 261.206 268.69C261.899 268.608 262.537 268.656 263.117 268.834C263.712 269.005 264.244 269.292 264.713 269.695C265.182 270.097 265.56 270.595 265.849 271.188C266.265 272.043 266.451 272.933 266.406 273.858C266.369 274.763 266.17 275.738 265.809 276.783L264.26 281.169L264.464 281.326ZM278.108 278.37C277.542 278.645 276.947 278.841 276.322 278.958C275.697 279.075 275.072 279.088 274.449 278.999C273.84 278.904 273.246 278.698 272.666 278.384C272.087 278.069 271.563 277.624 271.096 277.05L273.396 274.575C273.85 275.156 274.36 275.539 274.927 275.723C275.487 275.894 276.085 275.825 276.719 275.516C277.271 275.248 277.645 274.827 277.844 274.253C278.042 273.679 278 273.102 277.718 272.523C277.436 271.944 277.009 271.556 276.435 271.357C275.875 271.153 275.305 271.191 274.726 271.473C274.326 271.667 274.018 271.911 273.803 272.203C273.587 272.496 273.433 272.81 273.34 273.145L269.697 273.229L267.051 265.845L275.303 261.83L276.591 264.477L270.925 267.235L271.816 270.433L272.053 270.395C272.214 270.06 272.444 269.71 272.743 269.343C273.056 268.969 273.495 268.644 274.06 268.369C274.639 268.088 275.248 267.936 275.886 267.916C276.531 267.875 277.154 267.964 277.755 268.183C278.37 268.395 278.946 268.737 279.482 269.21C280.019 269.682 280.465 270.283 280.821 271.014C281.176 271.745 281.377 272.474 281.424 273.201C281.465 273.915 281.361 274.596 281.114 275.245C280.867 275.894 280.491 276.486 279.984 277.022C279.478 277.559 278.852 278.008 278.108 278.37Z" fill="white"/>
<path fill-rule="evenodd" clip-rule="evenodd" d="M309.828 253.754C310.843 253.39 311.838 253.307 313.244 253.469L314.293 253.591L314.411 252.695C314.554 251.601 315.046 250.965 316.1 250.51C317.019 250.114 318.079 250.134 319.235 250.568L320.057 250.876L320.207 250.23C320.29 249.874 320.574 249.26 320.839 248.867C321.247 248.258 321.515 248.056 322.623 247.524C324.011 246.856 325.167 246.718 326.589 247.05L327.263 247.207L327.418 246.085C327.621 244.62 328.141 243.868 329.301 243.362C329.855 243.12 330.426 243.015 330.906 243.067L331.65 243.148L331.765 242.618C331.829 242.326 332.078 241.83 332.32 241.517C333.521 239.962 335.923 239.639 338.723 240.655C340.729 241.383 340.614 241.549 338.105 241.55C335.161 241.552 333.751 241.958 333.172 242.97C332.819 243.587 332.872 243.764 333.573 244.323C334.42 244.998 335.406 246.743 335.435 247.617C335.475 248.839 334.784 249.154 333.676 248.418C333.077 248.02 332.113 246.342 331.866 245.265C331.771 244.856 331.684 244.503 331.671 244.48C331.658 244.457 331.305 244.422 330.886 244.402C329.473 244.337 328.588 245.185 328.413 246.772L328.321 247.602L329.191 248.115C330.451 248.859 331.25 249.665 331.932 250.88C332.445 251.794 332.504 251.99 332.477 252.688C332.452 253.359 332.376 253.51 331.948 253.749C331.529 253.983 331.33 253.971 330.725 253.675C329.799 253.221 329.12 252.407 328.38 250.865C328.064 250.207 327.698 249.446 327.565 249.173C327.346 248.721 327.221 248.661 326.17 248.494C323.619 248.089 321.54 249.186 321.085 251.178C321.012 251.496 321.044 251.558 321.525 252.033C322.719 253.214 323.459 255.189 323.213 256.537C322.88 258.361 321.142 256.919 320.421 254.222C320.255 253.6 320.027 252.906 319.914 252.679C319.46 251.769 316.981 251.481 316.19 252.247C315.808 252.618 315.405 253.578 315.534 253.81C315.577 253.887 316.139 254.194 316.784 254.492C319.494 255.745 321.314 257.854 321.278 259.7C321.253 261.009 320.231 261.404 318.75 260.678C317.378 260.007 316.226 258.697 315.218 256.662L314.515 255.242L313.055 255.105C312.253 255.03 311.299 255.022 310.935 255.089C310.213 255.22 308.909 255.871 308.644 256.232C308.479 256.457 308.484 256.466 309.098 257.024C309.998 257.844 311.371 260.121 311.669 261.289C312.194 263.345 310.68 264.271 309 262.921C308.319 262.374 307.333 260.831 306.983 259.765C306.832 259.304 306.692 258.549 306.672 258.087C306.639 257.322 306.612 257.245 306.366 257.239C306.217 257.235 305.764 257.425 305.358 257.661C304.489 258.166 303.823 259.155 303.611 260.252L303.467 261L304.428 261.628C306.836 263.204 308.408 265.874 307.498 266.841C306.963 267.409 305.692 267.068 304.623 266.07C303.772 265.276 302.983 263.8 302.73 262.53L302.528 261.513L301.915 261.272C301.217 260.998 299.499 260.805 299.208 260.967C298.942 261.115 298.639 260.856 298.885 260.69C299.624 260.192 300.555 260.105 301.735 260.422L302.529 260.635L302.7 259.815C303.214 257.353 304.471 255.989 306.306 255.903C306.978 255.871 307.139 255.8 307.452 255.397C307.984 254.71 308.868 254.099 309.828 253.754ZM307.811 258.387C307.846 259.94 308.869 261.769 309.907 262.135C310.517 262.35 310.583 262.312 310.641 261.711C310.684 261.275 310.607 261.091 309.887 259.912C309.095 258.615 308.133 257.504 307.91 257.628C307.847 257.663 307.802 258.005 307.811 258.387ZM333.818 247.231C334.052 247.49 334.313 247.663 334.398 247.616C334.628 247.488 334.216 246.53 333.665 245.913C332.904 245.06 332.848 245.063 333.129 245.938C333.326 246.552 333.5 246.878 333.818 247.231ZM304.131 264.069C304.792 265.257 306.203 266.264 306.658 265.872C307.141 265.457 305.994 263.847 304.323 262.595L303.49 261.971L303.649 262.731C303.737 263.149 303.954 263.751 304.131 264.069ZM316.418 256.741C317.387 258.479 319.178 260.007 319.823 259.648C320.394 259.329 319.711 258.169 318.353 257.153C317.572 256.568 316.211 255.813 316.075 255.889C316.019 255.92 316.174 256.304 316.418 256.741ZM321.743 255.218C322.107 255.874 322.11 255.876 322.044 255.375C322.007 255.098 321.788 254.538 321.557 254.13L321.137 253.39L321.256 253.973C321.321 254.294 321.54 254.855 321.743 255.218ZM329.369 250.855C329.98 251.955 330.798 252.737 331.203 252.608C331.803 252.418 330.921 250.96 329.607 249.965C328.655 249.246 328.597 249.465 329.369 250.855Z" fill="white"/>
<path fill-rule="evenodd" clip-rule="evenodd" d="M296.03 257.213C296.734 256.661 297.218 255.955 297.69 254.789L298.043 253.92L298.767 254.367C299.65 254.913 300.337 254.92 301.125 254.392C301.812 253.931 302.245 253.115 302.408 251.977L302.524 251.168L303.074 251.441C303.377 251.591 303.959 251.742 304.367 251.778C304.997 251.832 305.262 251.749 306.132 251.227C307.221 250.572 307.814 249.777 308.167 248.498L308.334 247.892L309.243 248.446C310.431 249.169 311.217 249.225 312.088 248.647C312.505 248.371 312.825 248 312.989 247.605L313.243 246.991L313.691 247.221C313.937 247.348 314.415 247.454 314.754 247.458C316.431 247.477 317.691 245.847 318.112 243.112C318.413 241.154 318.24 241.141 317.177 243.046C315.929 245.28 315.028 246.108 314.021 245.942C313.408 245.841 313.297 245.695 313.174 244.828C313.024 243.78 312.129 241.986 311.484 241.442C310.582 240.68 310.053 241.016 310.137 242.298C310.183 242.991 311.037 244.727 311.742 245.56C312.01 245.876 312.239 246.154 312.251 246.178C312.263 246.202 312.139 246.491 311.977 246.82C311.427 247.932 310.415 248.097 309.147 247.28L308.485 246.853L308.467 245.885C308.441 244.482 308.173 243.394 307.547 242.148C307.077 241.211 306.955 241.049 306.419 240.652C305.903 240.27 305.757 240.236 305.396 240.419C305.043 240.597 304.968 240.756 304.935 241.392C304.884 242.366 305.209 243.37 306.055 244.854C306.417 245.488 306.834 246.222 306.983 246.486C307.23 246.923 307.223 247.054 306.903 247.952C306.128 250.132 304.423 251.054 302.733 250.207C302.462 250.071 302.429 250.011 302.275 249.361C301.893 247.747 300.721 246.003 299.602 245.383C298.09 244.544 298.439 246.726 300.162 248.888C300.559 249.387 300.985 249.976 301.107 250.198C301.6 251.088 300.767 253.142 299.856 253.284C299.416 253.352 298.523 253.083 298.403 252.847C298.364 252.768 298.371 252.157 298.42 251.489C298.624 248.681 297.808 246.036 296.405 244.959C295.41 244.195 294.68 244.734 294.599 246.293C294.523 247.737 295.021 249.396 296.125 251.379L296.895 252.763L296.38 253.953C296.097 254.608 295.699 255.337 295.495 255.573C295.091 256.043 294.049 256.644 293.666 256.629C293.427 256.619 293.422 256.61 293.262 255.81C293.027 254.636 291.895 252.23 291.143 251.305C289.819 249.676 288.481 250.271 288.786 252.354C288.909 253.199 289.652 254.871 290.306 255.775C290.588 256.165 291.097 256.724 291.436 257.016C291.998 257.499 292.044 257.566 291.944 257.756C291.884 257.871 291.549 258.102 291.2 258.269C290.453 258.626 289.427 258.54 288.513 258.044L287.889 257.706L287.823 256.6C287.657 253.829 286.314 251.036 285.202 251.148C284.549 251.214 284.267 252.384 284.565 253.793C284.802 254.915 285.578 256.397 286.427 257.35L287.106 258.112L287.027 258.722C286.938 259.415 286.356 260.836 286.111 260.96C285.887 261.073 285.954 261.458 286.182 261.371C286.87 261.108 287.33 260.453 287.59 259.367L287.766 258.637L288.455 258.998C290.524 260.081 292.082 259.943 292.924 258.601C293.232 258.109 293.353 258.03 293.789 258.034C294.531 258.041 295.365 257.735 296.03 257.213ZM291.692 255.971C290.54 255.015 289.597 253.143 289.761 252.136C289.857 251.544 289.913 251.517 290.39 251.832C290.736 252.061 290.842 252.23 291.424 253.483C292.065 254.86 292.493 256.256 292.305 256.351C292.252 256.377 291.976 256.207 291.692 255.971ZM311.09 242.901C310.995 242.568 310.974 242.266 311.046 242.23C311.24 242.132 311.786 243.018 312.017 243.805C312.336 244.894 312.31 244.935 311.771 244.198C311.393 243.68 311.221 243.353 311.09 242.901ZM285.861 255.364C285.248 254.152 285.088 252.477 285.575 252.366C286.092 252.248 286.817 254.083 287.051 256.102L287.168 257.108L286.664 256.532C286.387 256.215 286.026 255.689 285.861 255.364ZM296.573 250.421C295.677 248.645 295.285 246.37 295.828 246.095C296.31 245.852 296.893 247.065 297.083 248.704C297.192 249.648 297.183 251.133 297.069 251.191C297.022 251.215 296.799 250.868 296.573 250.421ZM299.972 247.289C299.633 246.62 299.633 246.617 299.981 246.966C300.174 247.16 300.503 247.662 300.712 248.081L301.091 248.843L300.702 248.404C300.489 248.162 300.16 247.66 299.972 247.289ZM306.481 244.11C305.913 242.987 305.671 241.898 305.939 241.667C306.336 241.326 307.06 242.868 307.251 244.462C307.389 245.615 307.2 245.528 306.481 244.11Z" fill="white"/>
<path d="M352.985 231.347L360.286 227.795C360.408 227.94 360.546 228.137 360.701 228.386C360.87 228.627 361.011 228.866 361.125 229.1C361.635 230.148 361.936 231.152 362.029 232.113C362.121 233.074 362.029 234.006 361.752 234.908C361.432 235.934 360.901 236.874 360.158 237.73C359.408 238.572 358.434 239.285 357.234 239.869C356.159 240.392 355.044 240.696 353.891 240.779C352.752 240.856 351.66 240.731 350.614 240.405C349.562 240.064 348.6 239.526 347.731 238.789C346.854 238.039 346.141 237.099 345.591 235.968C345.04 234.838 344.744 233.703 344.702 232.564C344.652 231.412 344.822 230.323 345.21 229.299C345.592 228.26 346.164 227.317 346.928 226.468C347.705 225.612 348.631 224.923 349.707 224.399C350.961 223.789 352.155 223.472 353.286 223.45C354.432 223.422 355.537 223.608 356.603 224.011L355.457 227.228C354.74 226.981 354.045 226.867 353.373 226.887C352.707 226.887 351.968 227.084 351.155 227.48C350.52 227.789 349.978 228.198 349.526 228.707C349.082 229.196 348.747 229.752 348.521 230.373C348.302 230.974 348.209 231.625 348.243 232.325C348.283 233.004 348.475 233.695 348.817 234.398C349.159 235.102 349.588 235.686 350.104 236.151C350.628 236.595 351.204 236.92 351.832 237.126C352.454 237.318 353.105 237.394 353.784 237.353C354.457 237.298 355.117 237.113 355.765 236.798C357.034 236.181 357.883 235.35 358.312 234.305C358.446 233.985 358.536 233.626 358.581 233.228C358.634 232.811 358.631 232.385 358.574 231.953L354.293 234.036L352.985 231.347ZM367.927 234.41C367.376 234.679 366.813 234.714 366.239 234.516C365.665 234.317 365.244 233.942 364.976 233.391C364.707 232.839 364.672 232.277 364.87 231.703C365.069 231.129 365.443 230.708 365.995 230.439C366.546 230.171 367.109 230.136 367.683 230.334C368.257 230.532 368.678 230.907 368.946 231.459C369.215 232.01 369.25 232.573 369.052 233.147C368.853 233.721 368.479 234.142 367.927 234.41ZM377.191 230.158C375.813 230.829 374.442 231.044 373.08 230.803C371.725 230.542 370.505 229.822 369.421 228.645L371.877 225.966C372.399 226.582 372.977 227.016 373.612 227.27C374.247 227.524 374.944 227.466 375.702 227.097C375.95 226.977 376.171 226.835 376.365 226.672C376.573 226.503 376.732 226.323 376.844 226.132C376.963 225.921 377.034 225.699 377.057 225.466C377.08 225.233 377.035 225 376.92 224.765C376.806 224.531 376.654 224.341 376.464 224.194C376.28 224.028 376.045 223.912 375.758 223.847C375.464 223.769 375.104 223.731 374.679 223.733C374.247 223.721 373.722 223.747 373.104 223.808L372.033 223.92C371.58 223.97 371.09 223.979 370.562 223.946C370.041 223.892 369.532 223.773 369.033 223.59C368.535 223.406 368.074 223.144 367.653 222.803C367.225 222.449 366.876 221.996 366.608 221.444C366.32 220.852 366.165 220.236 366.145 219.598C366.124 218.96 366.237 218.351 366.483 217.771C366.723 217.177 367.092 216.622 367.592 216.106C368.091 215.59 368.706 215.155 369.437 214.799C370.209 214.423 370.921 214.205 371.573 214.143C372.218 214.068 372.811 214.095 373.352 214.224C373.885 214.34 374.356 214.537 374.765 214.815C375.187 215.087 375.547 215.372 375.846 215.671L373.628 218.208C373.261 217.841 372.849 217.606 372.391 217.505C371.925 217.391 371.431 217.461 370.907 217.716C370.355 217.984 369.971 218.316 369.754 218.711C369.545 219.086 369.527 219.453 369.701 219.811C369.883 220.184 370.209 220.434 370.681 220.563C371.153 220.691 371.879 220.696 372.861 220.576L373.922 220.443C375.385 220.26 376.635 220.359 377.674 220.741C378.712 221.123 379.526 221.92 380.117 223.133C380.492 223.905 380.659 224.651 380.617 225.371C380.589 226.084 380.417 226.747 380.102 227.361C379.8 227.968 379.383 228.512 378.85 228.993C378.337 229.481 377.784 229.87 377.191 230.158ZM389.722 223.652L388.419 219.503L386.103 220.63L385.349 218.081L387.624 216.974L386.977 214.961L384.66 216.088L383.885 213.549L386.181 212.432L384.948 208.479L387.554 207.211L388.787 211.164L390.855 210.158L389.622 206.205L392.228 204.937L393.461 208.89L395.777 207.763L396.552 210.302L394.257 211.419L394.904 213.432L397.241 212.294L398.016 214.833L395.699 215.96L397.002 220.11L394.396 221.378L393.093 217.228L391.025 218.235L392.328 222.384L389.722 223.652ZM390.167 215.787L392.359 214.721L391.713 212.605L389.521 213.672L390.167 215.787ZM405.371 212.764L410.686 210.177L411.974 212.825L402.378 217.494L401.049 214.764C401.481 213.548 401.88 212.424 402.248 211.393C402.41 210.955 402.57 210.511 402.725 210.061C402.867 209.616 403.002 209.21 403.129 208.841C403.264 208.451 403.381 208.113 403.48 207.826C403.586 207.519 403.66 207.286 403.703 207.129C403.888 206.493 403.983 205.97 403.988 205.558C403.985 205.133 403.887 204.721 403.692 204.321C403.498 203.921 403.182 203.657 402.744 203.529C402.314 203.38 401.837 203.433 401.313 203.688C400.789 203.943 400.442 204.299 400.273 204.757C400.11 205.194 400.071 205.691 400.154 206.247L396.777 206.458C396.694 205.97 396.685 205.462 396.753 204.935C396.82 204.408 396.98 203.895 397.232 203.397C397.478 202.886 397.822 202.402 398.266 201.948C398.724 201.486 399.283 201.095 399.945 200.773C400.69 200.41 401.412 200.195 402.112 200.127C402.806 200.046 403.443 200.094 404.024 200.272C404.619 200.443 405.151 200.729 405.62 201.132C406.088 201.535 406.467 202.033 406.756 202.626C407.171 203.481 407.357 204.371 407.313 205.296C407.276 206.201 407.077 207.176 406.716 208.221L405.167 212.607L405.371 212.764ZM420.007 209.325C419.07 209.781 418.138 210.004 417.212 209.994C416.287 209.984 415.401 209.776 414.555 209.369C413.709 208.962 412.923 208.381 412.197 207.626C411.479 206.85 410.861 205.931 410.345 204.869C409.828 203.808 409.49 202.762 409.329 201.731C409.176 200.681 409.201 199.697 409.402 198.78C409.604 197.863 409.987 197.038 410.55 196.303C411.114 195.569 411.864 194.973 412.802 194.517C413.726 194.067 414.65 193.848 415.576 193.858C416.516 193.861 417.408 194.066 418.254 194.473C419.1 194.88 419.882 195.471 420.601 196.247C421.327 197.002 421.948 197.911 422.464 198.972C422.981 200.034 423.316 201.09 423.469 202.141C423.629 203.172 423.608 204.145 423.407 205.062C423.205 205.979 422.815 206.808 422.238 207.549C421.675 208.283 420.931 208.875 420.007 209.325ZM418.598 206.43C419.067 206.201 419.427 205.89 419.678 205.495C419.936 205.079 420.092 204.611 420.146 204.091C420.213 203.563 420.175 202.994 420.031 202.382C419.9 201.763 419.677 201.13 419.362 200.482C419.047 199.834 418.686 199.268 418.28 198.783C417.887 198.292 417.463 197.91 417.006 197.638C416.563 197.359 416.102 197.2 415.623 197.16C415.15 197.1 414.679 197.184 414.211 197.412C413.742 197.64 413.378 197.962 413.12 198.378C412.869 198.773 412.71 199.234 412.642 199.761C412.589 200.282 412.627 200.852 412.758 201.47C412.902 202.082 413.132 202.712 413.447 203.36C413.762 204.008 414.116 204.578 414.509 205.069C414.915 205.553 415.339 205.935 415.782 206.214C416.239 206.486 416.703 206.653 417.176 206.713C417.655 206.752 418.13 206.658 418.598 206.43ZM430.617 200.479L435.932 197.893L437.22 200.54L427.624 205.21L426.295 202.48C426.727 201.264 427.126 200.14 427.494 199.108C427.657 198.671 427.816 198.227 427.971 197.776C428.113 197.332 428.248 196.925 428.375 196.557C428.51 196.167 428.627 195.829 428.726 195.542C428.832 195.235 428.907 195.002 428.949 194.845C429.135 194.209 429.229 193.686 429.234 193.274C429.232 192.849 429.133 192.436 428.939 192.037C428.744 191.637 428.428 191.373 427.99 191.245C427.56 191.096 427.083 191.149 426.559 191.404C426.035 191.659 425.688 192.015 425.519 192.473C425.356 192.91 425.317 193.407 425.4 193.963L422.024 194.174C421.94 193.686 421.931 193.178 421.999 192.651C422.066 192.124 422.226 191.611 422.478 191.113C422.724 190.601 423.069 190.118 423.512 189.664C423.97 189.202 424.53 188.81 425.191 188.488C425.936 188.126 426.658 187.911 427.359 187.843C428.052 187.762 428.689 187.81 429.27 187.987C429.865 188.158 430.397 188.445 430.866 188.848C431.335 189.251 431.713 189.749 432.002 190.341C432.418 191.196 432.603 192.086 432.559 193.012C432.522 193.917 432.323 194.892 431.962 195.937L430.413 200.323L430.617 200.479ZM444.261 197.524C443.695 197.799 443.1 197.995 442.475 198.111C441.849 198.228 441.225 198.242 440.602 198.153C439.993 198.057 439.398 197.852 438.819 197.537C438.239 197.222 437.716 196.778 437.249 196.203L439.549 193.729C440.002 194.31 440.513 194.692 441.08 194.877C441.64 195.047 442.238 194.978 442.872 194.67C443.423 194.401 443.798 193.98 443.996 193.406C444.195 192.832 444.153 192.256 443.871 191.677C443.589 191.098 443.161 190.709 442.588 190.511C442.027 190.306 441.458 190.344 440.879 190.626C440.479 190.821 440.171 191.064 439.955 191.357C439.74 191.649 439.585 191.963 439.493 192.298L435.85 192.382L433.204 184.999L441.456 180.984L442.744 183.631L437.077 186.388L437.969 189.587L438.206 189.548C438.367 189.214 438.597 188.863 438.896 188.496C439.209 188.122 439.647 187.798 440.213 187.523C440.792 187.241 441.4 187.09 442.038 187.069C442.683 187.028 443.307 187.117 443.908 187.336C444.523 187.549 445.098 187.891 445.635 188.363C446.172 188.835 446.618 189.437 446.973 190.167C447.329 190.898 447.53 191.627 447.577 192.355C447.618 193.068 447.514 193.749 447.267 194.398C447.02 195.047 446.643 195.64 446.137 196.176C445.631 196.712 445.005 197.161 444.261 197.524Z" fill="white"/>
<path fill-rule="evenodd" clip-rule="evenodd" d="M475.98 172.908C476.996 172.543 477.991 172.46 479.397 172.623L480.446 172.744L480.563 171.848C480.707 170.755 481.199 170.118 482.253 169.664C483.172 169.267 484.231 169.287 485.388 169.721L486.209 170.03L486.36 169.383C486.443 169.027 486.727 168.414 486.992 168.02C487.4 167.411 487.668 167.21 488.776 166.677C490.163 166.009 491.32 165.871 492.742 166.203L493.416 166.361L493.571 165.238C493.774 163.774 494.294 163.021 495.453 162.515C496.008 162.273 496.579 162.169 497.058 162.221L497.803 162.302L497.918 161.771C497.981 161.479 498.231 160.984 498.473 160.67C499.674 159.115 502.076 158.792 504.876 159.808C506.881 160.536 506.767 160.702 504.257 160.704C501.314 160.706 499.904 161.111 499.325 162.123C498.972 162.74 499.024 162.917 499.726 163.476C500.573 164.152 501.559 165.897 501.588 166.77C501.628 167.992 500.937 168.307 499.829 167.572C499.23 167.174 498.266 165.495 498.018 164.419C497.924 164.01 497.837 163.656 497.824 163.633C497.811 163.61 497.458 163.575 497.039 163.556C495.626 163.491 494.741 164.339 494.566 165.926L494.474 166.755L495.343 167.268C496.604 168.013 497.403 168.818 498.085 170.033C498.598 170.948 498.657 171.144 498.63 171.841C498.605 172.513 498.529 172.664 498.1 172.903C497.682 173.136 497.482 173.124 496.878 172.828C495.952 172.375 495.273 171.561 494.533 170.019C494.217 169.361 493.851 168.599 493.718 168.326C493.499 167.875 493.374 167.814 492.323 167.647C489.771 167.242 487.693 168.34 487.238 170.331C487.165 170.65 487.197 170.711 487.678 171.187C488.872 172.368 489.612 174.342 489.366 175.691C489.033 177.514 487.295 176.073 486.574 173.376C486.408 172.754 486.179 172.059 486.067 171.833C485.612 170.922 483.134 170.634 482.343 171.401C481.961 171.772 481.558 172.732 481.687 172.964C481.73 173.041 482.292 173.347 482.937 173.645C485.647 174.898 487.467 177.008 487.431 178.853C487.405 180.162 486.384 180.557 484.902 179.832C483.531 179.16 482.379 177.85 481.371 175.815L480.668 174.396L479.208 174.259C478.406 174.183 477.452 174.176 477.088 174.242C476.366 174.374 475.061 175.025 474.797 175.386C474.632 175.61 474.637 175.62 475.251 176.178C476.151 176.997 477.524 179.275 477.822 180.442C478.347 182.498 476.832 183.424 475.153 182.075C474.472 181.527 473.486 179.985 473.136 178.918C472.985 178.458 472.845 177.703 472.825 177.24C472.792 176.475 472.764 176.399 472.519 176.392C472.37 176.389 471.916 176.579 471.511 176.815C470.642 177.32 469.976 178.308 469.764 179.405L469.62 180.153L470.581 180.782C472.988 182.357 474.561 185.028 473.651 185.995C473.116 186.562 471.844 186.221 470.776 185.223C469.925 184.429 469.136 182.953 468.883 181.683L468.681 180.666L468.068 180.426C467.37 180.152 465.652 179.958 465.36 180.12C465.094 180.269 464.792 180.01 465.038 179.844C465.777 179.346 466.708 179.258 467.888 179.576L468.681 179.789L468.853 178.969C469.366 176.507 470.624 175.143 472.459 175.057C473.131 175.025 473.292 174.954 473.605 174.55C474.136 173.864 475.021 173.253 475.98 172.908ZM473.964 177.541C473.999 179.093 475.022 180.923 476.06 181.288C476.67 181.504 476.735 181.466 476.794 180.865C476.837 180.429 476.759 180.244 476.039 179.065C475.247 177.768 474.286 176.657 474.063 176.782C474 176.817 473.955 177.158 473.964 177.541ZM499.971 166.384C500.205 166.643 500.466 166.817 500.55 166.77C500.781 166.641 500.369 165.683 499.818 165.067C499.057 164.214 499.001 164.216 499.282 165.091C499.479 165.705 499.653 166.031 499.971 166.384ZM470.284 183.223C470.945 184.41 472.356 185.417 472.811 185.026C473.294 184.611 472.147 183 470.475 181.748L469.643 181.124L469.802 181.884C469.89 182.302 470.107 182.905 470.284 183.223ZM482.571 175.895C483.54 177.632 485.331 179.161 485.975 178.801C486.547 178.482 485.864 177.323 484.506 176.306C483.724 175.721 482.364 174.967 482.228 175.042C482.172 175.073 482.326 175.457 482.571 175.895ZM487.895 174.372C488.26 175.028 488.262 175.029 488.196 174.529C488.16 174.251 487.941 173.691 487.71 173.284L487.29 172.543L487.409 173.127C487.474 173.448 487.693 174.008 487.895 174.372ZM495.522 170.009C496.133 171.109 496.951 171.89 497.356 171.761C497.955 171.572 497.074 170.113 495.76 169.119C494.808 168.399 494.749 168.619 495.522 170.009Z" fill="white"/>
<path fill-rule="evenodd" clip-rule="evenodd" d="M462.183 176.367C462.887 175.814 463.37 175.108 463.843 173.943L464.196 173.074L464.92 173.521C465.803 174.066 466.49 174.073 467.278 173.545C467.964 173.085 468.398 172.269 468.561 171.13L468.677 170.322L469.227 170.594C469.53 170.744 470.111 170.896 470.519 170.931C471.15 170.985 471.415 170.903 472.285 170.38C473.374 169.726 473.967 168.93 474.319 167.652L474.486 167.046L475.396 167.6C476.583 168.323 477.37 168.378 478.241 167.801C478.658 167.524 478.978 167.153 479.142 166.758L479.396 166.144L479.844 166.374C480.09 166.501 480.568 166.608 480.907 166.612C482.584 166.631 483.844 165 484.265 162.266C484.566 160.307 484.393 160.295 483.33 162.199C482.082 164.434 481.18 165.261 480.174 165.095C479.561 164.994 479.45 164.848 479.326 163.981C479.177 162.934 478.282 161.14 477.637 160.595C476.735 159.833 476.206 160.17 476.29 161.451C476.336 162.144 477.19 163.881 477.895 164.713C478.163 165.03 478.391 165.308 478.403 165.331C478.415 165.355 478.292 165.644 478.129 165.974C477.58 167.086 476.568 167.25 475.3 166.433L474.637 166.006L474.619 165.039C474.593 163.636 474.326 162.547 473.7 161.302C473.23 160.365 473.108 160.203 472.571 159.805C472.056 159.423 471.91 159.39 471.549 159.572C471.196 159.75 471.121 159.909 471.088 160.545C471.037 161.52 471.361 162.523 472.208 164.008C472.569 164.641 472.987 165.376 473.136 165.64C473.383 166.076 473.376 166.208 473.056 167.105C472.281 169.285 470.576 170.207 468.885 169.36C468.615 169.225 468.582 169.164 468.428 168.514C468.045 166.901 466.874 165.157 465.755 164.536C464.243 163.698 464.591 165.88 466.315 168.042C466.712 168.541 467.138 169.13 467.26 169.351C467.753 170.241 466.92 172.296 466.009 172.437C465.569 172.505 464.676 172.237 464.556 172C464.516 171.921 464.524 171.311 464.573 170.643C464.777 167.835 463.961 165.19 462.558 164.112C461.563 163.348 460.833 163.887 460.752 165.447C460.676 166.89 461.174 168.549 462.278 170.533L463.048 171.917L462.533 173.107C462.25 173.761 461.852 174.49 461.648 174.727C461.243 175.196 460.202 175.797 459.818 175.782C459.58 175.773 459.575 175.763 459.415 174.963C459.179 173.789 458.048 171.383 457.296 170.458C455.972 168.829 454.634 169.424 454.938 171.507C455.062 172.352 455.805 174.024 456.459 174.929C456.741 175.319 457.25 175.877 457.589 176.169C458.15 176.652 458.196 176.719 458.097 176.91C458.037 177.025 457.702 177.255 457.353 177.422C456.605 177.779 455.58 177.694 454.665 177.198L454.042 176.859L453.976 175.754C453.81 172.982 452.467 170.189 451.355 170.302C450.701 170.368 450.42 171.538 450.718 172.947C450.955 174.068 451.731 175.55 452.579 176.503L453.258 177.265L453.18 177.875C453.09 178.569 452.509 179.99 452.264 180.114C452.039 180.227 452.106 180.611 452.335 180.524C453.022 180.261 453.482 179.607 453.743 178.52L453.919 177.79L454.608 178.151C456.677 179.235 458.235 179.096 459.077 177.754C459.385 177.263 459.506 177.183 459.942 177.187C460.683 177.195 461.517 176.889 462.183 176.367ZM457.845 175.125C456.692 174.168 455.75 172.297 455.914 171.29C456.01 170.698 456.066 170.67 456.543 170.986C456.889 171.214 456.995 171.383 457.577 172.636C458.217 174.014 458.646 175.409 458.458 175.504C458.405 175.531 458.129 175.36 457.845 175.125ZM477.243 162.054C477.147 161.721 477.127 161.419 477.198 161.383C477.393 161.285 477.939 162.172 478.169 162.959C478.488 164.048 478.463 164.088 477.924 163.351C477.545 162.834 477.374 162.507 477.243 162.054ZM452.014 174.518C451.401 173.305 451.241 171.631 451.727 171.52C452.244 171.401 452.97 173.236 453.204 175.255L453.321 176.261L452.817 175.685C452.54 175.368 452.178 174.843 452.014 174.518ZM462.726 169.574C461.829 167.798 461.438 165.523 461.981 165.249C462.463 165.006 463.046 166.218 463.235 167.858C463.344 168.802 463.336 170.287 463.222 170.345C463.175 170.368 462.952 170.022 462.726 169.574ZM466.125 166.442C465.786 165.773 465.786 165.77 466.134 166.12C466.327 166.314 466.656 166.815 466.864 167.235L467.244 167.997L466.855 167.557C466.642 167.315 466.313 166.814 466.125 166.442ZM472.634 163.263C472.066 162.141 471.824 161.052 472.092 160.821C472.489 160.479 473.213 162.021 473.404 163.615C473.542 164.768 473.353 164.681 472.634 163.263Z" fill="white"/>
<path d="M519.138 150.501L526.439 146.948C526.56 147.094 526.699 147.291 526.854 147.539C527.023 147.781 527.164 148.019 527.278 148.254C527.788 149.301 528.089 150.306 528.182 151.267C528.274 152.228 528.182 153.16 527.905 154.062C527.585 155.087 527.054 156.028 526.311 156.884C525.561 157.726 524.586 158.439 523.387 159.023C522.311 159.546 521.197 159.849 520.044 159.933C518.905 160.01 517.812 159.885 516.767 159.558C515.714 159.218 514.753 158.679 513.883 157.943C513.007 157.193 512.294 156.252 511.743 155.122C511.193 153.991 510.897 152.856 510.854 151.718C510.805 150.565 510.975 149.476 511.363 148.452C511.744 147.414 512.317 146.47 513.08 145.621C513.858 144.766 514.784 144.076 515.859 143.553C517.114 142.942 518.307 142.626 519.439 142.604C520.585 142.575 521.69 142.762 522.756 143.164L521.61 146.382C520.893 146.134 520.198 146.02 519.525 146.041C518.86 146.04 518.121 146.238 517.307 146.634C516.673 146.942 516.131 147.351 515.679 147.861C515.235 148.35 514.9 148.905 514.674 149.527C514.455 150.128 514.362 150.778 514.396 151.478C514.436 152.157 514.628 152.849 514.97 153.552C515.312 154.255 515.741 154.839 516.257 155.304C516.78 155.749 517.356 156.074 517.985 156.28C518.607 156.471 519.258 156.547 519.937 156.506C520.61 156.452 521.27 156.267 521.918 155.952C523.187 155.334 524.036 154.504 524.465 153.459C524.599 153.138 524.689 152.779 524.734 152.382C524.787 151.964 524.784 151.539 524.727 151.106L520.446 153.189L519.138 150.501ZM534.08 153.564C533.528 153.832 532.966 153.867 532.392 153.669C531.818 153.471 531.397 153.096 531.128 152.544C530.86 151.993 530.825 151.43 531.023 150.856C531.221 150.282 531.596 149.861 532.148 149.593C532.699 149.325 533.262 149.29 533.836 149.488C534.41 149.686 534.831 150.061 535.099 150.612C535.368 151.164 535.403 151.727 535.204 152.3C535.006 152.874 534.631 153.295 534.08 153.564ZM543.344 149.312C541.966 149.983 540.595 150.198 539.233 149.957C537.878 149.695 536.658 148.976 535.574 147.798L538.03 145.119C538.552 145.735 539.13 146.17 539.765 146.424C540.4 146.677 541.097 146.62 541.855 146.251C542.103 146.13 542.324 145.988 542.518 145.826C542.725 145.657 542.885 145.477 542.997 145.286C543.116 145.075 543.187 144.853 543.21 144.62C543.233 144.387 543.187 144.153 543.073 143.919C542.959 143.684 542.807 143.494 542.617 143.348C542.433 143.181 542.198 143.066 541.911 143.001C541.617 142.922 541.257 142.884 540.832 142.886C540.4 142.875 539.875 142.9 539.257 142.962L538.186 143.074C537.733 143.124 537.243 143.132 536.715 143.099C536.194 143.045 535.685 142.927 535.186 142.743C534.687 142.559 534.227 142.297 533.806 141.957C533.378 141.602 533.029 141.149 532.761 140.598C532.472 140.005 532.318 139.39 532.297 138.752C532.277 138.114 532.39 137.505 532.636 136.924C532.876 136.33 533.245 135.775 533.744 135.26C534.244 134.744 534.859 134.308 535.589 133.953C536.362 133.577 537.074 133.358 537.726 133.297C538.371 133.221 538.964 133.248 539.505 133.378C540.038 133.493 540.509 133.69 540.918 133.969C541.34 134.241 541.7 134.526 541.999 134.824L539.78 137.361C539.414 136.994 539.002 136.76 538.543 136.659C538.078 136.544 537.584 136.614 537.06 136.869C536.508 137.138 536.124 137.469 535.907 137.865C535.697 138.24 535.68 138.606 535.854 138.965C536.035 139.337 536.362 139.588 536.834 139.716C537.305 139.845 538.032 139.849 539.014 139.729L540.075 139.597C541.538 139.414 542.788 139.513 543.827 139.894C544.865 140.276 545.679 141.073 546.269 142.287C546.645 143.059 546.812 143.805 546.77 144.524C546.742 145.237 546.57 145.901 546.255 146.514C545.953 147.121 545.536 147.666 545.003 148.147C544.49 148.635 543.937 149.023 543.344 149.312ZM555.875 142.805L554.572 138.656L552.256 139.783L551.502 137.234L553.776 136.127L553.13 134.114L550.813 135.242L550.038 132.703L552.334 131.586L551.101 127.633L553.707 126.365L554.94 130.318L557.008 129.311L555.775 125.358L558.381 124.09L559.614 128.043L561.93 126.916L562.705 129.455L560.41 130.572L561.056 132.585L563.393 131.448L564.168 133.987L561.852 135.114L563.155 139.263L560.549 140.531L559.246 136.382L557.178 137.388L558.481 141.537L555.875 142.805ZM556.32 134.941L558.512 133.874L557.866 131.759L555.674 132.825L556.32 134.941ZM571.523 131.917L576.839 129.331L578.127 131.978L568.53 136.647L567.202 133.917C567.634 132.701 568.033 131.578 568.401 130.546C568.563 130.109 568.722 129.665 568.878 129.214C569.02 128.77 569.155 128.363 569.282 127.994C569.417 127.605 569.533 127.267 569.633 126.98C569.739 126.672 569.813 126.44 569.856 126.283C570.041 125.647 570.136 125.123 570.141 124.712C570.138 124.287 570.04 123.874 569.845 123.474C569.651 123.074 569.335 122.81 568.897 122.682C568.467 122.534 567.99 122.587 567.466 122.842C566.942 123.097 566.595 123.453 566.425 123.911C566.263 124.348 566.223 124.844 566.306 125.401L562.93 125.611C562.846 125.123 562.838 124.616 562.906 124.089C562.973 123.561 563.133 123.049 563.385 122.551C563.631 122.039 563.975 121.556 564.419 121.101C564.877 120.64 565.436 120.248 566.098 119.926C566.843 119.564 567.565 119.349 568.265 119.281C568.959 119.199 569.596 119.247 570.177 119.425C570.772 119.596 571.304 119.883 571.772 120.286C572.241 120.689 572.62 121.186 572.908 121.779C573.324 122.634 573.51 123.524 573.466 124.449C573.429 125.354 573.23 126.329 572.869 127.375L571.319 131.761L571.523 131.917ZM586.16 128.478C585.222 128.935 584.291 129.158 583.365 129.148C582.439 129.138 581.554 128.929 580.708 128.523C579.862 128.116 579.076 127.535 578.35 126.779C577.632 126.003 577.014 125.085 576.498 124.023C575.981 122.961 575.643 121.915 575.482 120.885C575.329 119.834 575.353 118.85 575.555 117.933C575.757 117.017 576.14 116.191 576.703 115.457C577.267 114.722 578.017 114.127 578.955 113.67C579.878 113.221 580.803 113.001 581.729 113.011C582.668 113.014 583.561 113.22 584.407 113.626C585.253 114.033 586.035 114.625 586.754 115.4C587.479 116.156 588.1 117.064 588.617 118.126C589.134 119.188 589.469 120.244 589.622 121.295C589.782 122.325 589.761 123.299 589.559 124.215C589.357 125.132 588.968 125.961 588.391 126.702C587.827 127.437 587.084 128.029 586.16 128.478ZM584.751 125.583C585.22 125.355 585.58 125.043 585.831 124.648C586.089 124.233 586.245 123.765 586.299 123.244C586.366 122.717 586.328 122.147 586.183 121.535C586.053 120.917 585.83 120.283 585.515 119.635C585.199 118.987 584.839 118.421 584.432 117.937C584.04 117.446 583.616 117.064 583.159 116.791C582.716 116.512 582.255 116.353 581.776 116.314C581.303 116.254 580.832 116.338 580.364 116.566C579.895 116.794 579.531 117.116 579.273 117.531C579.022 117.926 578.863 118.388 578.795 118.915C578.742 119.435 578.78 120.005 578.91 120.624C579.055 121.236 579.285 121.865 579.6 122.514C579.915 123.162 580.269 123.731 580.661 124.222C581.068 124.707 581.492 125.088 581.935 125.368C582.391 125.64 582.856 125.806 583.329 125.866C583.808 125.905 584.282 125.811 584.751 125.583ZM596.77 119.633L602.085 117.047L603.373 119.694L593.777 124.363L592.448 121.633C592.88 120.417 593.279 119.293 593.647 118.262C593.809 117.825 593.969 117.381 594.124 116.93C594.266 116.486 594.401 116.079 594.528 115.71C594.663 115.321 594.78 114.982 594.879 114.695C594.985 114.388 595.059 114.156 595.102 113.998C595.287 113.363 595.382 112.839 595.387 112.428C595.384 112.002 595.286 111.59 595.091 111.19C594.897 110.79 594.581 110.526 594.143 110.398C593.713 110.249 593.236 110.303 592.712 110.557C592.188 110.812 591.841 111.169 591.672 111.626C591.509 112.063 591.469 112.56 591.553 113.117L588.176 113.327C588.093 112.839 588.084 112.332 588.152 111.804C588.219 111.277 588.379 110.764 588.631 110.267C588.877 109.755 589.221 109.272 589.665 108.817C590.123 108.356 590.682 107.964 591.344 107.642C592.089 107.28 592.811 107.065 593.511 106.997C594.205 106.915 594.842 106.963 595.423 107.141C596.018 107.312 596.55 107.599 597.019 108.001C597.487 108.404 597.866 108.902 598.155 109.495C598.57 110.35 598.756 111.24 598.712 112.165C598.675 113.07 598.476 114.045 598.115 115.09L596.566 119.476L596.77 119.633ZM610.413 116.677C609.848 116.952 609.253 117.148 608.628 117.265C608.002 117.382 607.378 117.395 606.755 117.306C606.146 117.211 605.551 117.005 604.972 116.691C604.392 116.376 603.869 115.931 603.402 115.357L605.702 112.882C606.155 113.463 606.665 113.846 607.233 114.03C607.793 114.201 608.39 114.132 609.025 113.823C609.576 113.555 609.951 113.134 610.149 112.56C610.347 111.986 610.306 111.409 610.024 110.83C609.742 110.251 609.314 109.863 608.74 109.664C608.18 109.459 607.611 109.498 607.032 109.78C606.632 109.974 606.324 110.218 606.108 110.51C605.892 110.803 605.738 111.117 605.645 111.452L602.003 111.536L599.357 104.152L607.609 100.137L608.897 102.784L603.23 105.542L604.121 108.74L604.358 108.702C604.52 108.367 604.75 108.017 605.049 107.65C605.361 107.276 605.8 106.951 606.366 106.676C606.945 106.394 607.553 106.243 608.191 106.223C608.836 106.182 609.459 106.271 610.06 106.49C610.675 106.702 611.251 107.044 611.788 107.517C612.324 107.989 612.771 108.59 613.126 109.321C613.482 110.052 613.683 110.781 613.73 111.508C613.77 112.222 613.667 112.903 613.42 113.552C613.173 114.201 612.796 114.793 612.29 115.329C611.783 115.866 611.158 116.315 610.413 116.677Z" fill="white"/>
<path fill-rule="evenodd" clip-rule="evenodd" d="M642.133 92.0614C643.148 91.6967 644.143 91.6137 645.55 91.7762L646.599 91.8975L646.716 91.0017C646.86 89.9082 647.352 89.2718 648.406 88.8172C649.325 88.4209 650.384 88.4404 651.541 88.8749L652.362 89.1834L652.513 88.5366C652.596 88.1807 652.88 87.5672 653.144 87.1735C653.553 86.5647 653.82 86.3633 654.928 85.8304C656.316 85.1629 657.473 85.0248 658.895 85.3568L659.569 85.5141L659.724 84.3919C659.927 82.9272 660.447 82.1746 661.606 81.6685C662.161 81.4266 662.732 81.3219 663.211 81.3743L663.956 81.4554L664.071 80.9246C664.134 80.6328 664.384 80.1374 664.626 79.8238C665.827 78.2688 668.229 77.9454 671.029 78.9617C673.034 79.6895 672.92 79.8557 670.41 79.8572C667.467 79.8592 666.057 80.2648 665.478 81.2769C665.125 81.8934 665.177 82.0704 665.878 82.6294C666.726 83.305 667.712 85.05 667.741 85.9234C667.78 87.1456 667.09 87.4605 665.982 86.725C665.383 86.327 664.419 84.6489 664.171 83.5722C664.077 83.1632 663.99 82.8097 663.977 82.7866C663.964 82.7634 663.611 82.7287 663.192 82.7093C661.778 82.6441 660.893 83.4921 660.718 85.0792L660.627 85.9089L661.496 86.4219C662.757 87.166 663.556 87.9715 664.238 89.1868C664.751 90.1012 664.81 90.297 664.783 90.9948C664.757 91.666 664.682 91.817 664.253 92.0563C663.835 92.2898 663.635 92.2776 663.031 91.9816C662.105 91.5283 661.425 90.714 660.686 89.1721C660.37 88.514 660.004 87.7525 659.871 87.4798C659.652 87.0283 659.527 86.9675 658.476 86.8009C655.924 86.3959 653.846 87.4931 653.391 89.4847C653.318 89.8033 653.35 89.8646 653.831 90.3402C655.025 91.5211 655.765 93.4954 655.519 94.8441C655.186 96.6675 653.448 95.2263 652.727 92.5292C652.561 91.9071 652.332 91.2127 652.219 90.9863C651.765 90.0754 649.286 89.7878 648.496 90.5544C648.114 90.925 647.71 91.8853 647.84 92.117C647.883 92.194 648.445 92.5007 649.089 92.7986C651.8 94.0517 653.62 96.161 653.584 98.0068C653.558 99.3155 652.537 99.7108 651.055 98.9853C649.684 98.3136 648.532 97.0037 647.524 94.9689L646.82 93.5491L645.361 93.4123C644.558 93.3369 643.604 93.3293 643.241 93.3956C642.519 93.5273 641.214 94.1782 640.95 94.5391C640.785 94.7638 640.79 94.7729 641.403 95.3313C642.303 96.1506 643.677 98.4281 643.975 99.5958C644.499 101.651 642.985 102.578 641.306 101.228C640.625 100.681 639.639 99.138 639.289 98.0715C639.138 97.6111 638.998 96.856 638.978 96.3934C638.945 95.6287 638.917 95.5521 638.671 95.5458C638.523 95.542 638.069 95.7321 637.664 95.9681C636.795 96.4732 636.129 97.4617 635.917 98.5587L635.773 99.3068L636.734 99.9352C639.141 101.511 640.714 104.181 639.804 105.148C639.269 105.716 637.997 105.374 636.928 104.377C636.078 103.582 635.289 102.107 635.036 100.836L634.834 99.8198L634.22 99.5792C633.523 99.3053 631.805 99.1116 631.513 99.2738C631.247 99.4221 630.945 99.163 631.191 98.9972C631.93 98.4992 632.861 98.4116 634.041 98.729L634.834 98.9423L635.005 98.1224C635.519 95.66 636.777 94.2963 638.612 94.2101C639.284 94.1783 639.445 94.1073 639.758 93.7038C640.289 93.0174 641.174 92.4062 642.133 92.0614ZM640.117 96.6942C640.152 98.2467 641.175 100.076 642.213 100.442C642.823 100.657 642.888 100.619 642.947 100.018C642.99 99.5822 642.912 99.3975 642.192 98.2185C641.4 96.9214 640.439 95.8105 640.216 95.935C640.153 95.9701 640.108 96.3119 640.117 96.6942ZM666.124 85.5374C666.358 85.7967 666.619 85.9703 666.703 85.9231C666.934 85.7946 666.522 84.8366 665.971 84.22C665.209 83.3673 665.154 83.3698 665.435 84.2446C665.632 84.8588 665.806 85.1846 666.124 85.5374ZM636.437 102.376C637.098 103.564 638.509 104.571 638.963 104.179C639.447 103.764 638.3 102.154 636.628 100.901L635.795 100.277L635.955 101.038C636.043 101.456 636.259 102.058 636.437 102.376ZM648.724 95.0483C649.693 96.7856 651.484 98.3142 652.128 97.9545C652.7 97.6355 652.017 96.476 650.659 95.4599C649.877 94.8749 648.517 94.12 648.381 94.1958C648.325 94.2269 648.479 94.6105 648.724 95.0483ZM654.048 93.5252C654.413 94.1811 654.415 94.1825 654.349 93.6823C654.313 93.4048 654.094 92.8446 653.862 92.4373L653.443 91.6967L653.562 92.2802C653.627 92.6012 653.846 93.1614 654.048 93.5252ZM661.675 89.162C662.286 90.262 663.103 91.0434 663.509 90.9149C664.108 90.725 663.227 89.2666 661.912 88.2723C660.961 87.5529 660.902 87.7722 661.675 89.162Z" fill="white"/>
<path fill-rule="evenodd" clip-rule="evenodd" d="M628.336 95.52C629.04 94.9674 629.523 94.2616 629.996 93.0964L630.349 92.2272L631.072 92.6742C631.956 93.2196 632.643 93.2268 633.43 92.6988C634.117 92.2383 634.551 91.4219 634.714 90.2836L634.83 89.4752L635.38 89.7478C635.683 89.8979 636.264 90.0494 636.672 90.0844C637.303 90.1387 637.568 90.0561 638.437 89.5337C639.527 88.8793 640.12 88.0838 640.472 86.8053L640.639 86.1993L641.549 86.7532C642.736 87.4761 643.522 87.5316 644.394 86.954C644.81 86.6779 645.131 86.3067 645.294 85.9114L645.548 85.2977L645.996 85.5278C646.243 85.6544 646.721 85.7612 647.059 85.7651C648.737 85.7844 649.997 84.1539 650.418 81.419C650.719 79.4606 650.546 79.4482 649.482 81.3528C648.235 83.587 647.333 84.4147 646.327 84.2487C645.714 84.1476 645.603 84.0018 645.479 83.1347C645.33 82.087 644.435 80.2933 643.79 79.7488C642.888 78.9869 642.359 79.3231 642.443 80.6044C642.489 81.2976 643.343 83.0341 644.048 83.8668C644.315 84.183 644.544 84.4611 644.556 84.4847C644.568 84.5084 644.445 84.7974 644.282 85.127C643.733 86.2394 642.721 86.4038 641.453 85.5867L640.79 85.1595L640.772 84.1922C640.746 82.7892 640.479 81.7007 639.853 80.4553C639.383 79.5183 639.26 79.3562 638.724 78.9588C638.209 78.5765 638.063 78.5433 637.702 78.7258C637.349 78.9039 637.274 79.0626 637.24 79.6988C637.19 80.6731 637.514 81.6767 638.361 83.1613C638.722 83.7949 639.14 84.5291 639.289 84.793C639.536 85.2298 639.528 85.361 639.209 86.2589C638.434 88.4389 636.729 89.3607 635.038 88.5137C634.768 88.3783 634.735 88.3177 634.581 87.6677C634.198 86.054 633.027 84.3101 631.908 83.6898C630.396 82.8511 630.744 85.0333 632.468 87.1954C632.865 87.6941 633.291 88.2831 633.413 88.5044C633.906 89.3946 633.073 91.4491 632.162 91.5906C631.721 91.6589 630.829 91.3903 630.709 91.1535C630.669 91.0747 630.677 90.4641 630.725 89.7963C630.93 86.9883 630.114 84.3433 628.711 83.2657C627.715 82.5017 626.986 83.0408 626.904 84.6001C626.829 86.0438 627.327 87.7024 628.431 89.686L629.201 91.0701L628.686 92.2602C628.403 92.9148 628.005 93.6439 627.801 93.8802C627.396 94.3498 626.355 94.9507 625.971 94.9357C625.733 94.9263 625.728 94.9168 625.567 94.1168C625.332 92.9429 624.201 90.5368 623.448 89.6115C622.125 87.9825 620.787 88.5778 621.091 90.6607C621.215 91.5059 621.958 93.1779 622.612 94.082C622.894 94.4723 623.403 95.0307 623.742 95.3228C624.303 95.8057 624.349 95.8726 624.25 96.063C624.19 96.1781 623.855 96.4088 623.506 96.5755C622.758 96.9329 621.733 96.8471 620.818 96.351L620.195 96.0126L620.128 94.907C619.963 92.1357 618.62 89.3427 617.507 89.4551C616.854 89.5214 616.573 90.6913 616.871 92.1002C617.108 93.2217 617.884 94.7039 618.732 95.6564L619.411 96.4187L619.333 97.0285C619.243 97.7223 618.662 99.143 618.416 99.267C618.192 99.3803 618.259 99.7648 618.488 99.6774C619.175 99.4145 619.635 98.76 619.896 97.6736L620.071 96.9436L620.76 97.3045C622.83 98.3882 624.388 98.2499 625.229 96.9076C625.538 96.4163 625.659 96.3368 626.095 96.3409C626.836 96.348 627.67 96.0424 628.336 95.52ZM623.998 94.278C622.845 93.3218 621.902 91.45 622.066 90.443C622.163 89.851 622.219 89.8238 622.696 90.139C623.042 90.3675 623.148 90.5369 623.73 91.7894C624.37 93.1674 624.799 94.5626 624.611 94.6575C624.558 94.6843 624.282 94.5134 623.998 94.278ZM643.396 81.2075C643.3 80.8747 643.28 80.5727 643.351 80.5367C643.545 80.4387 644.092 81.3251 644.322 82.1123C644.641 83.201 644.616 83.2416 644.077 82.5047C643.698 81.9873 643.527 81.6604 643.396 81.2075ZM618.167 93.6713C617.554 92.4585 617.394 90.7841 617.88 90.673C618.397 90.5547 619.123 92.3896 619.357 94.4086L619.474 95.4145L618.97 94.8385C618.693 94.5215 618.331 93.9962 618.167 93.6713ZM628.879 88.7274C627.982 86.9514 627.59 84.6766 628.134 84.4023C628.616 84.1592 629.199 85.3719 629.388 87.0113C629.497 87.9553 629.489 89.4403 629.375 89.4981C629.328 89.5218 629.104 89.175 628.879 88.7274ZM632.278 85.5958C631.939 84.9264 631.939 84.9236 632.287 85.2732C632.48 85.4671 632.809 85.9688 633.017 86.3881L633.397 87.1504L633.008 86.7106C632.794 86.4688 632.466 85.9671 632.278 85.5958ZM638.787 82.4165C638.218 81.294 637.977 80.2052 638.245 79.9742C638.642 79.6327 639.365 81.1749 639.557 82.7685C639.695 83.9216 639.505 83.8349 638.787 82.4165Z" fill="white"/>
<path d="M685.291 69.6541L692.591 66.1018C692.713 66.2471 692.852 66.444 693.007 66.6926C693.176 66.9344 693.317 67.1726 693.431 67.4069C693.941 68.4548 694.242 69.4593 694.335 70.4204C694.427 71.3814 694.335 72.3131 694.058 73.2153C693.738 74.2405 693.207 75.1811 692.464 76.0372C691.714 76.8794 690.739 77.5924 689.54 78.1761C688.464 78.6994 687.35 79.0028 686.197 79.0863C685.058 79.1632 683.965 79.0382 682.92 78.7115C681.867 78.371 680.906 77.8326 680.036 77.0963C679.16 76.3462 678.446 75.4058 677.896 74.2752C677.346 73.1446 677.05 72.0099 677.007 70.8711C676.958 69.7185 677.127 68.6299 677.516 67.6055C677.897 66.5672 678.47 65.6236 679.233 64.7746C680.01 63.919 680.937 63.2295 682.012 62.7062C683.267 62.0957 684.46 61.7794 685.592 61.7573C686.738 61.7285 687.843 61.9153 688.908 62.3177L687.763 65.5353C687.045 65.2876 686.351 65.1738 685.678 65.194C685.013 65.1936 684.274 65.3914 683.46 65.7872C682.826 66.0958 682.283 66.5048 681.832 67.0143C681.388 67.5032 681.053 68.0585 680.827 68.6801C680.608 69.2812 680.515 69.9317 680.548 70.6316C680.589 71.3109 680.78 72.0022 681.123 72.7054C681.465 73.4085 681.894 73.9926 682.41 74.4577C682.933 74.9022 683.509 75.2273 684.138 75.433C684.76 75.6248 685.411 75.7004 686.09 75.6598C686.763 75.6053 687.423 75.4204 688.071 75.1051C689.339 74.4879 690.188 73.657 690.618 72.6124C690.752 72.2915 690.841 71.9325 690.887 71.5352C690.939 71.1175 690.937 70.6923 690.88 70.2596L686.599 72.3427L685.291 69.6541ZM700.233 72.7172C699.681 72.9856 699.119 73.0207 698.545 72.8225C697.971 72.6243 697.55 72.2494 697.281 71.6979C697.013 71.1464 696.978 70.5837 697.176 70.0098C697.374 69.4359 697.749 69.0147 698.301 68.7464C698.852 68.478 699.415 68.4429 699.989 68.6412C700.563 68.8394 700.984 69.2142 701.252 69.7657C701.52 70.3172 701.556 70.88 701.357 71.4539C701.159 72.0278 700.784 72.4489 700.233 72.7172ZM709.497 68.4652C708.118 69.1361 706.748 69.351 705.386 69.11C704.031 68.8485 702.811 68.129 701.727 66.9515L704.183 64.2726C704.704 64.8886 705.283 65.3234 705.918 65.5772C706.553 65.8309 707.249 65.7733 708.008 65.4043C708.256 65.2835 708.477 65.1419 708.671 64.9794C708.878 64.8102 709.038 64.6302 709.15 64.4394C709.269 64.2281 709.34 64.006 709.363 63.7731C709.386 63.5402 709.34 63.3065 709.226 63.0721C709.112 62.8377 708.96 62.6475 708.769 62.5014C708.586 62.3349 708.351 62.2192 708.063 62.1544C707.769 62.0757 707.41 62.0376 706.985 62.0398C706.553 62.0283 706.028 62.0535 705.41 62.1154L704.339 62.2273C703.886 62.2773 703.395 62.2857 702.868 62.2526C702.347 62.1989 701.837 62.0803 701.339 61.8966C700.84 61.7129 700.38 61.4508 699.959 61.1102C699.53 60.7559 699.182 60.3029 698.914 59.7514C698.625 59.1585 698.471 58.5431 698.45 57.9051C698.43 57.2671 698.543 56.658 698.789 56.0778C699.028 55.4837 699.398 54.9288 699.897 54.413C700.397 53.8972 701.012 53.4616 701.742 53.106C702.514 52.7303 703.227 52.5117 703.879 52.4501C704.524 52.3748 705.117 52.4018 705.657 52.5311C706.191 52.6465 706.662 52.8436 707.071 53.1224C707.493 53.3944 707.853 53.6794 708.152 53.9775L705.933 56.5149C705.567 56.1475 705.155 55.9133 704.696 55.8124C704.231 55.6976 703.737 55.7677 703.213 56.0227C702.661 56.291 702.277 56.6229 702.06 57.0183C701.85 57.3932 701.833 57.7599 702.007 58.1184C702.188 58.4907 702.515 58.7411 702.986 58.8696C703.458 58.9981 704.185 59.0025 705.167 58.8828L706.228 58.7503C707.691 58.5672 708.941 58.6664 709.979 59.0479C711.018 59.4295 711.832 60.2269 712.422 61.4402C712.798 62.2123 712.965 62.9582 712.923 63.6778C712.894 64.3907 712.723 65.054 712.408 65.6678C712.106 66.2749 711.689 66.819 711.156 67.3001C710.643 67.7883 710.09 68.1767 709.497 68.4652ZM722.028 61.9588L720.725 57.8096L718.409 58.9366L717.654 56.3877L719.929 55.2808L719.282 53.2679L716.966 54.395L716.191 51.8562L718.487 50.7391L717.254 46.7861L719.86 45.5181L721.093 49.4712L723.161 48.4648L721.928 44.5118L724.534 43.2438L725.767 47.1969L728.083 46.0698L728.858 48.6086L726.562 49.7257L727.209 51.7385L729.546 50.6014L730.321 53.1402L728.005 54.2673L729.308 58.4165L726.702 59.6845L725.399 55.5353L723.331 56.5416L724.634 60.6908L722.028 61.9588ZM722.473 54.0944L724.665 53.0277L724.019 50.912L721.827 51.9787L722.473 54.0944ZM737.676 51.0705L742.991 48.4843L744.28 51.1315L734.683 55.8009L733.355 53.0709C733.786 51.8549 734.186 50.7311 734.554 49.6996C734.716 49.2624 734.875 48.8184 735.031 48.3675C735.173 47.9233 735.308 47.5167 735.435 47.1477C735.569 46.7583 735.686 46.4201 735.785 46.1332C735.892 45.8257 735.966 45.5934 736.009 45.4361C736.194 44.8003 736.289 44.2767 736.293 43.8653C736.291 43.4401 736.193 43.0276 735.998 42.6278C735.804 42.2279 735.488 41.9639 735.05 41.8357C734.62 41.6871 734.142 41.7402 733.618 41.9952C733.095 42.2501 732.748 42.6064 732.578 43.064C732.416 43.5012 732.376 43.9979 732.459 44.5543L729.083 44.7647C728.999 44.2769 728.991 43.7694 729.058 43.242C729.126 42.7147 729.286 42.2021 729.538 41.7042C729.783 41.1926 730.128 40.7094 730.572 40.2547C731.029 39.7933 731.589 39.4016 732.251 39.0796C732.996 38.7173 733.718 38.5023 734.418 38.4344C735.112 38.3527 735.749 38.4007 736.33 38.5785C736.925 38.7495 737.456 39.0364 737.925 39.4392C738.394 39.842 738.773 40.3398 739.061 40.9327C739.477 41.7875 739.663 42.6776 739.619 43.6029C739.582 44.5077 739.382 45.4828 739.021 46.5281L737.472 50.914L737.676 51.0705ZM752.313 47.6319C751.375 48.0881 750.444 48.3112 749.518 48.3013C748.592 48.2913 747.706 48.0828 746.86 47.6759C746.015 47.2691 745.229 46.688 744.503 45.9327C743.785 45.1568 743.167 44.2381 742.65 43.1764C742.134 42.1148 741.795 41.0688 741.635 40.0384C741.482 38.9875 741.506 38.0037 741.708 37.0869C741.91 36.1702 742.293 35.3445 742.856 34.61C743.419 33.8754 744.17 33.2801 745.108 32.8239C746.031 32.3744 746.956 32.1546 747.882 32.1646C748.821 32.1679 749.714 32.373 750.56 32.7799C751.406 33.1867 752.188 33.7781 752.907 34.5539C753.632 35.3092 754.253 36.2177 754.77 37.2794C755.286 38.341 755.621 39.3973 755.775 40.4482C755.935 41.4786 755.914 42.4521 755.712 43.3689C755.51 44.2856 755.121 45.1146 754.544 45.8559C753.98 46.5904 753.237 47.1824 752.313 47.6319ZM750.904 44.7365C751.373 44.5084 751.733 44.1968 751.984 43.8018C752.242 43.3863 752.398 42.9182 752.452 42.3976C752.519 41.8703 752.481 41.3007 752.336 40.6888C752.206 40.0702 751.983 39.4369 751.668 38.7889C751.352 38.1408 750.992 37.5746 750.585 37.0902C750.193 36.5991 749.768 36.2173 749.312 35.9449C748.869 35.6658 748.408 35.5066 747.928 35.4671C747.456 35.4071 746.985 35.4912 746.516 35.7193C746.048 35.9474 745.684 36.2692 745.426 36.6848C745.175 37.0798 745.015 37.541 744.948 38.0683C744.894 38.5889 744.933 39.1585 745.063 39.7771C745.208 40.389 745.437 41.0189 745.753 41.667C746.068 42.315 746.422 42.8846 746.814 43.3757C747.221 43.8601 747.645 44.2419 748.088 44.521C748.544 44.7933 749.009 44.9595 749.481 45.0195C749.961 45.0589 750.435 44.9646 750.904 44.7365ZM762.922 38.7863L768.238 36.2L769.526 38.8473L759.929 43.5166L758.601 40.7866C759.032 39.5706 759.432 38.4469 759.8 37.4153C759.962 36.9782 760.121 36.5341 760.277 36.0832C760.419 35.639 760.554 35.2324 760.681 34.8635C760.816 34.4741 760.932 34.1359 761.032 33.8489C761.138 33.5415 761.212 33.3091 761.255 33.1518C761.44 32.5161 761.535 31.9925 761.539 31.5811C761.537 31.1559 761.439 30.7433 761.244 30.3435C761.05 29.9437 760.734 29.6797 760.296 29.5515C759.866 29.4028 759.389 29.456 758.865 29.7109C758.341 29.9658 757.994 30.3221 757.824 30.7798C757.662 31.2169 757.622 31.7137 757.705 32.27L754.329 32.4805C754.245 31.9927 754.237 31.4851 754.305 30.9578C754.372 30.4305 754.532 29.9179 754.784 29.42C755.03 28.9083 755.374 28.4251 755.818 27.9705C756.276 27.5091 756.835 27.1174 757.497 26.7954C758.242 26.4331 758.964 26.218 759.664 26.1501C760.358 26.0685 760.995 26.1165 761.576 26.2942C762.171 26.4652 762.703 26.7521 763.171 27.1549C763.64 27.5577 764.019 28.0556 764.307 28.6484C764.723 29.5033 764.909 30.3933 764.865 31.3187C764.828 32.2235 764.629 33.1985 764.268 34.2439L762.718 38.6298L762.922 38.7863ZM776.566 35.8307C776.001 36.1058 775.406 36.3017 774.78 36.4183C774.155 36.535 773.531 36.5489 772.908 36.4598C772.298 36.3641 771.704 36.1588 771.125 35.844C770.545 35.5291 770.022 35.0846 769.555 34.5104L771.855 32.0356C772.308 32.6165 772.818 32.9992 773.385 33.1836C773.946 33.3542 774.543 33.2853 775.178 32.9767C775.729 32.7083 776.104 32.2872 776.302 31.7133C776.5 31.1394 776.459 30.5629 776.177 29.9838C775.895 29.4047 775.467 29.016 774.893 28.8178C774.333 28.6129 773.764 28.6513 773.184 28.9331C772.785 29.1277 772.477 29.3712 772.261 29.6638C772.045 29.9563 771.891 30.2701 771.798 30.6051L768.156 30.6893L765.51 23.3058L773.762 19.2906L775.05 21.9378L769.383 24.6952L770.274 27.8936L770.511 27.855C770.673 27.5207 770.903 27.1701 771.202 26.803C771.514 26.4292 771.953 26.1047 772.518 25.8297C773.098 25.5479 773.706 25.3968 774.344 25.3762C774.989 25.3352 775.612 25.4242 776.213 25.6433C776.828 25.8556 777.404 26.1979 777.941 26.67C778.477 27.1421 778.923 27.7435 779.279 28.4743C779.635 29.205 779.836 29.9341 779.883 30.6615C779.923 31.3752 779.82 32.0564 779.573 32.7052C779.326 33.354 778.949 33.9466 778.443 34.4829C777.936 35.0192 777.311 35.4684 776.566 35.8307Z" fill="white"/>
<defs>
<linearGradient id="paint0_linear_37_773" x1="181.676" y1="343.74" x2="114.736" y2="-346.62" gradientUnits="userSpaceOnUse">
<stop stop-color="#861B43"/>
<stop offset="0.403846" stop-color="#FF0A69"/>
</linearGradient>
</defs>
</svg>
