<svg width="67" height="40" viewBox="0 0 67 40" fill="none" xmlns="http://www.w3.org/2000/svg">
<path fill-rule="evenodd" clip-rule="evenodd" d="M30.6748 21.6011C31.6899 21.2364 32.6849 21.1533 34.0912 21.3159L35.1401 21.4372L35.2578 20.5413C35.4015 19.4479 35.8937 18.8115 36.9473 18.3569C37.8661 17.9606 38.9258 17.9801 40.0823 18.4146L40.9037 18.723L41.0546 18.0762C41.1376 17.7204 41.4216 17.1069 41.6859 16.7131C42.0943 16.1044 42.3619 15.9029 43.4699 15.3701C44.8578 14.7026 46.0143 14.5645 47.4362 14.8965L48.1101 15.0538L48.2654 13.9316C48.468 12.4669 48.9883 11.7143 50.1478 11.2082C50.7022 10.9663 51.2734 10.8616 51.7528 10.914L52.4971 10.995L52.6123 10.4643C52.6757 10.1724 52.9256 9.67703 53.1676 9.36349C54.3681 7.80852 56.7701 7.4851 59.5706 8.50139C61.5758 9.22912 61.4611 9.39534 58.9518 9.39689C56.0081 9.39883 54.5984 9.80447 54.0191 10.8166C53.6663 11.4331 53.7187 11.6101 54.4199 12.1691C55.2671 12.8447 56.2536 14.5896 56.282 15.4631C56.322 16.6853 55.631 17.0001 54.5234 16.2647C53.9243 15.8667 52.9605 14.1885 52.7127 13.1118C52.6186 12.7029 52.5311 12.3494 52.5182 12.3263C52.5053 12.3031 52.1521 12.2684 51.7333 12.249C50.3199 12.1838 49.4349 13.0317 49.2598 14.6188L49.1683 15.4485L50.0377 15.9616C51.2986 16.7057 52.0971 17.5111 52.7791 18.7265C53.2923 19.6408 53.3513 19.8367 53.3246 20.5344C53.299 21.2056 53.2236 21.3567 52.7947 21.596C52.3761 21.8295 52.1767 21.8172 51.5722 21.5212C50.6466 21.068 49.9668 20.2537 49.2272 18.7117C48.9117 18.0537 48.5451 17.2922 48.4125 17.0195C48.1932 16.568 48.0684 16.5072 47.0174 16.3405C44.4658 15.9356 42.387 17.0328 41.9323 19.0244C41.8595 19.343 41.891 19.4043 42.3721 19.8799C43.5663 21.0608 44.3063 23.0351 44.06 24.3838C43.7272 26.2071 41.9895 24.766 41.2685 22.0689C41.1022 21.4467 40.8738 20.7524 40.7609 20.526C40.3068 19.6151 37.8279 19.3275 37.0373 20.094C36.6552 20.4647 36.2519 21.425 36.3811 21.6567C36.4241 21.7336 36.9864 22.0404 37.6309 22.3383C40.3411 23.5913 42.1614 25.7007 42.1254 27.5465C42.0998 28.8552 41.0783 29.2505 39.5968 28.525C38.2252 27.8532 37.0735 26.5434 36.0654 24.5086L35.362 23.0888L33.9026 22.952C33.1 22.8766 32.1458 22.869 31.7824 22.9353C31.0602 23.067 29.7558 23.7179 29.491 24.0787C29.3263 24.3034 29.3316 24.3126 29.9449 24.871C30.8449 25.6902 32.2181 27.9678 32.5161 29.1354C33.0409 31.1911 31.5268 32.1173 29.8476 30.7679C29.1662 30.2204 28.1805 28.6777 27.8306 27.6112C27.6796 27.1508 27.5395 26.3957 27.5194 25.9331C27.4864 25.1683 27.4587 25.0917 27.2129 25.0855C27.0643 25.0817 26.6107 25.2717 26.2051 25.5078C25.3363 26.0128 24.6701 27.0013 24.4587 28.0983L24.3145 28.8465L25.275 29.4748C27.6827 31.0502 29.2555 33.7208 28.3452 34.6877C27.8105 35.2553 26.5388 34.9141 25.47 33.9163C24.6192 33.1221 23.8306 31.6465 23.5776 30.3761L23.3753 29.3594L22.7619 29.1189C22.0643 28.8449 20.346 28.6512 20.0548 28.8135C19.7887 28.9618 19.4866 28.7027 19.7324 28.5369C20.4712 28.0389 21.4022 27.9513 22.5827 28.2687L23.3758 28.482L23.5468 27.662C24.0608 25.1997 25.3181 23.836 27.1537 23.7497C27.8257 23.718 27.9863 23.647 28.2991 23.2435C28.8308 22.557 29.7151 21.9458 30.6748 21.6011ZM28.6582 26.2339C28.6935 27.7864 29.7165 29.6157 30.7541 29.9816C31.3641 30.1967 31.4297 30.1591 31.4886 29.5577C31.5313 29.1218 31.4538 28.9372 30.7338 27.7582C29.9417 26.4611 28.9801 25.3502 28.7571 25.4746C28.694 25.5098 28.6496 25.8515 28.6582 26.2339ZM54.6654 15.0771C54.8993 15.3363 55.1601 15.51 55.2448 15.4627C55.475 15.3343 55.063 14.3763 54.5124 13.7597C53.7509 12.907 53.6955 12.9095 53.9763 13.7843C54.1735 14.3985 54.3472 14.7243 54.6654 15.0771ZM24.978 31.916C25.6391 33.1034 27.0503 34.1103 27.505 33.719C27.9882 33.3036 26.8411 31.6935 25.1697 30.4412L24.3369 29.8171L24.4963 30.5772C24.5841 30.9953 24.8009 31.5978 24.978 31.916ZM37.2651 24.588C38.2344 26.3253 40.0251 27.8538 40.6698 27.4941C41.2414 27.1752 40.5584 26.0157 39.2006 24.9996C38.4187 24.4145 37.0581 23.6597 36.9223 23.7355C36.8666 23.7665 37.0208 24.1502 37.2651 24.588ZM42.5898 23.0649C42.9543 23.7208 42.9568 23.7221 42.8907 23.222C42.8541 22.9445 42.6351 22.3842 42.404 21.977L41.984 21.2364L42.1031 21.8199C42.1685 22.1409 42.3876 22.7011 42.5898 23.0649ZM50.216 18.7017C50.8272 19.8016 51.6449 20.5831 52.0504 20.4546C52.6498 20.2647 51.7686 18.8062 50.4539 17.812C49.5024 17.0926 49.4438 17.3119 50.216 18.7017Z" fill="white"/>
<path fill-rule="evenodd" clip-rule="evenodd" d="M16.8772 25.0597C17.5811 24.5071 18.0647 23.8012 18.5376 22.636L18.8904 21.7669L19.6139 22.2138C20.4971 22.7593 21.184 22.7665 21.9719 22.2385C22.6588 21.778 23.0926 20.9616 23.2554 19.8233L23.371 19.0149L23.9214 19.2875C24.2241 19.4375 24.8057 19.589 25.2137 19.6241C25.8444 19.6783 26.1092 19.5958 26.9789 19.0733C28.0683 18.419 28.6617 17.6235 29.0138 16.345L29.1807 15.739L30.0904 16.2928C31.2778 17.0158 32.064 17.0712 32.9353 16.4937C33.352 16.2175 33.6724 15.8464 33.836 15.4511L34.09 14.8373L34.5379 15.0675C34.7843 15.1941 35.2626 15.3009 35.6009 15.3048C37.2784 15.324 38.5383 13.6936 38.9593 10.9586C39.2606 9.00029 39.0871 8.98787 38.0239 10.8924C36.7765 13.1267 35.8748 13.9544 34.8684 13.7884C34.2554 13.6873 34.1445 13.5415 34.0208 12.6744C33.8713 11.6266 32.9764 9.83295 32.3316 9.28847C31.4293 8.52655 30.9 8.86275 30.9844 10.1441C31.0301 10.8373 31.8843 12.5737 32.5892 13.4064C32.857 13.7227 33.0858 14.0008 33.0977 14.0244C33.1097 14.0481 32.9863 14.3371 32.8237 14.6667C32.2745 15.779 31.2622 15.9435 29.9944 15.1263L29.3317 14.6992L29.3138 13.7319C29.2878 12.3289 29.02 11.2404 28.3946 9.99501C27.9241 9.05798 27.8018 8.89591 27.2657 8.4985C26.7501 8.11619 26.6046 8.08301 26.2431 8.26546C25.8903 8.44353 25.8151 8.60227 25.7819 9.23849C25.7311 10.2127 26.0558 11.2163 26.9024 12.701C27.2637 13.3346 27.6813 14.0688 27.8303 14.3327C28.0771 14.7695 28.0699 14.9007 27.7505 15.7986C26.9751 17.9785 25.27 18.9003 23.5797 18.0534C23.3093 17.918 23.2765 17.8574 23.1224 17.2074C22.7398 15.5937 21.5681 13.8498 20.4495 13.2295C18.9373 12.3908 19.2857 14.573 21.0091 16.735C21.4066 17.2337 21.8321 17.8228 21.9546 18.0441C22.4475 18.9342 21.6146 20.9887 20.7035 21.1303C20.263 21.1985 19.3701 20.9299 19.2505 20.6931C19.2108 20.6144 19.2182 20.0038 19.2668 19.336C19.4715 16.5279 18.6555 13.883 17.2521 12.8054C16.257 12.0414 15.5273 12.5804 15.4459 14.1397C15.3706 15.5834 15.8684 17.2421 16.972 19.2256L17.7421 20.6097L17.2273 21.7999C16.9443 22.4545 16.5462 23.1836 16.3425 23.4199C15.9378 23.8895 14.8962 24.4904 14.5127 24.4754C14.274 24.466 14.2694 24.4565 14.109 23.6564C13.8738 22.4826 12.7421 20.0765 11.99 19.1512C10.6661 17.5221 9.32863 18.1175 9.63282 20.2004C9.75622 21.0456 10.4992 22.7175 11.1533 23.6217C11.4356 24.012 11.9442 24.5704 12.2836 24.8625C12.8448 25.3454 12.8907 25.4123 12.7914 25.6027C12.7313 25.7178 12.3964 25.9485 12.0472 26.1152C11.2997 26.4725 10.2743 26.3867 9.35972 25.8906L8.73606 25.5522L8.67 24.4467C8.50419 21.6753 7.16137 18.8824 6.04884 18.9948C5.39569 19.061 5.11402 20.231 5.41211 21.6399C5.64938 22.7614 6.42534 24.2436 7.27373 25.1961L7.95276 25.9584L7.87408 26.5682C7.78481 27.2619 7.20326 28.6827 6.95795 28.8067C6.73381 28.92 6.80083 29.3045 7.02955 29.2171C7.71677 28.9541 8.17668 28.2997 8.43761 27.2133L8.61287 26.4833L9.30194 26.8442C11.3714 27.9279 12.9291 27.7895 13.7709 26.4473C14.0792 25.956 14.2006 25.8765 14.6364 25.8805C15.3778 25.8876 16.2117 25.582 16.8772 25.0597ZM12.5394 23.8177C11.3867 22.8615 10.4439 20.9896 10.6079 19.9827C10.7042 19.3907 10.7603 19.3635 11.2375 19.6787C11.5834 19.9072 11.6895 20.0766 12.2714 21.3291C12.9117 22.7071 13.3402 24.1023 13.1522 24.1971C13.0991 24.224 12.8233 24.0531 12.5394 23.8177ZM31.9377 10.7472C31.8417 10.4143 31.8214 10.1124 31.8928 10.0764C32.0869 9.97842 32.633 10.8648 32.8637 11.652C33.1827 12.7407 33.1574 12.7813 32.6183 12.0444C32.2398 11.5269 32.0683 11.2 31.9377 10.7472ZM6.7083 23.2109C6.09511 21.9982 5.93506 20.3238 6.42181 20.2127C6.93875 20.0944 7.6642 21.9293 7.89864 23.9482L8.01553 24.9542L7.51134 24.3781C7.23403 24.0612 6.87269 23.5359 6.7083 23.2109ZM17.42 18.2671C16.5237 16.4911 16.132 14.2163 16.6754 13.942C17.1572 13.6989 17.7402 14.9116 17.9297 16.551C18.0387 17.495 18.0306 18.98 17.9161 19.0378C17.8692 19.0615 17.6459 18.7147 17.42 18.2671ZM20.8192 15.1354C20.4802 14.4661 20.4802 14.4633 20.8284 14.8129C21.0216 15.0068 21.3503 15.5085 21.5588 15.9278L21.938 16.69L21.5495 16.2503C21.3359 16.0085 21.0072 15.5068 20.8192 15.1354ZM27.3285 11.9562C26.7599 10.8336 26.5182 9.74487 26.7865 9.51389C27.1831 9.1724 27.907 10.7146 28.0982 12.3081C28.2366 13.4613 28.0469 13.3746 27.3285 11.9562Z" fill="white"/>
</svg>
