<svg width="515" height="752" viewBox="0 0 515 752" fill="none" xmlns="http://www.w3.org/2000/svg">
<g clip-path="url(#clip0_37_793)">
<path d="M515 567.727V608.958V681L0 0H113.11L515 567.727Z" fill="url(#paint0_linear_37_793)"/>
<path d="M515 567.727V608.958V681L0 0H113.11L515 567.727Z" fill="#E84481" fill-opacity="0.1"/>
<path d="M9.02413 -65.3795L13.8291 -58.835C13.708 -58.6891 13.5391 -58.5175 13.3224 -58.3204C13.1148 -58.1109 12.9059 -57.929 12.6958 -57.7747C11.7564 -57.0851 10.8223 -56.6085 9.89347 -56.345C8.9646 -56.0815 8.03151 -56.0052 7.09419 -56.1159C6.02826 -56.2464 5.00755 -56.6003 4.03205 -57.1776C3.06891 -57.764 2.1926 -58.5948 1.40312 -59.6701C0.695316 -60.6342 0.196843 -61.6759 -0.0922948 -62.7952C-0.372358 -63.9021 -0.44551 -64.9992 -0.311752 -66.0866C-0.165633 -67.183 0.191543 -68.2251 0.759777 -69.213C1.34037 -70.2099 2.13742 -71.0805 3.15092 -71.8246C4.16443 -72.5687 5.22753 -73.0639 6.34024 -73.3101C7.4653 -73.5655 8.56658 -73.5941 9.64408 -73.396C10.7339 -73.2071 11.765 -72.8132 12.7372 -72.2145C13.7185 -71.6033 14.563 -70.8158 15.2708 -69.8517C16.0966 -68.727 16.6219 -67.6099 16.8468 -66.5005C17.0807 -65.3787 17.0953 -64.2576 16.8907 -63.1372L13.5197 -63.6868C13.6347 -64.437 13.6219 -65.141 13.4814 -65.7987C13.3624 -66.4532 13.0351 -67.145 12.4997 -67.8742C12.0823 -68.4428 11.5825 -68.9033 11.0003 -69.2558C10.4396 -69.605 9.83319 -69.8351 9.18109 -69.946C8.55042 -70.0536 7.89386 -70.0281 7.2114 -69.8695C6.55039 -69.7075 5.9047 -69.3952 5.27435 -68.9324C4.644 -68.4696 4.1464 -67.9425 3.78155 -67.3513C3.43814 -66.7568 3.22169 -66.1318 3.13221 -65.4764C3.05508 -64.8301 3.09749 -64.1764 3.25942 -63.5154C3.43372 -62.8635 3.73412 -62.247 4.16062 -61.6661C4.99547 -60.529 5.96526 -59.8429 7.06998 -59.6078C7.40965 -59.5338 7.77896 -59.5101 8.17792 -59.5367C8.59831 -59.56 9.0162 -59.6385 9.43158 -59.7723L6.61396 -63.61L9.02413 -65.3795ZM8.69245 -50.1304C8.32947 -50.6248 8.19398 -51.1721 8.28596 -51.7722C8.37795 -52.3724 8.67115 -52.854 9.16554 -53.2169C9.65993 -53.5799 10.2072 -53.7154 10.8074 -53.6234C11.4075 -53.5314 11.8891 -53.2382 12.2521 -52.7439C12.6151 -52.2495 12.7505 -51.7022 12.6586 -51.102C12.5666 -50.5019 12.2734 -50.0203 11.779 -49.6573C11.2846 -49.2943 10.7373 -49.1588 10.1372 -49.2508C9.537 -49.3428 9.05543 -49.636 8.69245 -50.1304ZM14.5382 -41.7796C13.6308 -43.0156 13.1734 -44.3252 13.166 -45.7084C13.1801 -47.0883 13.669 -48.4174 14.6327 -49.6956L17.7089 -47.7598C17.1966 -47.1363 16.8725 -46.4894 16.7369 -45.8192C16.6013 -45.1489 16.783 -44.4739 17.2821 -43.7941C17.4454 -43.5717 17.6244 -43.3797 17.819 -43.2182C18.0227 -43.0444 18.2285 -42.9196 18.4363 -42.8439C18.6655 -42.7649 18.8967 -42.7349 19.13 -42.754C19.3633 -42.7731 19.5849 -42.8598 19.7951 -43.0141C20.0052 -43.1683 20.165 -43.3522 20.2745 -43.5658C20.4055 -43.7761 20.477 -44.0284 20.4892 -44.3227C20.5138 -44.626 20.4868 -44.9867 20.4083 -45.4045C20.3421 -45.8315 20.2231 -46.3433 20.0513 -46.9401L19.749 -47.9736C19.6185 -48.4104 19.5222 -48.8914 19.4601 -49.4164C19.4194 -49.9382 19.4447 -50.4608 19.5359 -50.9843C19.6271 -51.5078 19.8024 -52.0075 20.0618 -52.4832C20.3336 -52.9681 20.7166 -53.392 21.211 -53.755C21.7425 -54.1452 22.3202 -54.4077 22.9442 -54.5424C23.5681 -54.6771 24.1876 -54.6754 24.8026 -54.5372C25.43 -54.4081 26.0422 -54.1443 26.6392 -53.7457C27.2363 -53.347 27.7752 -52.8202 28.2562 -52.1651C28.7644 -51.4729 29.1072 -50.8116 29.2848 -50.1811C29.4748 -49.5597 29.5546 -48.9716 29.5244 -48.4168C29.5066 -47.8711 29.3973 -47.3723 29.1964 -46.9204C29.0046 -46.4562 28.7888 -46.0505 28.5491 -45.7034L25.6548 -47.4304C25.9505 -47.8567 26.1069 -48.3044 26.1239 -48.7734C26.1533 -49.2516 25.9956 -49.7255 25.6508 -50.1951C25.2878 -50.6895 24.8924 -51.0079 24.4645 -51.1503C24.058 -51.2894 23.6941 -51.2409 23.3727 -51.005C23.039 -50.76 22.8513 -50.3939 22.8095 -49.9067C22.7677 -49.4195 22.8938 -48.7036 23.1878 -47.7591L23.5086 -46.7392C23.9513 -45.3332 24.0781 -44.0852 23.8891 -42.9953C23.7001 -41.9055 23.0618 -40.9613 21.9741 -40.1627C21.282 -39.6545 20.5782 -39.3566 19.8627 -39.2688C19.1563 -39.1686 18.4729 -39.2186 17.8125 -39.4185C17.1612 -39.6061 16.551 -39.919 15.982 -40.3572C15.4097 -40.774 14.9284 -41.2481 14.5382 -41.7796ZM23.1879 -30.6202L27.0359 -32.6465L25.5114 -34.7229L27.8836 -35.9224L29.3808 -33.8831L31.2449 -34.8807L29.7204 -36.9572L32.0789 -38.1752L33.5898 -36.1173L37.2574 -38.0396L38.9725 -35.7036L35.3049 -33.7813L36.6661 -31.9273L40.3337 -33.8496L42.0487 -31.5136L38.3812 -29.5913L39.9057 -27.5148L37.5471 -26.2968L36.0362 -28.3547L34.1722 -27.3571L35.7103 -25.2621L33.3517 -24.0441L31.8272 -26.1205L27.9792 -24.0942L26.2641 -26.4302L30.1122 -28.4565L28.751 -30.3105L24.9029 -28.2842L23.1879 -30.6202ZM31.0044 -31.594L32.4472 -29.6288L34.4127 -30.6438L32.9698 -32.609L31.0044 -31.594ZM36.7079 -17.1799L40.2061 -12.4152L37.833 -10.6729L31.5172 -19.2754L33.9644 -21.0721C35.2381 -20.8659 36.4153 -20.6745 37.4961 -20.4979C37.9553 -20.4165 38.4207 -20.3397 38.8922 -20.2674C39.3547 -20.2075 39.7789 -20.148 40.1647 -20.0888C40.5719 -20.0264 40.9256 -19.9722 41.2257 -19.9262C41.5472 -19.8769 41.7892 -19.8453 41.9516 -19.8314C42.6102 -19.7634 43.1423 -19.7641 43.5479 -19.8335C43.9658 -19.9121 44.3539 -20.0829 44.7124 -20.3461C45.0708 -20.6092 45.2738 -20.9675 45.3213 -21.4209C45.3903 -21.8711 45.2524 -22.331 44.9076 -22.8006C44.5628 -23.2703 44.15 -23.5475 43.6694 -23.6321C43.2102 -23.7134 42.7144 -23.6633 42.182 -23.4816L41.369 -26.7653C41.8338 -26.9354 42.3317 -27.0346 42.8625 -27.0629C43.3934 -27.0912 43.9263 -27.026 44.4614 -26.8672C45.0089 -26.7175 45.546 -26.4651 46.073 -26.1101C46.609 -25.7428 47.0948 -25.2625 47.5304 -24.6692C48.0204 -24.0018 48.3616 -23.3297 48.5541 -22.653C48.7589 -21.9855 48.826 -21.3499 48.7554 -20.7465C48.694 -20.1307 48.5072 -19.556 48.195 -19.0225C47.8829 -18.489 47.4611 -18.0271 46.9296 -17.6369C46.1633 -17.0743 45.3211 -16.7318 44.4028 -16.6093C43.506 -16.4835 42.5111 -16.5043 41.4179 -16.6719L36.8252 -17.4087L36.7079 -17.1799ZM42.7175 -3.39816C42.1004 -4.23863 41.7138 -5.11508 41.5575 -6.02752C41.4012 -6.93996 41.4472 -7.84881 41.6957 -8.75405C41.9441 -9.6593 42.3747 -10.5366 42.9876 -11.386C43.6218 -12.2321 44.4148 -13.0046 45.3665 -13.7033C46.3182 -14.402 47.2865 -14.9227 48.2714 -15.2654C49.2777 -15.6047 50.2499 -15.7573 51.188 -15.7232C52.1261 -15.6891 53.007 -15.4609 53.8308 -15.0385C54.6545 -14.616 55.3749 -13.9846 55.992 -13.1441C56.5999 -12.316 56.9821 -11.4458 57.1384 -10.5333C57.3038 -9.60851 57.2623 -8.69349 57.0138 -7.78824C56.7654 -6.88299 56.324 -6.00731 55.6898 -5.1612C55.0769 -4.31181 54.2947 -3.53774 53.343 -2.83901C52.3913 -2.14027 51.4123 -1.62123 50.4059 -1.28187C49.4211 -0.939223 48.4596 -0.784951 47.5215 -0.81905C46.5834 -0.853149 45.6979 -1.08759 44.8651 -1.52237C44.0414 -1.94479 43.3255 -2.57005 42.7175 -3.39816ZM45.3131 -5.3038C45.6216 -4.88356 45.9927 -4.58536 46.4264 -4.4092C46.8815 -4.22975 47.37 -4.16037 47.8918 -4.20105C48.4226 -4.22937 48.9761 -4.36941 49.5521 -4.62115C50.1373 -4.86053 50.7203 -5.19347 51.3012 -5.61997C51.8821 -6.04647 52.3744 -6.50301 52.778 -6.98958C53.1908 -7.4638 53.4901 -7.94991 53.6762 -8.4479C53.8713 -8.93354 53.9452 -9.41581 53.8979 -9.89472C53.8721 -10.3703 53.7049 -10.8183 53.3964 -11.2385C53.0879 -11.6587 52.706 -11.9586 52.2509 -12.138C51.8172 -12.3142 51.3349 -12.3881 50.8041 -12.3598C50.2823 -12.3191 49.7289 -12.1791 49.1437 -11.9397C48.5677 -11.6879 47.9892 -11.3488 47.4083 -10.9223C46.8274 -10.4958 46.3305 -10.0455 45.9178 -9.57125C45.5142 -9.08468 45.2148 -8.59857 45.0197 -8.11293C44.8337 -7.61494 44.7536 -7.12813 44.7794 -6.65251C44.8267 -6.1736 45.0045 -5.72403 45.3131 -5.3038ZM53.3237 5.45158L56.8219 10.2163L54.4488 11.9586L48.133 3.35615L50.5802 1.55941C51.8539 1.7656 53.0312 1.95701 54.112 2.13364C54.5712 2.21499 55.0365 2.29181 55.5081 2.36409C55.9706 2.424 56.3947 2.48353 56.7805 2.54267C57.1878 2.60509 57.5415 2.6593 57.8415 2.70529C58.1631 2.75457 58.405 2.78617 58.5674 2.8001C59.2261 2.86815 59.7582 2.86744 60.1637 2.79797C60.5816 2.71943 60.9698 2.54857 61.3282 2.28542C61.6866 2.02226 61.8896 1.66397 61.9372 1.21057C62.0062 0.760448 61.8683 0.300551 61.5234 -0.169122C61.1786 -0.638795 60.7659 -0.915951 60.2852 -1.00059C59.8261 -1.08194 59.3302 -1.03179 58.7978 -0.850144L57.9849 -4.1338C58.4497 -4.30387 58.9475 -4.40307 59.4784 -4.43139C60.0092 -4.45972 60.5422 -4.39448 61.0773 -4.23568C61.6247 -4.08596 62.1619 -3.8336 62.6888 -3.47861C63.2248 -3.11126 63.7106 -2.63095 64.1462 -2.03768C64.6362 -1.37025 64.9775 -0.698204 65.1699 -0.0215401C65.3747 0.646049 65.4418 1.28157 65.3713 1.88501C65.3098 2.50082 65.123 3.07548 64.8109 3.60899C64.4988 4.1425 64.077 4.60436 63.5455 4.99456C62.7792 5.55718 61.9369 5.89974 61.0187 6.02225C60.1219 6.14805 59.1269 6.12717 58.0338 5.95962L53.441 5.22276L53.3237 5.45158ZM58.68 18.3434C58.3079 17.8367 58.0084 17.2862 57.7814 16.692C57.5544 16.0978 57.4287 15.4862 57.4045 14.8573C57.3893 14.2407 57.4846 13.6191 57.6903 12.9925C57.896 12.3659 58.2394 11.7713 58.7205 11.2089L61.5679 13.0274C61.0778 13.5775 60.7929 14.1481 60.7132 14.7392C60.646 15.3212 60.8211 15.8965 61.2385 16.465C61.6015 16.9594 62.083 17.2526 62.6832 17.3446C63.2833 17.4366 63.843 17.292 64.3621 16.9109C64.8812 16.5298 65.1868 16.0391 65.2788 15.439C65.3798 14.8512 65.2398 14.2977 64.8587 13.7786C64.5955 13.4202 64.3007 13.1611 63.9741 13.0013C63.6476 12.8416 63.3112 12.7462 62.965 12.715L62.2285 9.14694L69.0171 5.21854L74.4482 12.6159L72.0751 14.3582L68.3455 9.2783L65.359 10.7291L65.4395 10.9554C65.7973 11.0541 66.1836 11.2175 66.5983 11.4456C67.0222 11.6861 67.4201 12.0597 67.7922 12.5664C68.1733 13.0855 68.4312 13.6571 68.5659 14.281C68.7221 14.9082 68.7463 15.5372 68.6387 16.1679C68.5401 16.8109 68.3068 17.4387 67.9387 18.0514C67.5705 18.6641 67.0589 19.2109 66.4039 19.6919C65.7488 20.1728 65.0677 20.5017 64.3605 20.6785C63.6657 20.8462 62.977 20.8668 62.2944 20.7402C61.6117 20.6136 60.9612 20.3494 60.3427 19.9475C59.7243 19.5455 59.17 19.0109 58.68 18.3434Z" fill="white"/>
<path fill-rule="evenodd" clip-rule="evenodd" d="M88.5892 45.1305C89.1301 46.0637 89.3904 47.0276 89.4828 48.4403L89.5518 49.4939L90.4542 49.4489C91.5557 49.394 92.2701 49.764 92.9064 50.7189C93.4612 51.5517 93.6322 52.5977 93.4123 53.8134L93.2563 54.6768L93.9197 54.7092C94.2847 54.7269 94.9391 54.8963 95.3739 55.0856C96.0461 55.3781 96.2923 55.6052 97.0154 56.5996C97.9212 57.8451 98.2645 58.958 98.1932 60.4164L98.1593 61.1077L99.2912 61.0591C100.768 60.9955 101.602 61.3722 102.308 62.422C102.646 62.9241 102.851 63.4672 102.886 63.9482L102.94 64.6949L103.482 64.7131C103.781 64.723 104.313 64.88 104.665 65.0618C106.41 65.9637 107.159 68.2686 106.662 71.2061C106.306 73.3093 106.122 73.2263 105.67 70.7581C105.14 67.8624 104.488 66.5484 103.388 66.1602C102.718 65.9238 102.554 66.0071 102.13 66.7973C101.617 67.7519 100.077 69.0356 99.2233 69.2204C98.0282 69.479 97.5944 68.8558 98.1191 67.6342C98.4031 66.9733 99.8811 65.724 100.896 65.287C101.281 65.121 101.613 64.9715 101.634 64.9546C101.654 64.9378 101.625 64.5841 101.569 64.1686C101.379 62.7665 100.386 62.048 98.7936 62.1607L97.9609 62.2195L97.6122 63.1669C97.1065 64.5409 96.4575 65.471 95.3843 66.36C94.5768 67.0289 94.3948 67.1222 93.7035 67.2211C93.0387 67.3164 92.8766 67.2693 92.5642 66.8903C92.2593 66.5204 92.2356 66.3221 92.4183 65.6743C92.6981 64.6823 93.3771 63.8675 94.7613 62.8632C95.352 62.4346 96.0354 61.9373 96.2798 61.758C96.6846 61.4612 96.722 61.3275 96.6974 60.2636C96.6378 57.6808 95.1853 55.8327 93.1444 55.7428C92.818 55.7284 92.7633 55.7704 92.3818 56.3289C91.4344 57.7157 89.6249 58.7981 88.254 58.7978C86.4005 58.7976 87.5063 56.8295 90.0303 55.6362C90.6125 55.3609 91.2545 55.0116 91.457 54.8599C92.2716 54.2497 92.1096 51.7595 91.2136 51.1192C90.7804 50.8099 89.7633 50.5855 89.5586 50.7542C89.4906 50.8103 89.2898 51.4185 89.1123 52.106C88.3661 54.997 86.6177 57.1663 84.7954 57.4622C83.5033 57.672 82.9311 56.738 83.3789 55.1503C83.7936 53.6804 84.8755 52.3124 86.6963 50.9555L87.9668 50.0086L87.8395 48.5483C87.7696 47.7452 87.6058 46.8052 87.4754 46.4596C87.2162 45.7728 86.3418 44.6063 85.9393 44.4107C85.6887 44.2889 85.6806 44.2958 85.2413 44.9994C84.5969 46.0318 82.6028 47.7915 81.5076 48.2942C79.5795 49.1794 78.3966 47.8561 79.4227 45.962C79.8391 45.1934 81.1798 43.9468 82.1662 43.4112C82.592 43.18 83.3097 42.9066 83.7612 42.8039C84.5076 42.6341 84.578 42.5931 84.54 42.3502C84.517 42.2033 84.2487 41.7912 83.9437 41.4346C83.2909 40.6706 82.1989 40.1926 81.0817 40.1814L80.3199 40.1739L79.8741 41.2316C78.7564 43.8829 76.4115 45.9094 75.2969 45.1874C74.6426 44.7634 74.75 43.451 75.5397 42.2205C76.1684 41.241 77.4785 40.2003 78.6828 39.7235L79.6467 39.342L79.7733 38.6954C79.9175 37.9599 79.7997 36.2348 79.5878 35.9774C79.3942 35.7422 79.5949 35.3986 79.8021 35.6107C80.4246 36.2481 80.6778 37.1482 80.5775 38.3664L80.51 39.1849L81.3473 39.2061C83.8619 39.2698 85.4291 40.2619 85.8434 42.0522C85.9953 42.7076 86.0939 42.8528 86.547 43.0881C87.3178 43.4881 88.0777 44.2483 88.5892 45.1305ZM83.6696 43.9782C82.1487 44.2915 80.5327 45.6262 80.359 46.7126C80.2568 47.3514 80.3056 47.4091 80.9078 47.3591C81.3442 47.3229 81.512 47.2135 82.5426 46.2936C83.6765 45.2816 84.5968 44.1362 84.4343 43.9391C84.3884 43.8834 84.0442 43.9011 83.6696 43.9782ZM99.3129 67.5607C99.0999 67.8374 98.9758 68.125 99.0375 68.1999C99.2052 68.4033 100.074 67.8261 100.581 67.1737C101.284 66.2716 101.271 66.2175 100.461 66.6507C99.8922 66.955 99.6029 67.1843 99.3129 67.5607ZM77.4193 41.3775C76.3699 42.241 75.6325 43.8099 76.0991 44.1871C76.5945 44.5879 77.9726 43.1705 78.9046 41.3014L79.369 40.3702L78.6499 40.6634C78.2543 40.8248 77.7006 41.1462 77.4193 41.3775ZM86.8335 52.1499C85.2984 53.4152 84.1161 55.4512 84.5857 56.0209C85.002 56.526 86.0201 55.646 86.776 54.1279C87.2112 53.2536 87.7096 51.7797 87.6107 51.6597C87.5701 51.6104 87.2204 51.831 86.8335 52.1499ZM89.2876 57.1148C88.7077 57.591 88.7068 57.5938 89.1871 57.439C89.4534 57.3532 89.9653 57.0372 90.3245 56.7367L90.9777 56.1907L90.425 56.4125C90.121 56.5345 89.6092 56.8506 89.2876 57.1148ZM94.9486 63.8341C93.9762 64.6327 93.3542 65.5774 93.5534 65.9533C93.8478 66.5089 95.1244 65.3803 95.8665 63.9084C96.4035 62.8432 96.1773 62.8249 94.9486 63.8341Z" fill="white"/>
<path fill-rule="evenodd" clip-rule="evenodd" d="M82.7102 32.1776C83.3801 32.7709 84.1613 33.1199 85.3925 33.376L86.3108 33.5671L86.001 34.3591C85.6229 35.3258 85.7391 36.0029 86.3999 36.6832C86.9762 37.2763 87.8572 37.5566 89.0063 37.5124L89.8223 37.4811L89.6529 38.0714C89.5596 38.3962 89.5149 38.9955 89.5537 39.4032C89.6135 40.0334 89.7423 40.279 90.4123 41.0408C91.2516 41.9952 92.1407 42.4361 93.4616 42.553L94.0877 42.6085L93.7061 43.6028C93.208 44.9006 93.2945 45.684 94.0191 46.4376C94.3656 46.7979 94.7882 47.0466 95.2064 47.1365L95.8558 47.2762L95.7097 47.7582C95.6294 48.0233 95.6103 48.513 95.6671 48.8465C95.9492 50.5002 97.7793 51.447 100.545 51.3703C102.526 51.3153 102.507 51.1423 100.443 50.4382C98.0208 49.6121 97.0447 48.8735 97.0274 47.8537C97.0169 47.2325 97.1404 47.0973 97.9712 46.82C98.9751 46.4849 100.579 45.2826 100.999 44.5505C101.587 43.5261 101.161 43.0658 99.9155 43.3787C99.2417 43.5481 97.6868 44.7001 96.9941 45.543C96.731 45.8632 96.4986 46.1382 96.4774 46.1542C96.4563 46.1702 96.1499 46.1007 95.7964 45.9998C94.6035 45.6592 94.2601 44.6928 94.8364 43.299L95.1377 42.5704L96.0861 42.3792C97.4616 42.1018 98.4844 41.643 99.5973 40.8043C100.435 40.1732 100.572 40.0238 100.867 39.4251C101.15 38.8492 101.157 38.7002 100.913 38.3773C100.674 38.0621 100.504 38.0167 99.8726 38.0982C98.9051 38.223 97.9761 38.7226 96.6674 39.8219C96.109 40.2911 95.4617 40.8337 95.2288 41.0276C94.8433 41.3488 94.713 41.3653 93.7724 41.2121C91.4886 40.8406 90.2758 39.3287 90.8056 37.5138C90.8903 37.2235 90.9441 37.1804 91.5558 36.9121C93.0747 36.246 94.5799 34.7804 94.9894 33.5687C95.5431 31.9305 93.4588 32.6649 91.6412 34.7483C91.2219 35.2289 90.7188 35.7532 90.5231 35.9134C89.7359 36.5581 87.5653 36.1075 87.2625 35.2365C87.1163 34.8154 87.2203 33.8888 87.4318 33.7287C87.5021 33.6755 88.1041 33.5731 88.7698 33.5012C91.569 33.1985 94.0246 31.9211 94.8328 30.347C95.4058 29.231 94.7445 28.6099 93.1959 28.8097C91.7622 28.9947 90.2198 29.7821 88.4665 31.2238L87.2431 32.2298L85.9799 31.937C85.2851 31.7761 84.4964 31.5152 84.2274 31.3573C83.6928 31.0434 82.9147 30.1266 82.8606 29.7466C82.8271 29.5101 82.8356 29.5038 83.5938 29.2025C84.7064 28.7604 86.8703 27.2152 87.6456 26.3093C89.0106 24.7145 88.1849 23.5056 86.1904 24.1787C85.3811 24.4518 83.8696 25.4828 83.0975 26.2885C82.7642 26.6363 82.3062 27.2368 82.0797 27.6232C81.7054 28.262 81.6478 28.3191 81.4427 28.2556C81.3187 28.2171 81.0316 27.9291 80.805 27.6155C80.3192 26.9442 80.2196 25.92 80.5435 24.9313L80.7645 24.257L81.8402 23.9936C84.5368 23.3331 87.0434 21.5108 86.7331 20.4366C86.5508 19.8059 85.3492 19.7388 84.0167 20.2849C82.956 20.7196 81.6371 21.749 80.8524 22.7545L80.2244 23.5593L79.6103 23.5914C78.9118 23.6281 77.4098 23.311 77.2438 23.0919C77.092 22.8917 76.7258 23.0267 76.8529 23.236C77.2349 23.8649 77.9613 24.1998 79.0769 24.2615L79.8264 24.3029L79.5951 25.0456C78.9004 27.2759 79.3161 28.7836 80.7876 29.3708C81.3263 29.5859 81.4262 29.691 81.5005 30.1205C81.6265 30.8511 82.0768 31.6166 82.7102 32.1776ZM83.1535 27.6873C83.8872 26.3817 85.5595 25.1183 86.5795 25.0988C87.1792 25.0874 87.2161 25.1377 86.9916 25.6637C86.8289 26.045 86.6813 26.1798 85.5536 26.9771C84.3129 27.8543 83.0173 28.5262 82.8902 28.3583C82.8543 28.3109 82.9728 28.0089 83.1535 27.6873ZM99.4933 44.4248C99.8035 44.2706 100.097 44.1965 100.145 44.2603C100.276 44.4336 99.5024 45.1299 98.7693 45.4981C97.7556 46.0074 97.7111 45.9897 98.3393 45.3272C98.7804 44.8619 99.0712 44.6345 99.4933 44.4248ZM82.7038 21.842C83.7869 21.0211 85.4053 20.5631 85.602 21.022C85.8111 21.5094 84.1362 22.5524 82.1921 23.1453L81.2235 23.4409L81.6997 22.8415C81.9618 22.5118 82.4136 22.062 82.7038 21.842ZM89.4899 31.4925C91.0762 30.292 93.2438 29.4983 93.6111 29.9837C93.9368 30.414 92.8483 31.2052 91.2696 31.6859C90.3605 31.9626 88.8982 32.2211 88.8208 32.1189C88.789 32.0769 89.0901 31.7951 89.4899 31.4925ZM93.1808 34.2744C93.7784 33.8208 93.7812 33.8203 93.4997 34.2256C93.3436 34.4504 92.9091 34.8638 92.534 35.1442L91.8522 35.6541L92.2151 35.193C92.4146 34.9394 92.8492 34.5261 93.1808 34.2744ZM97.4767 40.1074C98.4789 39.3465 99.5066 38.9135 99.782 39.1359C100.189 39.4647 98.8019 40.4537 97.2686 40.9278C96.1589 41.2709 96.2102 41.0687 97.4767 40.1074Z" fill="white"/>
<path d="M118.378 83.5655L123.183 90.11C123.062 90.256 122.893 90.4275 122.676 90.6246C122.469 90.8341 122.26 91.016 122.05 91.1703C121.11 91.8599 120.176 92.3365 119.247 92.6C118.319 92.8635 117.386 92.9398 116.448 92.8291C115.382 92.6986 114.362 92.3447 113.386 91.7674C112.423 91.181 111.547 90.3502 110.757 89.2749C110.049 88.3108 109.551 87.2691 109.262 86.1499C108.982 85.0429 108.908 83.9458 109.042 82.8584C109.188 81.762 109.546 80.7199 110.114 79.732C110.694 78.7351 111.491 77.8646 112.505 77.1204C113.518 76.3763 114.582 75.8812 115.694 75.6349C116.819 75.3795 117.921 75.3509 118.998 75.549C120.088 75.7379 121.119 76.1318 122.091 76.7306C123.072 77.3417 123.917 78.1292 124.625 79.0933C125.451 80.2181 125.976 81.3351 126.201 82.4445C126.435 83.5663 126.449 84.6874 126.245 85.8078L122.874 85.2582C122.989 84.508 122.976 83.804 122.835 83.1463C122.716 82.4918 122.389 81.8 121.854 81.0708C121.436 80.5022 120.937 80.0417 120.354 79.6892C119.794 79.34 119.187 79.1099 118.535 78.999C117.904 78.8914 117.248 78.9169 116.565 79.0755C115.904 79.2375 115.259 79.5498 114.628 80.0126C113.998 80.4754 113.5 81.0025 113.136 81.5937C112.792 82.1882 112.576 82.8132 112.486 83.4686C112.409 84.1149 112.451 84.7686 112.613 85.4296C112.788 86.0815 113.088 86.698 113.515 87.2789C114.349 88.416 115.319 89.1021 116.424 89.3372C116.764 89.4112 117.133 89.4349 117.532 89.4083C117.952 89.385 118.37 89.3065 118.786 89.1727L115.968 85.335L118.378 83.5655ZM118.046 98.8146C117.683 98.3202 117.548 97.7729 117.64 97.1728C117.732 96.5726 118.025 96.091 118.52 95.7281C119.014 95.3651 119.561 95.2296 120.161 95.3216C120.762 95.4136 121.243 95.7068 121.606 96.2012C121.969 96.6955 122.105 97.2428 122.013 97.843C121.921 98.4431 121.627 98.9247 121.133 99.2877C120.639 99.6507 120.091 99.7862 119.491 99.6942C118.891 99.6022 118.409 99.309 118.046 98.8146ZM123.892 107.165C122.985 105.929 122.527 104.62 122.52 103.237C122.534 101.857 123.023 100.528 123.987 99.2494L127.063 101.185C126.551 101.809 126.227 102.456 126.091 103.126C125.955 103.796 126.137 104.471 126.636 105.151C126.799 105.373 126.978 105.565 127.173 105.727C127.377 105.901 127.582 106.025 127.79 106.101C128.019 106.18 128.251 106.21 128.484 106.191C128.717 106.172 128.939 106.085 129.149 105.931C129.359 105.777 129.519 105.593 129.629 105.379C129.759 105.169 129.831 104.917 129.843 104.622C129.868 104.319 129.841 103.958 129.762 103.54C129.696 103.114 129.577 102.602 129.405 102.005L129.103 100.971C128.973 100.535 128.876 100.054 128.814 99.5286C128.773 99.0068 128.799 98.4842 128.89 97.9607C128.981 97.4372 129.156 96.9375 129.416 96.4618C129.688 95.9769 130.071 95.553 130.565 95.19C131.097 94.7998 131.674 94.5374 132.298 94.4026C132.922 94.2679 133.542 94.2696 134.157 94.4078C134.784 94.5369 135.396 94.8007 135.993 95.1994C136.59 95.598 137.129 96.1248 137.61 96.7799C138.118 97.4721 138.461 98.1334 138.639 98.7639C138.829 99.3853 138.909 99.9735 138.878 100.528C138.861 101.074 138.751 101.573 138.55 102.025C138.359 102.489 138.143 102.894 137.903 103.242L135.009 101.515C135.304 101.088 135.461 100.641 135.478 100.172C135.507 99.6934 135.35 99.2195 135.005 98.7499C134.642 98.2555 134.246 97.9371 133.818 97.7947C133.412 97.6556 133.048 97.7041 132.727 97.94C132.393 98.185 132.205 98.5511 132.163 99.0383C132.122 99.5255 132.248 100.241 132.542 101.186L132.863 102.206C133.305 103.612 133.432 104.86 133.243 105.95C133.054 107.04 132.416 107.984 131.328 108.782C130.636 109.29 129.932 109.588 129.217 109.676C128.51 109.776 127.827 109.726 127.167 109.527C126.515 109.339 125.905 109.026 125.336 108.588C124.764 108.171 124.282 107.697 123.892 107.165ZM132.542 118.325L136.39 116.299L134.865 114.222L137.238 113.023L138.735 115.062L140.599 114.064L139.074 111.988L141.433 110.77L142.944 112.828L146.611 110.905L148.326 113.241L144.659 115.164L146.02 117.018L149.688 115.095L151.403 117.431L147.735 119.354L149.26 121.43L146.901 122.648L145.39 120.59L143.526 121.588L145.064 123.683L142.706 124.901L141.181 122.824L137.333 124.851L135.618 122.515L139.466 120.488L138.105 118.635L134.257 120.661L132.542 118.325ZM140.358 117.351L141.801 119.316L143.767 118.301L142.324 116.336L140.358 117.351ZM146.062 131.765L149.56 136.53L147.187 138.272L140.871 129.67L143.318 127.873C144.592 128.079 145.769 128.271 146.85 128.447C147.309 128.528 147.775 128.605 148.246 128.678C148.709 128.738 149.133 128.797 149.519 128.856C149.926 128.919 150.28 128.973 150.58 129.019C150.901 129.068 151.143 129.1 151.306 129.114C151.964 129.182 152.496 129.181 152.902 129.111C153.32 129.033 153.708 128.862 154.066 128.599C154.425 128.336 154.628 127.977 154.675 127.524C154.744 127.074 154.606 126.614 154.262 126.144C153.917 125.675 153.504 125.398 153.023 125.313C152.564 125.232 152.068 125.282 151.536 125.463L150.723 122.18C151.188 122.01 151.686 121.91 152.217 121.882C152.747 121.854 153.28 121.919 153.815 122.078C154.363 122.228 154.9 122.48 155.427 122.835C155.963 123.202 156.449 123.683 156.884 124.276C157.374 124.943 157.716 125.615 157.908 126.292C158.113 126.96 158.18 127.595 158.109 128.199C158.048 128.814 157.861 129.389 157.549 129.922C157.237 130.456 156.815 130.918 156.284 131.308C155.517 131.871 154.675 132.213 153.757 132.336C152.86 132.462 151.865 132.441 150.772 132.273L146.179 131.536L146.062 131.765ZM152.072 145.547C151.454 144.706 151.068 143.83 150.911 142.917C150.755 142.005 150.801 141.096 151.05 140.191C151.298 139.286 151.729 138.408 152.342 137.559C152.976 136.713 153.769 135.94 154.721 135.242C155.672 134.543 156.641 134.022 157.625 133.68C158.632 133.34 159.604 133.188 160.542 133.222C161.48 133.256 162.361 133.484 163.185 133.907C164.008 134.329 164.729 134.96 165.346 135.801C165.954 136.629 166.336 137.499 166.492 138.412C166.658 139.336 166.616 140.252 166.368 141.157C166.119 142.062 165.678 142.938 165.044 143.784C164.431 144.633 163.649 145.407 162.697 146.106C161.745 146.805 160.766 147.324 159.76 147.663C158.775 148.006 157.814 148.16 156.875 148.126C155.937 148.092 155.052 147.857 154.219 147.423C153.395 147 152.68 146.375 152.072 145.547ZM154.667 143.641C154.976 144.061 155.347 144.36 155.78 144.536C156.236 144.715 156.724 144.785 157.246 144.744C157.777 144.716 158.33 144.576 158.906 144.324C159.491 144.084 160.074 143.752 160.655 143.325C161.236 142.899 161.728 142.442 162.132 141.955C162.545 141.481 162.844 140.995 163.03 140.497C163.225 140.011 163.299 139.529 163.252 139.05C163.226 138.575 163.059 138.127 162.75 137.707C162.442 137.286 162.06 136.986 161.605 136.807C161.171 136.631 160.689 136.557 160.158 136.585C159.636 136.626 159.083 136.766 158.498 137.005C157.922 137.257 157.343 137.596 156.762 138.023C156.181 138.449 155.685 138.9 155.272 139.374C154.868 139.86 154.569 140.346 154.374 140.832C154.188 141.33 154.108 141.817 154.133 142.293C154.181 142.771 154.359 143.221 154.667 143.641ZM162.678 154.397L166.176 159.161L163.803 160.904L157.487 152.301L159.934 150.504C161.208 150.711 162.385 150.902 163.466 151.079C163.925 151.16 164.391 151.237 164.862 151.309C165.325 151.369 165.749 151.429 166.135 151.488C166.542 151.55 166.895 151.604 167.196 151.65C167.517 151.7 167.759 151.731 167.921 151.745C168.58 151.813 169.112 151.812 169.518 151.743C169.936 151.664 170.324 151.494 170.682 151.23C171.041 150.967 171.244 150.609 171.291 150.156C171.36 149.705 171.222 149.246 170.877 148.776C170.533 148.306 170.12 148.029 169.639 147.944C169.18 147.863 168.684 147.913 168.152 148.095L167.339 144.811C167.804 144.641 168.302 144.542 168.832 144.514C169.363 144.485 169.896 144.551 170.431 144.709C170.979 144.859 171.516 145.111 172.043 145.466C172.579 145.834 173.065 146.314 173.5 146.907C173.99 147.575 174.331 148.247 174.524 148.923C174.729 149.591 174.796 150.227 174.725 150.83C174.664 151.446 174.477 152.02 174.165 152.554C173.853 153.088 173.431 153.549 172.9 153.94C172.133 154.502 171.291 154.845 170.373 154.967C169.476 155.093 168.481 155.072 167.388 154.905L162.795 154.168L162.678 154.397ZM168.034 167.288C167.662 166.782 167.362 166.231 167.135 165.637C166.908 165.043 166.783 164.431 166.758 163.802C166.743 163.186 166.839 162.564 167.044 161.937C167.25 161.311 167.593 160.716 168.075 160.154L170.922 161.972C170.432 162.523 170.147 163.093 170.067 163.684C170 164.266 170.175 164.841 170.592 165.41C170.955 165.904 171.437 166.198 172.037 166.29C172.637 166.382 173.197 166.237 173.716 165.856C174.235 165.475 174.541 164.984 174.633 164.384C174.734 163.796 174.594 163.243 174.213 162.724C173.95 162.365 173.655 162.106 173.328 161.946C173.002 161.787 172.665 161.691 172.319 161.66L171.583 158.092L178.371 154.164L183.802 161.561L181.429 163.303L177.7 158.223L174.713 159.674L174.793 159.9C175.151 159.999 175.538 160.163 175.952 160.391C176.376 160.631 176.774 161.005 177.146 161.511C177.527 162.031 177.785 162.602 177.92 163.226C178.076 163.853 178.1 164.482 177.993 165.113C177.894 165.756 177.661 166.384 177.293 166.996C176.925 167.609 176.413 168.156 175.758 168.637C175.103 169.118 174.422 169.447 173.714 169.623C173.02 169.791 172.331 169.812 171.648 169.685C170.966 169.559 170.315 169.294 169.697 168.892C169.078 168.491 168.524 167.956 168.034 167.288Z" fill="white"/>
<path fill-rule="evenodd" clip-rule="evenodd" d="M197.943 194.075C198.484 195.009 198.744 195.973 198.837 197.385L198.906 198.439L199.808 198.394C200.91 198.339 201.624 198.709 202.26 199.664C202.815 200.497 202.986 201.543 202.766 202.758L202.61 203.622L203.274 203.654C203.639 203.672 204.293 203.841 204.728 204.031C205.4 204.323 205.646 204.55 206.369 205.545C207.275 206.79 207.619 207.903 207.547 209.361L207.513 210.053L208.645 210.004C210.122 209.94 210.956 210.317 211.662 211.367C212 211.869 212.205 212.412 212.24 212.893L212.294 213.64L212.836 213.658C213.135 213.668 213.667 213.825 214.019 214.007C215.764 214.909 216.513 217.214 216.016 220.151C215.66 222.254 215.476 222.171 215.024 219.703C214.494 216.807 213.842 215.493 212.742 215.105C212.072 214.869 211.908 214.952 211.484 215.742C210.971 216.697 209.431 217.981 208.577 218.165C207.382 218.424 206.948 217.801 207.473 216.579C207.757 215.918 209.235 214.669 210.25 214.232C210.635 214.066 210.967 213.916 210.988 213.9C211.008 213.883 210.979 213.529 210.923 213.114C210.733 211.711 209.74 210.993 208.148 211.106L207.315 211.164L206.966 212.112C206.46 213.486 205.811 214.416 204.738 215.305C203.931 215.974 203.749 216.067 203.058 216.166C202.393 216.261 202.231 216.214 201.918 215.835C201.613 215.465 201.59 215.267 201.772 214.619C202.052 213.627 202.731 212.812 204.115 211.808C204.706 211.38 205.389 210.882 205.634 210.703C206.039 210.406 206.076 210.272 206.051 209.209C205.992 206.626 204.539 204.778 202.498 204.688C202.172 204.673 202.117 204.715 201.736 205.274C200.788 206.661 198.979 207.743 197.608 207.743C195.754 207.743 196.86 205.774 199.384 204.581C199.966 204.306 200.609 203.957 200.811 203.805C201.626 203.195 201.464 200.704 200.568 200.064C200.134 199.755 199.117 199.53 198.913 199.699C198.845 199.755 198.644 200.363 198.466 201.051C197.72 203.942 195.972 206.111 194.149 206.407C192.857 206.617 192.285 205.683 192.733 204.095C193.148 202.625 194.23 201.257 196.05 199.9L197.321 198.954L197.193 197.493C197.124 196.69 196.96 195.75 196.829 195.405C196.57 194.718 195.696 193.551 195.293 193.356C195.043 193.234 195.035 193.241 194.595 193.944C193.951 194.977 191.957 196.736 190.862 197.239C188.934 198.124 187.751 196.801 188.777 194.907C189.193 194.138 190.534 192.892 191.52 192.356C191.946 192.125 192.664 191.852 193.115 191.749C193.862 191.579 193.932 191.538 193.894 191.295C193.871 191.148 193.603 190.736 193.298 190.38C192.645 189.616 191.553 189.138 190.436 189.126L189.674 189.119L189.228 190.177C188.11 192.828 185.766 194.854 184.651 194.132C183.997 193.708 184.104 192.396 184.894 191.165C185.522 190.186 186.832 189.145 188.037 188.668L189.001 188.287L189.127 187.64C189.272 186.905 189.154 185.18 188.942 184.922C188.748 184.687 188.949 184.343 189.156 184.556C189.779 185.193 190.032 186.093 189.931 187.311L189.864 188.13L190.701 188.151C193.216 188.215 194.783 189.207 195.197 190.997C195.349 191.653 195.448 191.798 195.901 192.033C196.672 192.433 197.432 193.193 197.943 194.075ZM193.024 192.923C191.503 193.236 189.887 194.571 189.713 195.658C189.611 196.296 189.66 196.354 190.262 196.304C190.698 196.268 190.866 196.158 191.897 195.239C193.03 194.227 193.951 193.081 193.788 192.884C193.742 192.828 193.398 192.846 193.024 192.923ZM208.667 216.506C208.454 216.782 208.33 217.07 208.392 217.145C208.559 217.348 209.428 216.771 209.935 216.119C210.638 215.217 210.625 215.162 209.815 215.596C209.246 215.9 208.957 216.129 208.667 216.506ZM186.773 190.322C185.724 191.186 184.987 192.755 185.453 193.132C185.948 193.533 187.327 192.115 188.259 190.246L188.723 189.315L188.004 189.608C187.608 189.77 187.055 190.091 186.773 190.322ZM196.188 201.095C194.652 202.36 193.47 204.396 193.94 204.966C194.356 205.471 195.374 204.591 196.13 203.073C196.565 202.199 197.064 200.725 196.965 200.605C196.924 200.555 196.574 200.776 196.188 201.095ZM198.642 206.06C198.062 206.536 198.061 206.539 198.541 206.384C198.807 206.298 199.319 205.982 199.678 205.682L200.332 205.136L199.779 205.357C199.475 205.479 198.963 205.796 198.642 206.06ZM204.303 212.779C203.33 213.578 202.708 214.522 202.907 214.898C203.202 215.454 204.478 214.325 205.221 212.853C205.758 211.788 205.531 211.77 204.303 212.779Z" fill="white"/>
<path fill-rule="evenodd" clip-rule="evenodd" d="M192.064 181.123C192.734 181.716 193.515 182.065 194.746 182.321L195.665 182.512L195.355 183.304C194.977 184.271 195.093 184.948 195.754 185.628C196.33 186.221 197.211 186.502 198.36 186.457L199.176 186.426L199.007 187.016C198.914 187.341 198.869 187.941 198.908 188.348C198.968 188.978 199.096 189.224 199.766 189.986C200.606 190.94 201.495 191.381 202.816 191.498L203.442 191.553L203.06 192.548C202.562 193.846 202.649 194.629 203.373 195.383C203.72 195.743 204.142 195.992 204.56 196.081L205.21 196.221L205.064 196.703C204.983 196.968 204.964 197.458 205.021 197.791C205.303 199.445 207.133 200.392 209.899 200.315C211.88 200.26 211.861 200.087 209.797 199.383C207.375 198.557 206.399 197.819 206.381 196.799C206.371 196.178 206.494 196.042 207.325 195.765C208.329 195.43 209.933 194.228 210.353 193.495C210.941 192.471 210.515 192.011 209.269 192.324C208.596 192.493 207.041 193.645 206.348 194.488C206.085 194.808 205.853 195.083 205.831 195.099C205.81 195.115 205.504 195.046 205.15 194.945C203.958 194.604 203.614 193.638 204.19 192.244L204.492 191.515L205.44 191.324C206.816 191.047 207.838 190.588 208.951 189.749C209.789 189.118 209.926 188.969 210.221 188.37C210.504 187.794 210.511 187.645 210.267 187.322C210.028 187.007 209.858 186.962 209.227 187.043C208.259 187.168 207.33 187.668 206.021 188.767C205.463 189.236 204.816 189.779 204.583 189.973C204.197 190.294 204.067 190.31 203.126 190.157C200.843 189.786 199.63 188.274 200.16 186.459C200.244 186.169 200.298 186.125 200.91 185.857C202.429 185.191 203.934 183.725 204.343 182.514C204.897 180.876 202.813 181.61 200.995 183.693C200.576 184.174 200.073 184.698 199.877 184.858C199.09 185.503 196.919 185.052 196.616 184.182C196.47 183.76 196.574 182.834 196.786 182.674C196.856 182.621 197.458 182.518 198.124 182.446C200.923 182.144 203.379 180.866 204.187 179.292C204.76 178.176 204.099 177.555 202.55 177.755C201.116 177.94 199.574 178.727 197.821 180.169L196.597 181.175L195.334 180.882C194.639 180.721 193.85 180.46 193.581 180.302C193.047 179.988 192.269 179.072 192.215 178.692C192.181 178.455 192.19 178.449 192.948 178.147C194.06 177.705 196.224 176.16 197 175.254C198.365 173.66 197.539 172.451 195.544 173.124C194.735 173.397 193.224 174.428 192.452 175.234C192.118 175.581 191.66 176.182 191.434 176.568C191.059 177.207 191.002 177.264 190.797 177.201C190.673 177.162 190.386 176.874 190.159 176.56C189.673 175.889 189.574 174.865 189.898 173.876L190.118 173.202L191.194 172.939C193.891 172.278 196.397 170.456 196.087 169.382C195.905 168.751 194.703 168.684 193.371 169.23C192.31 169.665 190.991 170.694 190.206 171.7L189.578 172.504L188.964 172.536C188.266 172.573 186.764 172.256 186.598 172.037C186.446 171.837 186.08 171.972 186.207 172.181C186.589 172.81 187.315 173.145 188.431 173.207L189.18 173.248L188.949 173.991C188.254 176.221 188.67 177.729 190.142 178.316C190.68 178.531 190.78 178.636 190.854 179.066C190.981 179.796 191.431 180.562 192.064 181.123ZM192.507 176.632C193.241 175.327 194.914 174.063 195.934 174.044C196.533 174.032 196.57 174.083 196.346 174.609C196.183 174.99 196.035 175.125 194.908 175.922C193.667 176.799 192.371 177.471 192.244 177.303C192.208 177.256 192.327 176.954 192.507 176.632ZM208.847 193.37C209.157 193.216 209.451 193.141 209.499 193.205C209.63 193.379 208.856 194.075 208.123 194.443C207.11 194.952 207.065 194.935 207.693 194.272C208.134 193.807 208.425 193.58 208.847 193.37ZM192.058 170.787C193.141 169.966 194.759 169.508 194.956 169.967C195.165 170.454 193.49 171.497 191.546 172.09L190.578 172.386L191.054 171.786C191.316 171.457 191.768 171.007 192.058 170.787ZM198.844 180.438C200.43 179.237 202.598 178.443 202.965 178.929C203.291 179.359 202.202 180.15 200.624 180.631C199.715 180.908 198.252 181.166 198.175 181.064C198.143 181.022 198.444 180.74 198.844 180.438ZM202.535 183.219C203.132 182.766 203.135 182.765 202.854 183.171C202.698 183.395 202.263 183.809 201.888 184.089L201.206 184.599L201.569 184.138C201.769 183.884 202.203 183.471 202.535 183.219ZM206.831 189.052C207.833 188.292 208.861 187.858 209.136 188.081C209.543 188.41 208.156 189.399 206.623 189.873C205.513 190.216 205.564 190.014 206.831 189.052Z" fill="white"/>
<path d="M227.732 232.51L232.537 239.055C232.416 239.201 232.247 239.373 232.031 239.57C231.823 239.779 231.614 239.961 231.404 240.115C230.465 240.805 229.531 241.282 228.602 241.545C227.673 241.808 226.74 241.885 225.802 241.774C224.737 241.644 223.716 241.29 222.74 240.712C221.777 240.126 220.901 239.295 220.111 238.22C219.404 237.256 218.905 236.214 218.616 235.095C218.336 233.988 218.263 232.891 218.397 231.803C218.543 230.707 218.9 229.665 219.468 228.677C220.049 227.68 220.846 226.81 221.859 226.065C222.873 225.321 223.936 224.826 225.048 224.58C226.174 224.325 227.275 224.296 228.352 224.494C229.442 224.683 230.473 225.077 231.445 225.676C232.427 226.287 233.271 227.074 233.979 228.038C234.805 229.163 235.33 230.28 235.555 231.39C235.789 232.511 235.804 233.632 235.599 234.753L232.228 234.203C232.343 233.453 232.33 232.749 232.19 232.091C232.071 231.437 231.743 230.745 231.208 230.016C230.791 229.447 230.291 228.987 229.709 228.634C229.148 228.285 228.541 228.055 227.889 227.944C227.259 227.836 226.602 227.862 225.92 228.021C225.259 228.182 224.613 228.495 223.983 228.958C223.352 229.42 222.855 229.947 222.49 230.539C222.146 231.133 221.93 231.758 221.84 232.414C221.763 233.06 221.806 233.714 221.968 234.375C222.142 235.027 222.442 235.643 222.869 236.224C223.704 237.361 224.674 238.047 225.778 238.282C226.118 238.356 226.487 238.38 226.886 238.353C227.307 238.33 227.724 238.251 228.14 238.118L225.322 234.28L227.732 232.51ZM227.401 247.76C227.038 247.265 226.902 246.718 226.994 246.118C227.086 245.518 227.379 245.036 227.874 244.673C228.368 244.31 228.915 244.175 229.516 244.267C230.116 244.359 230.597 244.652 230.96 245.146C231.323 245.641 231.459 246.188 231.367 246.788C231.275 247.388 230.982 247.87 230.487 248.233C229.993 248.596 229.446 248.731 228.845 248.639C228.245 248.547 227.764 248.254 227.401 247.76ZM233.246 256.11C232.339 254.874 231.882 253.565 231.874 252.182C231.888 250.802 232.377 249.473 233.341 248.194L236.417 250.13C235.905 250.754 235.581 251.401 235.445 252.071C235.31 252.741 235.491 253.416 235.99 254.096C236.154 254.318 236.333 254.51 236.527 254.672C236.731 254.846 236.937 254.97 237.145 255.046C237.374 255.125 237.605 255.155 237.838 255.136C238.072 255.117 238.293 255.03 238.503 254.876C238.713 254.722 238.873 254.538 238.983 254.324C239.114 254.114 239.185 253.862 239.197 253.567C239.222 253.264 239.195 252.903 239.117 252.485C239.05 252.059 238.931 251.547 238.76 250.95L238.457 249.916C238.327 249.48 238.23 248.999 238.168 248.474C238.128 247.952 238.153 247.429 238.244 246.906C238.335 246.382 238.511 245.883 238.77 245.407C239.042 244.922 239.425 244.498 239.919 244.135C240.451 243.745 241.028 243.482 241.652 243.348C242.276 243.213 242.896 243.215 243.511 243.353C244.138 243.482 244.75 243.746 245.347 244.144C245.945 244.543 246.483 245.07 246.964 245.725C247.473 246.417 247.815 247.078 247.993 247.709C248.183 248.33 248.263 248.918 248.233 249.473C248.215 250.019 248.106 250.518 247.905 250.97C247.713 251.434 247.497 251.839 247.257 252.187L244.363 250.46C244.659 250.033 244.815 249.586 244.832 249.117C244.862 248.638 244.704 248.165 244.359 247.695C243.996 247.2 243.601 246.882 243.173 246.74C242.766 246.601 242.402 246.649 242.081 246.885C241.747 247.13 241.56 247.496 241.518 247.983C241.476 248.471 241.602 249.186 241.896 250.131L242.217 251.151C242.66 252.557 242.786 253.805 242.597 254.895C242.408 255.985 241.77 256.929 240.682 257.727C239.99 258.235 239.286 258.533 238.571 258.621C237.865 258.721 237.181 258.671 236.521 258.472C235.869 258.284 235.259 257.971 234.69 257.533C234.118 257.116 233.637 256.642 233.246 256.11ZM241.896 267.27L245.744 265.244L244.22 263.167L246.592 261.968L248.089 264.007L249.953 263.009L248.429 260.933L250.787 259.715L252.298 261.773L255.966 259.85L257.681 262.186L254.013 264.109L255.374 265.963L259.042 264.04L260.757 266.376L257.089 268.299L258.614 270.375L256.255 271.593L254.744 269.535L252.88 270.533L254.419 272.628L252.06 273.846L250.535 271.77L246.687 273.796L244.972 271.46L248.82 269.433L247.459 267.58L243.611 269.606L241.896 267.27ZM249.713 266.296L251.155 268.261L253.121 267.246L251.678 265.281L249.713 266.296ZM255.416 280.71L258.914 285.475L256.541 287.217L250.225 278.615L252.673 276.818C253.946 277.024 255.124 277.216 256.204 277.392C256.664 277.474 257.129 277.55 257.601 277.623C258.063 277.683 258.487 277.742 258.873 277.801C259.28 277.864 259.634 277.918 259.934 277.964C260.255 278.013 260.497 278.045 260.66 278.059C261.318 278.127 261.851 278.126 262.256 278.056C262.674 277.978 263.062 277.807 263.421 277.544C263.779 277.281 263.982 276.922 264.03 276.469C264.099 276.019 263.961 275.559 263.616 275.089C263.271 274.62 262.858 274.343 262.378 274.258C261.918 274.177 261.423 274.227 260.89 274.408L260.077 271.125C260.542 270.955 261.04 270.855 261.571 270.827C262.102 270.799 262.635 270.864 263.17 271.023C263.717 271.173 264.254 271.425 264.781 271.78C265.317 272.147 265.803 272.628 266.239 273.221C266.729 273.888 267.07 274.56 267.262 275.237C267.467 275.905 267.534 276.54 267.464 277.144C267.402 277.759 267.215 278.334 266.903 278.867C266.591 279.401 266.169 279.863 265.638 280.253C264.872 280.816 264.029 281.158 263.111 281.281C262.214 281.407 261.219 281.386 260.126 281.218L255.533 280.481L255.416 280.71ZM261.426 294.492C260.809 293.651 260.422 292.775 260.266 291.862C260.109 290.95 260.155 290.041 260.404 289.136C260.652 288.231 261.083 287.353 261.696 286.504C262.33 285.658 263.123 284.885 264.075 284.187C265.026 283.488 265.995 282.967 266.98 282.625C267.986 282.285 268.958 282.133 269.896 282.167C270.834 282.201 271.715 282.429 272.539 282.852C273.363 283.274 274.083 283.905 274.7 284.746C275.308 285.574 275.69 286.444 275.847 287.357C276.012 288.282 275.971 289.197 275.722 290.102C275.474 291.007 275.032 291.883 274.398 292.729C273.785 293.578 273.003 294.352 272.051 295.051C271.1 295.75 270.121 296.269 269.114 296.608C268.129 296.951 267.168 297.105 266.23 297.071C265.292 297.037 264.406 296.802 263.573 296.368C262.75 295.945 262.034 295.32 261.426 294.492ZM264.021 292.586C264.33 293.006 264.701 293.305 265.135 293.481C265.59 293.66 266.078 293.73 266.6 293.689C267.131 293.661 267.684 293.521 268.26 293.269C268.846 293.029 269.429 292.697 270.009 292.27C270.59 291.844 271.083 291.387 271.486 290.9C271.899 290.426 272.198 289.94 272.384 289.442C272.58 288.956 272.653 288.474 272.606 287.995C272.58 287.52 272.413 287.072 272.105 286.652C271.796 286.231 271.414 285.931 270.959 285.752C270.525 285.576 270.043 285.502 269.512 285.53C268.991 285.571 268.437 285.711 267.852 285.95C267.276 286.202 266.697 286.541 266.117 286.968C265.536 287.394 265.039 287.845 264.626 288.319C264.222 288.805 263.923 289.291 263.728 289.777C263.542 290.275 263.462 290.762 263.488 291.238C263.535 291.716 263.713 292.166 264.021 292.586ZM272.032 303.342L275.53 308.106L273.157 309.849L266.841 301.246L269.288 299.449C270.562 299.656 271.739 299.847 272.82 300.024C273.279 300.105 273.745 300.182 274.216 300.254C274.679 300.314 275.103 300.374 275.489 300.433C275.896 300.495 276.25 300.549 276.55 300.595C276.871 300.645 277.113 300.676 277.276 300.69C277.934 300.758 278.466 300.757 278.872 300.688C279.29 300.609 279.678 300.439 280.036 300.175C280.395 299.912 280.598 299.554 280.645 299.101C280.714 298.65 280.577 298.191 280.232 297.721C279.887 297.251 279.474 296.974 278.993 296.889C278.534 296.808 278.038 296.858 277.506 297.04L276.693 293.756C277.158 293.586 277.656 293.487 278.187 293.459C278.717 293.43 279.25 293.496 279.786 293.654C280.333 293.804 280.87 294.056 281.397 294.411C281.933 294.779 282.419 295.259 282.854 295.852C283.344 296.52 283.686 297.192 283.878 297.868C284.083 298.536 284.15 299.172 284.08 299.775C284.018 300.391 283.831 300.965 283.519 301.499C283.207 302.033 282.785 302.494 282.254 302.885C281.487 303.447 280.645 303.79 279.727 303.912C278.83 304.038 277.835 304.017 276.742 303.85L272.149 303.113L272.032 303.342ZM277.388 316.233C277.016 315.727 276.717 315.176 276.49 314.582C276.263 313.988 276.137 313.376 276.113 312.747C276.098 312.131 276.193 311.509 276.399 310.882C276.604 310.256 276.948 309.661 277.429 309.099L280.276 310.917C279.786 311.468 279.501 312.038 279.422 312.629C279.354 313.211 279.529 313.786 279.947 314.355C280.31 314.849 280.791 315.143 281.391 315.235C281.992 315.327 282.551 315.182 283.07 314.801C283.589 314.42 283.895 313.929 283.987 313.329C284.088 312.741 283.948 312.188 283.567 311.669C283.304 311.31 283.009 311.051 282.682 310.891C282.356 310.732 282.019 310.636 281.673 310.605L280.937 307.037L287.725 303.109L293.156 310.506L290.783 312.248L287.054 307.168L284.067 308.619L284.148 308.845C284.506 308.944 284.892 309.108 285.307 309.336C285.73 309.576 286.128 309.95 286.5 310.456C286.882 310.976 287.139 311.547 287.274 312.171C287.43 312.798 287.455 313.427 287.347 314.058C287.248 314.701 287.015 315.329 286.647 315.941C286.279 316.554 285.767 317.101 285.112 317.582C284.457 318.063 283.776 318.392 283.069 318.568C282.374 318.736 281.685 318.757 281.003 318.63C280.32 318.504 279.669 318.239 279.051 317.837C278.433 317.436 277.878 316.901 277.388 316.233Z" fill="white"/>
<path fill-rule="evenodd" clip-rule="evenodd" d="M307.297 343.02C307.838 343.954 308.099 344.918 308.191 346.33L308.26 347.384L309.162 347.339C310.264 347.284 310.978 347.654 311.615 348.609C312.169 349.442 312.34 350.488 312.121 351.703L311.965 352.567L312.628 352.599C312.993 352.617 313.647 352.786 314.082 352.975C314.754 353.268 315.001 353.495 315.724 354.489C316.629 355.735 316.973 356.848 316.901 358.306L316.868 358.998L317.999 358.949C319.477 358.885 320.31 359.262 321.016 360.312C321.354 360.814 321.559 361.357 321.594 361.838L321.648 362.585L322.191 362.603C322.489 362.613 323.021 362.77 323.373 362.952C325.118 363.854 325.868 366.159 325.37 369.096C325.014 371.199 324.83 371.116 324.378 368.648C323.848 365.752 323.196 364.438 322.097 364.05C321.427 363.814 321.262 363.897 320.838 364.687C320.325 365.642 318.786 366.925 317.932 367.11C316.736 367.369 316.303 366.746 316.827 365.524C317.111 364.863 318.589 363.614 319.604 363.177C319.989 363.011 320.322 362.861 320.342 362.845C320.362 362.828 320.333 362.474 320.277 362.059C320.088 360.656 319.095 359.938 317.502 360.051L316.669 360.109L316.321 361.057C315.815 362.431 315.166 363.361 314.093 364.25C313.285 364.919 313.103 365.012 312.412 365.111C311.747 365.206 311.585 365.159 311.272 364.78C310.968 364.41 310.944 364.212 311.127 363.564C311.406 362.572 312.085 361.757 313.47 360.753C314.06 360.325 314.744 359.827 314.988 359.648C315.393 359.351 315.43 359.217 315.406 358.153C315.346 355.571 313.894 353.723 311.853 353.633C311.526 353.618 311.472 353.66 311.09 354.219C310.143 355.606 308.333 356.688 306.962 356.688C305.109 356.688 306.215 354.719 308.739 353.526C309.321 353.251 309.963 352.902 310.165 352.75C310.98 352.14 310.818 349.649 309.922 349.009C309.489 348.7 308.472 348.475 308.267 348.644C308.199 348.7 307.998 349.308 307.821 349.996C307.074 352.887 305.326 355.056 303.504 355.352C302.212 355.562 301.639 354.628 302.087 353.04C302.502 351.57 303.584 350.202 305.405 348.845L306.675 347.899L306.548 346.438C306.478 345.635 306.314 344.695 306.184 344.35C305.924 343.663 305.05 342.496 304.648 342.301C304.397 342.179 304.389 342.186 303.95 342.889C303.305 343.922 301.311 345.681 300.216 346.184C298.288 347.069 297.105 345.746 298.131 343.852C298.547 343.083 299.888 341.837 300.874 341.301C301.3 341.07 302.018 340.797 302.469 340.694C303.216 340.524 303.286 340.483 303.248 340.24C303.225 340.093 302.957 339.681 302.652 339.324C301.999 338.56 300.907 338.082 299.79 338.071L299.028 338.064L298.582 339.121C297.465 341.773 295.12 343.799 294.005 343.077C293.351 342.653 293.458 341.341 294.248 340.11C294.877 339.131 296.187 338.09 297.391 337.613L298.355 337.232L298.482 336.585C298.626 335.85 298.508 334.125 298.296 333.867C298.102 333.632 298.303 333.288 298.51 333.501C299.133 334.138 299.386 335.038 299.286 336.256L299.218 337.075L300.056 337.096C302.57 337.16 304.137 338.152 304.552 339.942C304.704 340.597 304.802 340.743 305.255 340.978C306.026 341.378 306.786 342.138 307.297 343.02ZM302.378 341.868C300.857 342.181 299.241 343.516 299.067 344.603C298.965 345.241 299.014 345.299 299.616 345.249C300.052 345.213 300.22 345.103 301.251 344.183C302.385 343.171 303.305 342.026 303.143 341.829C303.097 341.773 302.752 341.791 302.378 341.868ZM318.021 365.451C317.808 365.727 317.684 366.015 317.746 366.09C317.913 366.293 318.782 365.716 319.29 365.064C319.992 364.161 319.98 364.107 319.169 364.541C318.6 364.845 318.311 365.074 318.021 365.451ZM296.128 339.267C295.078 340.131 294.341 341.7 294.807 342.077C295.303 342.478 296.681 341.06 297.613 339.191L298.077 338.26L297.358 338.553C296.963 338.715 296.409 339.036 296.128 339.267ZM305.542 350.04C304.007 351.305 302.824 353.341 303.294 353.911C303.71 354.416 304.728 353.536 305.484 352.018C305.919 351.143 306.418 349.67 306.319 349.55C306.278 349.5 305.929 349.721 305.542 350.04ZM307.996 355.005C307.416 355.481 307.415 355.484 307.895 355.329C308.162 355.243 308.674 354.927 309.033 354.627L309.686 354.081L309.133 354.302C308.829 354.424 308.317 354.74 307.996 355.005ZM313.657 361.724C312.684 362.523 312.062 363.467 312.262 363.843C312.556 364.399 313.833 363.27 314.575 361.798C315.112 360.733 314.886 360.715 313.657 361.724Z" fill="white"/>
<path fill-rule="evenodd" clip-rule="evenodd" d="M301.418 330.067C302.088 330.661 302.87 331.01 304.101 331.266L305.019 331.457L304.709 332.249C304.331 333.216 304.447 333.893 305.108 334.573C305.684 335.166 306.565 335.447 307.715 335.402L308.531 335.371L308.361 335.961C308.268 336.286 308.223 336.885 308.262 337.293C308.322 337.923 308.451 338.169 309.121 338.931C309.96 339.885 310.849 340.326 312.17 340.443L312.796 340.498L312.414 341.493C311.916 342.791 312.003 343.574 312.727 344.327C313.074 344.688 313.496 344.936 313.915 345.026L314.564 345.166L314.418 345.648C314.338 345.913 314.319 346.403 314.375 346.736C314.657 348.39 316.488 349.337 319.254 349.26C321.234 349.205 321.215 349.032 319.151 348.328C316.729 347.502 315.753 346.763 315.736 345.744C315.725 345.122 315.849 344.987 316.679 344.71C317.683 344.375 319.287 343.172 319.707 342.44C320.295 341.416 319.869 340.956 318.624 341.269C317.95 341.438 316.395 342.59 315.702 343.433C315.439 343.753 315.207 344.028 315.186 344.044C315.165 344.06 314.858 343.991 314.505 343.89C313.312 343.549 312.968 342.583 313.545 341.189L313.846 340.46L314.794 340.269C316.17 339.992 317.193 339.533 318.306 338.694C319.143 338.063 319.28 337.914 319.575 337.315C319.859 336.739 319.865 336.59 319.621 336.267C319.382 335.952 319.213 335.907 318.581 335.988C317.613 336.113 316.684 336.612 315.376 337.712C314.817 338.181 314.17 338.724 313.937 338.917C313.552 339.239 313.421 339.255 312.481 339.102C310.197 338.731 308.984 337.219 309.514 335.404C309.599 335.113 309.652 335.07 310.264 334.802C311.783 334.136 313.288 332.67 313.698 331.459C314.251 329.82 312.167 330.555 310.349 332.638C309.93 333.119 309.427 333.643 309.231 333.803C308.444 334.448 306.274 333.997 305.971 333.126C305.825 332.705 305.929 331.779 306.14 331.619C306.21 331.565 306.812 331.463 307.478 331.391C310.277 331.088 312.733 329.811 313.541 328.237C314.114 327.121 313.453 326.5 311.904 326.7C310.47 326.885 308.928 327.672 307.175 329.114L305.951 330.12L304.688 329.827C303.993 329.666 303.205 329.405 302.936 329.247C302.401 328.933 301.623 328.016 301.569 327.637C301.535 327.4 301.544 327.394 302.302 327.092C303.415 326.65 305.579 325.105 306.354 324.199C307.719 322.604 306.893 321.396 304.899 322.069C304.089 322.342 302.578 323.373 301.806 324.178C301.472 324.526 301.014 325.127 300.788 325.513C300.414 326.152 300.356 326.209 300.151 326.145C300.027 326.107 299.74 325.819 299.513 325.505C299.027 324.834 298.928 323.81 299.252 322.821L299.473 322.147L300.548 321.884C303.245 321.223 305.752 319.401 305.441 318.326C305.259 317.696 304.057 317.629 302.725 318.175C301.664 318.609 300.345 319.639 299.561 320.644L298.933 321.449L298.319 321.481C297.62 321.518 296.118 321.201 295.952 320.982C295.8 320.782 295.434 320.917 295.561 321.126C295.943 321.755 296.67 322.09 297.785 322.151L298.535 322.193L298.303 322.936C297.609 325.166 298.024 326.673 299.496 327.261C300.035 327.476 300.134 327.581 300.209 328.01C300.335 328.741 300.785 329.507 301.418 330.067ZM301.862 325.577C302.595 324.272 304.268 323.008 305.288 322.989C305.887 322.977 305.924 323.028 305.7 323.554C305.537 323.935 305.39 324.07 304.262 324.867C303.021 325.744 301.726 326.416 301.598 326.248C301.563 326.201 301.681 325.899 301.862 325.577ZM318.202 342.315C318.512 342.161 318.805 342.086 318.853 342.15C318.985 342.324 318.211 343.02 317.478 343.388C316.464 343.897 316.419 343.88 317.048 343.217C317.489 342.752 317.779 342.524 318.202 342.315ZM301.412 319.732C302.495 318.911 304.114 318.453 304.31 318.912C304.519 319.399 302.844 320.442 300.9 321.035L299.932 321.331L300.408 320.731C300.67 320.402 301.122 319.952 301.412 319.732ZM308.198 329.382C309.784 328.182 311.952 327.388 312.319 327.874C312.645 328.304 311.557 329.095 309.978 329.576C309.069 329.852 307.606 330.111 307.529 330.009C307.497 329.967 307.798 329.685 308.198 329.382ZM311.889 332.164C312.487 331.711 312.489 331.71 312.208 332.116C312.052 332.34 311.617 332.754 311.242 333.034L310.56 333.544L310.923 333.083C311.123 332.829 311.557 332.416 311.889 332.164ZM316.185 337.997C317.187 337.236 318.215 336.803 318.49 337.026C318.897 337.355 317.51 338.344 315.977 338.818C314.867 339.161 314.918 338.959 316.185 337.997Z" fill="white"/>
<path d="M337.086 381.456L341.891 388C341.77 388.146 341.601 388.318 341.385 388.515C341.177 388.724 340.968 388.906 340.758 389.06C339.819 389.75 338.885 390.227 337.956 390.49C337.027 390.754 336.094 390.83 335.156 390.719C334.091 390.589 333.07 390.235 332.094 389.657C331.131 389.071 330.255 388.24 329.465 387.165C328.758 386.201 328.259 385.159 327.97 384.04C327.69 382.933 327.617 381.836 327.751 380.749C327.897 379.652 328.254 378.61 328.822 377.622C329.403 376.625 330.2 375.755 331.213 375.011C332.227 374.266 333.29 373.771 334.402 373.525C335.528 373.27 336.629 373.241 337.706 373.439C338.796 373.628 339.827 374.022 340.799 374.621C341.781 375.232 342.625 376.019 343.333 376.983C344.159 378.108 344.684 379.225 344.909 380.335C345.143 381.456 345.158 382.577 344.953 383.698L341.582 383.148C341.697 382.398 341.684 381.694 341.544 381.036C341.425 380.382 341.097 379.69 340.562 378.961C340.145 378.392 339.645 377.932 339.063 377.579C338.502 377.23 337.895 377 337.243 376.889C336.613 376.781 335.956 376.807 335.274 376.966C334.613 377.128 333.967 377.44 333.337 377.903C332.706 378.366 332.209 378.893 331.844 379.484C331.5 380.078 331.284 380.703 331.194 381.359C331.117 382.005 331.16 382.659 331.322 383.32C331.496 383.972 331.796 384.588 332.223 385.169C333.058 386.306 334.028 386.992 335.132 387.227C335.472 387.301 335.841 387.325 336.24 387.298C336.661 387.275 337.078 387.197 337.494 387.063L334.676 383.225L337.086 381.456ZM336.755 396.705C336.392 396.21 336.256 395.663 336.348 395.063C336.44 394.463 336.733 393.981 337.228 393.618C337.722 393.255 338.269 393.12 338.87 393.212C339.47 393.304 339.951 393.597 340.314 394.091C340.677 394.586 340.813 395.133 340.721 395.733C340.629 396.333 340.336 396.815 339.841 397.178C339.347 397.541 338.8 397.676 338.199 397.584C337.599 397.492 337.118 397.199 336.755 396.705ZM342.6 405.055C341.693 403.82 341.236 402.51 341.228 401.127C341.242 399.747 341.731 398.418 342.695 397.139L345.771 399.075C345.259 399.699 344.935 400.346 344.799 401.016C344.664 401.686 344.845 402.361 345.344 403.041C345.508 403.263 345.687 403.455 345.881 403.617C346.085 403.791 346.291 403.915 346.499 403.991C346.728 404.07 346.959 404.1 347.192 404.081C347.426 404.062 347.647 403.975 347.857 403.821C348.067 403.667 348.227 403.483 348.337 403.269C348.468 403.059 348.539 402.807 348.551 402.512C348.576 402.209 348.549 401.848 348.471 401.431C348.404 401.004 348.285 400.492 348.114 399.895L347.811 398.861C347.681 398.425 347.584 397.944 347.522 397.419C347.482 396.897 347.507 396.374 347.598 395.851C347.689 395.327 347.865 394.828 348.124 394.352C348.396 393.867 348.779 393.443 349.273 393.08C349.805 392.69 350.382 392.427 351.006 392.293C351.63 392.158 352.25 392.16 352.865 392.298C353.492 392.427 354.104 392.691 354.701 393.089C355.299 393.488 355.838 394.015 356.318 394.67C356.827 395.362 357.169 396.023 357.347 396.654C357.537 397.275 357.617 397.864 357.587 398.418C357.569 398.964 357.46 399.463 357.259 399.915C357.067 400.379 356.851 400.785 356.611 401.132L353.717 399.405C354.013 398.978 354.169 398.531 354.186 398.062C354.216 397.584 354.058 397.11 353.713 396.64C353.35 396.146 352.955 395.827 352.527 395.685C352.12 395.546 351.756 395.594 351.435 395.83C351.101 396.075 350.914 396.441 350.872 396.928C350.83 397.416 350.956 398.131 351.25 399.076L351.571 400.096C352.014 401.502 352.14 402.75 351.951 403.84C351.762 404.93 351.124 405.874 350.036 406.672C349.344 407.181 348.64 407.479 347.925 407.566C347.219 407.666 346.535 407.617 345.875 407.417C345.223 407.229 344.613 406.916 344.044 406.478C343.472 406.061 342.991 405.587 342.6 405.055ZM351.25 416.215L355.098 414.189L353.574 412.112L355.946 410.913L357.443 412.952L359.307 411.954L357.783 409.878L360.141 408.66L361.652 410.718L365.32 408.796L367.035 411.132L363.367 413.054L364.728 414.908L368.396 412.985L370.111 415.321L366.443 417.244L367.968 419.32L365.609 420.538L364.098 418.48L362.234 419.478L363.773 421.573L361.414 422.791L359.889 420.715L356.041 422.741L354.326 420.405L358.174 418.379L356.813 416.525L352.965 418.551L351.25 416.215ZM359.067 415.241L360.509 417.206L362.475 416.191L361.032 414.226L359.067 415.241ZM364.77 429.655L368.268 434.42L365.895 436.162L359.579 427.56L362.027 425.763C363.3 425.969 364.478 426.161 365.558 426.337C366.018 426.419 366.483 426.495 366.955 426.568C367.417 426.628 367.841 426.687 368.227 426.746C368.634 426.809 368.988 426.863 369.288 426.909C369.609 426.958 369.851 426.99 370.014 427.004C370.672 427.072 371.205 427.071 371.61 427.002C372.028 426.923 372.416 426.752 372.775 426.489C373.133 426.226 373.336 425.868 373.384 425.414C373.453 424.964 373.315 424.504 372.97 424.034C372.625 423.565 372.212 423.288 371.732 423.203C371.272 423.122 370.777 423.172 370.244 423.353L369.431 420.07C369.896 419.9 370.394 419.801 370.925 419.772C371.456 419.744 371.989 419.809 372.524 419.968C373.071 420.118 373.608 420.37 374.135 420.725C374.671 421.092 375.157 421.573 375.593 422.166C376.083 422.833 376.424 423.505 376.616 424.182C376.821 424.85 376.888 425.485 376.818 426.089C376.756 426.704 376.569 427.279 376.257 427.813C375.945 428.346 375.523 428.808 374.992 429.198C374.226 429.761 373.383 430.103 372.465 430.226C371.568 430.352 370.573 430.331 369.48 430.163L364.887 429.426L364.77 429.655ZM370.78 443.437C370.163 442.596 369.776 441.72 369.62 440.808C369.463 439.895 369.509 438.986 369.758 438.081C370.006 437.176 370.437 436.298 371.05 435.449C371.684 434.603 372.477 433.831 373.429 433.132C374.38 432.433 375.349 431.912 376.334 431.57C377.34 431.23 378.312 431.078 379.25 431.112C380.188 431.146 381.069 431.374 381.893 431.797C382.717 432.219 383.437 432.85 384.054 433.691C384.662 434.519 385.044 435.389 385.201 436.302C385.366 437.227 385.325 438.142 385.076 439.047C384.828 439.952 384.386 440.828 383.752 441.674C383.139 442.523 382.357 443.297 381.405 443.996C380.454 444.695 379.475 445.214 378.468 445.553C377.483 445.896 376.522 446.05 375.584 446.016C374.646 445.982 373.76 445.747 372.927 445.313C372.104 444.89 371.388 444.265 370.78 443.437ZM373.375 441.531C373.684 441.952 374.055 442.25 374.489 442.426C374.944 442.605 375.432 442.675 375.954 442.634C376.485 442.606 377.038 442.466 377.614 442.214C378.2 441.975 378.783 441.642 379.363 441.215C379.944 440.789 380.437 440.332 380.84 439.846C381.253 439.371 381.552 438.885 381.738 438.387C381.934 437.902 382.007 437.419 381.96 436.94C381.934 436.465 381.767 436.017 381.459 435.597C381.15 435.176 380.768 434.877 380.313 434.697C379.879 434.521 379.397 434.447 378.866 434.475C378.345 434.516 377.791 434.656 377.206 434.895C376.63 435.147 376.051 435.486 375.471 435.913C374.89 436.339 374.393 436.79 373.98 437.264C373.576 437.75 373.277 438.237 373.082 438.722C372.896 439.22 372.816 439.707 372.842 440.183C372.889 440.661 373.067 441.111 373.375 441.531ZM381.386 452.287L384.884 457.051L382.511 458.794L376.195 450.191L378.642 448.394C379.916 448.601 381.093 448.792 382.174 448.969C382.633 449.05 383.099 449.127 383.57 449.199C384.033 449.259 384.457 449.319 384.843 449.378C385.25 449.44 385.604 449.494 385.904 449.54C386.225 449.59 386.467 449.621 386.63 449.635C387.288 449.703 387.82 449.703 388.226 449.633C388.644 449.555 389.032 449.384 389.39 449.12C389.749 448.857 389.952 448.499 389.999 448.046C390.068 447.596 389.931 447.136 389.586 446.666C389.241 446.196 388.828 445.919 388.348 445.834C387.888 445.753 387.393 445.803 386.86 445.985L386.047 442.701C386.512 442.531 387.01 442.432 387.541 442.404C388.071 442.375 388.604 442.441 389.14 442.599C389.687 442.749 390.224 443.001 390.751 443.356C391.287 443.724 391.773 444.204 392.208 444.797C392.698 445.465 393.04 446.137 393.232 446.814C393.437 447.481 393.504 448.117 393.434 448.72C393.372 449.336 393.185 449.911 392.873 450.444C392.561 450.978 392.139 451.439 391.608 451.83C390.841 452.392 389.999 452.735 389.081 452.857C388.184 452.983 387.189 452.962 386.096 452.795L381.503 452.058L381.386 452.287ZM386.742 465.179C386.37 464.672 386.071 464.121 385.844 463.527C385.617 462.933 385.491 462.321 385.467 461.692C385.452 461.076 385.547 460.454 385.753 459.828C385.958 459.201 386.302 458.606 386.783 458.044L389.63 459.862C389.14 460.413 388.855 460.983 388.776 461.574C388.708 462.156 388.883 462.732 389.301 463.3C389.664 463.795 390.145 464.088 390.745 464.18C391.346 464.272 391.905 464.127 392.424 463.746C392.943 463.365 393.249 462.874 393.341 462.274C393.442 461.686 393.302 461.133 392.921 460.614C392.658 460.255 392.363 459.996 392.036 459.836C391.71 459.677 391.373 459.581 391.027 459.55L390.291 455.982L397.079 452.054L402.51 459.451L400.137 461.193L396.408 456.113L393.421 457.564L393.502 457.79C393.86 457.889 394.246 458.053 394.661 458.281C395.084 458.521 395.482 458.895 395.854 459.402C396.236 459.921 396.493 460.492 396.628 461.116C396.784 461.743 396.809 462.372 396.701 463.003C396.602 463.646 396.369 464.274 396.001 464.886C395.633 465.499 395.121 466.046 394.466 466.527C393.811 467.008 393.13 467.337 392.423 467.514C391.728 467.681 391.039 467.702 390.357 467.575C389.674 467.449 389.023 467.184 388.405 466.783C387.787 466.381 387.232 465.846 386.742 465.179Z" fill="white"/>
<path fill-rule="evenodd" clip-rule="evenodd" d="M416.651 491.965C417.192 492.899 417.453 493.863 417.545 495.275L417.614 496.329L418.516 496.284C419.618 496.229 420.332 496.599 420.969 497.554C421.523 498.387 421.694 499.433 421.475 500.648L421.319 501.512L421.982 501.544C422.347 501.562 423.001 501.731 423.436 501.921C424.108 502.213 424.355 502.44 425.078 503.435C425.983 504.68 426.327 505.793 426.255 507.251L426.222 507.943L427.353 507.894C428.831 507.83 429.664 508.207 430.37 509.257C430.708 509.759 430.913 510.302 430.948 510.783L431.002 511.53L431.545 511.548C431.843 511.558 432.375 511.715 432.727 511.897C434.472 512.799 435.222 515.104 434.724 518.041C434.368 520.144 434.184 520.061 433.732 517.593C433.202 514.697 432.55 513.383 431.451 512.995C430.781 512.759 430.616 512.842 430.192 513.632C429.679 514.587 428.14 515.871 427.286 516.055C426.09 516.314 425.657 515.691 426.181 514.469C426.465 513.808 427.943 512.559 428.958 512.122C429.343 511.956 429.676 511.806 429.696 511.79C429.716 511.773 429.687 511.419 429.631 511.004C429.442 509.601 428.449 508.883 426.856 508.996L426.023 509.054L425.675 510.002C425.169 511.376 424.52 512.306 423.447 513.195C422.639 513.864 422.457 513.957 421.766 514.056C421.101 514.151 420.939 514.104 420.626 513.725C420.322 513.355 420.298 513.157 420.481 512.509C420.76 511.517 421.439 510.702 422.824 509.698C423.414 509.27 424.098 508.772 424.342 508.593C424.747 508.296 424.784 508.162 424.76 507.099C424.7 504.516 423.248 502.668 421.207 502.578C420.88 502.563 420.826 502.605 420.444 503.164C419.497 504.551 417.687 505.633 416.316 505.633C414.463 505.633 415.569 503.664 418.093 502.471C418.675 502.196 419.317 501.847 419.519 501.695C420.334 501.085 420.172 498.594 419.276 497.954C418.843 497.645 417.826 497.42 417.621 497.589C417.553 497.645 417.352 498.253 417.175 498.941C416.428 501.832 414.68 504.001 412.858 504.297C411.566 504.507 410.993 503.573 411.441 501.985C411.856 500.515 412.938 499.147 414.759 497.79L416.029 496.844L415.902 495.383C415.832 494.58 415.668 493.64 415.538 493.295C415.278 492.608 414.404 491.441 414.002 491.246C413.751 491.124 413.743 491.131 413.304 491.834C412.659 492.867 410.665 494.626 409.57 495.129C407.642 496.014 406.459 494.691 407.485 492.797C407.901 492.028 409.242 490.782 410.228 490.246C410.654 490.015 411.372 489.742 411.823 489.639C412.57 489.469 412.64 489.428 412.602 489.185C412.579 489.038 412.311 488.626 412.006 488.27C411.353 487.506 410.261 487.028 409.144 487.016L408.382 487.009L407.936 488.067C406.819 490.718 404.474 492.744 403.359 492.022C402.705 491.598 402.812 490.286 403.602 489.055C404.231 488.076 405.541 487.035 406.745 486.558L407.709 486.177L407.836 485.53C407.98 484.795 407.862 483.07 407.65 482.812C407.456 482.577 407.657 482.234 407.864 482.446C408.487 483.083 408.74 483.983 408.64 485.201L408.572 486.02L409.41 486.041C411.924 486.105 413.491 487.097 413.906 488.887C414.058 489.543 414.156 489.688 414.609 489.923C415.38 490.323 416.14 491.083 416.651 491.965ZM411.732 490.813C410.211 491.127 408.595 492.461 408.421 493.548C408.319 494.186 408.368 494.244 408.97 494.194C409.406 494.158 409.574 494.048 410.605 493.129C411.739 492.117 412.659 490.971 412.497 490.774C412.451 490.718 412.106 490.736 411.732 490.813ZM427.375 514.396C427.162 514.672 427.038 514.96 427.1 515.035C427.267 515.238 428.136 514.661 428.644 514.009C429.346 513.107 429.334 513.052 428.523 513.486C427.954 513.79 427.665 514.019 427.375 514.396ZM405.482 488.212C404.432 489.076 403.695 490.645 404.161 491.022C404.657 491.423 406.035 490.005 406.967 488.136L407.431 487.205L406.712 487.498C406.317 487.66 405.763 487.981 405.482 488.212ZM414.896 498.985C413.361 500.25 412.178 502.286 412.648 502.856C413.064 503.361 414.082 502.481 414.838 500.963C415.273 500.089 415.772 498.615 415.673 498.495C415.632 498.445 415.283 498.666 414.896 498.985ZM417.35 503.95C416.77 504.426 416.769 504.429 417.249 504.274C417.516 504.188 418.028 503.872 418.387 503.572L419.04 503.026L418.487 503.247C418.183 503.369 417.671 503.686 417.35 503.95ZM423.011 510.669C422.038 511.468 421.416 512.412 421.616 512.788C421.91 513.344 423.187 512.215 423.929 510.743C424.466 509.678 424.24 509.66 423.011 510.669Z" fill="white"/>
<path fill-rule="evenodd" clip-rule="evenodd" d="M410.772 479.013C411.442 479.606 412.224 479.955 413.455 480.211L414.373 480.402L414.063 481.194C413.685 482.161 413.801 482.838 414.462 483.518C415.038 484.111 415.919 484.392 417.069 484.347L417.885 484.316L417.715 484.906C417.622 485.231 417.577 485.83 417.616 486.238C417.676 486.868 417.805 487.114 418.475 487.876C419.314 488.83 420.203 489.271 421.524 489.388L422.15 489.443L421.768 490.438C421.27 491.736 421.357 492.519 422.081 493.273C422.428 493.633 422.85 493.882 423.269 493.971L423.918 494.111L423.772 494.593C423.692 494.858 423.673 495.348 423.729 495.681C424.011 497.335 425.842 498.282 428.608 498.205C430.588 498.15 430.569 497.977 428.505 497.273C426.083 496.447 425.107 495.709 425.09 494.689C425.079 494.067 425.203 493.932 426.033 493.655C427.037 493.32 428.641 492.118 429.061 491.385C429.649 490.361 429.223 489.901 427.978 490.214C427.304 490.383 425.749 491.535 425.056 492.378C424.793 492.698 424.561 492.973 424.54 492.989C424.519 493.005 424.212 492.936 423.859 492.835C422.666 492.494 422.322 491.528 422.899 490.134L423.2 489.405L424.148 489.214C425.524 488.937 426.547 488.478 427.66 487.639C428.497 487.008 428.634 486.859 428.929 486.26C429.213 485.684 429.219 485.535 428.975 485.212C428.736 484.897 428.567 484.852 427.935 484.933C426.967 485.058 426.038 485.558 424.73 486.657C424.171 487.126 423.524 487.669 423.291 487.863C422.906 488.184 422.775 488.2 421.835 488.047C419.551 487.676 418.338 486.164 418.868 484.349C418.953 484.058 419.006 484.015 419.618 483.747C421.137 483.081 422.642 481.615 423.052 480.404C423.605 478.765 421.521 479.5 419.703 481.583C419.284 482.064 418.781 482.588 418.585 482.748C417.798 483.393 415.628 482.942 415.325 482.071C415.179 481.65 415.283 480.724 415.494 480.564C415.564 480.51 416.166 480.408 416.832 480.336C419.631 480.033 422.087 478.756 422.895 477.182C423.468 476.066 422.807 475.445 421.258 475.645C419.824 475.83 418.282 476.617 416.529 478.059L415.305 479.065L414.042 478.772C413.347 478.611 412.559 478.35 412.29 478.192C411.755 477.878 410.977 476.962 410.923 476.582C410.889 476.345 410.898 476.339 411.656 476.037C412.769 475.595 414.933 474.05 415.708 473.144C417.073 471.549 416.247 470.341 414.253 471.014C413.443 471.287 411.932 472.318 411.16 473.123C410.826 473.471 410.368 474.072 410.142 474.458C409.768 475.097 409.71 475.154 409.505 475.091C409.381 475.052 409.094 474.764 408.867 474.45C408.381 473.779 408.282 472.755 408.606 471.766L408.827 471.092L409.902 470.829C412.599 470.168 415.106 468.346 414.795 467.272C414.613 466.641 413.411 466.574 412.079 467.12C411.018 467.555 409.699 468.584 408.915 469.589L408.287 470.394L407.673 470.426C406.974 470.463 405.472 470.146 405.306 469.927C405.154 469.727 404.788 469.862 404.915 470.071C405.297 470.7 406.024 471.035 407.139 471.097L407.889 471.138L407.657 471.881C406.963 474.111 407.378 475.619 408.85 476.206C409.389 476.421 409.488 476.526 409.563 476.955C409.689 477.686 410.139 478.452 410.772 479.013ZM411.216 474.522C411.949 473.217 413.622 471.953 414.642 471.934C415.241 471.922 415.278 471.973 415.054 472.499C414.891 472.88 414.744 473.015 413.616 473.812C412.375 474.689 411.08 475.361 410.952 475.193C410.917 475.146 411.035 474.844 411.216 474.522ZM427.556 491.26C427.866 491.106 428.159 491.031 428.207 491.095C428.339 491.269 427.565 491.965 426.832 492.333C425.818 492.842 425.773 492.825 426.402 492.162C426.843 491.697 427.133 491.469 427.556 491.26ZM410.766 468.677C411.849 467.856 413.468 467.398 413.664 467.857C413.873 468.344 412.198 469.387 410.254 469.98L409.286 470.276L409.762 469.676C410.024 469.347 410.476 468.897 410.766 468.677ZM417.552 478.327C419.138 477.127 421.306 476.333 421.673 476.819C421.999 477.249 420.911 478.04 419.332 478.521C418.423 478.798 416.96 479.056 416.883 478.954C416.851 478.912 417.152 478.63 417.552 478.327ZM421.243 481.109C421.841 480.656 421.843 480.655 421.562 481.061C421.406 481.285 420.971 481.699 420.596 481.979L419.914 482.489L420.277 482.028C420.477 481.774 420.911 481.361 421.243 481.109ZM425.539 486.942C426.541 486.182 427.569 485.748 427.844 485.971C428.251 486.3 426.864 487.289 425.331 487.763C424.221 488.106 424.272 487.904 425.539 486.942Z" fill="white"/>
<path d="M446.44 530.4L451.245 536.945C451.124 537.091 450.955 537.263 450.739 537.46C450.531 537.669 450.322 537.851 450.112 538.005C449.173 538.695 448.239 539.172 447.31 539.435C446.381 539.698 445.448 539.775 444.51 539.664C443.445 539.534 442.424 539.18 441.448 538.602C440.485 538.016 439.609 537.185 438.819 536.11C438.112 535.146 437.613 534.104 437.324 532.985C437.044 531.878 436.971 530.781 437.105 529.693C437.251 528.597 437.608 527.555 438.176 526.567C438.757 525.57 439.554 524.7 440.567 523.955C441.581 523.211 442.644 522.716 443.756 522.47C444.882 522.215 445.983 522.186 447.06 522.384C448.15 522.573 449.181 522.967 450.153 523.566C451.135 524.177 451.979 524.964 452.687 525.928C453.513 527.053 454.038 528.17 454.263 529.28C454.497 530.401 454.512 531.522 454.307 532.643L450.936 532.093C451.051 531.343 451.038 530.639 450.898 529.981C450.779 529.327 450.451 528.635 449.916 527.906C449.499 527.337 448.999 526.877 448.417 526.524C447.856 526.175 447.249 525.945 446.597 525.834C445.967 525.726 445.31 525.752 444.628 525.911C443.967 526.073 443.321 526.385 442.691 526.848C442.06 527.31 441.563 527.837 441.198 528.429C440.854 529.023 440.638 529.648 440.548 530.304C440.471 530.95 440.514 531.604 440.676 532.265C440.85 532.917 441.15 533.533 441.577 534.114C442.412 535.251 443.382 535.937 444.486 536.172C444.826 536.246 445.195 536.27 445.594 536.243C446.015 536.22 446.432 536.141 446.848 536.008L444.03 532.17L446.44 530.4ZM446.109 545.65C445.746 545.155 445.61 544.608 445.702 544.008C445.794 543.408 446.087 542.926 446.582 542.563C447.076 542.2 447.623 542.065 448.224 542.157C448.824 542.249 449.305 542.542 449.668 543.036C450.031 543.531 450.167 544.078 450.075 544.678C449.983 545.278 449.69 545.76 449.195 546.123C448.701 546.486 448.154 546.621 447.553 546.529C446.953 546.437 446.472 546.144 446.109 545.65ZM451.954 554C451.047 552.764 450.59 551.455 450.582 550.072C450.596 548.692 451.085 547.363 452.049 546.084L455.125 548.02C454.613 548.644 454.289 549.291 454.153 549.961C454.018 550.631 454.199 551.306 454.698 551.986C454.862 552.208 455.041 552.4 455.235 552.562C455.439 552.736 455.645 552.86 455.853 552.936C456.082 553.015 456.313 553.045 456.546 553.026C456.78 553.007 457.001 552.92 457.211 552.766C457.421 552.612 457.581 552.428 457.691 552.214C457.822 552.004 457.893 551.752 457.905 551.457C457.93 551.154 457.903 550.793 457.825 550.375C457.758 549.949 457.639 549.437 457.468 548.84L457.165 547.806C457.035 547.37 456.938 546.889 456.876 546.364C456.836 545.842 456.861 545.319 456.952 544.796C457.043 544.272 457.219 543.773 457.478 543.297C457.75 542.812 458.133 542.388 458.627 542.025C459.159 541.635 459.736 541.372 460.36 541.238C460.984 541.103 461.604 541.105 462.219 541.243C462.846 541.372 463.458 541.636 464.055 542.034C464.653 542.433 465.192 542.96 465.672 543.615C466.181 544.307 466.523 544.968 466.701 545.599C466.891 546.22 466.971 546.808 466.941 547.363C466.923 547.909 466.814 548.408 466.613 548.86C466.421 549.324 466.205 549.729 465.965 550.077L463.071 548.35C463.367 547.923 463.523 547.476 463.54 547.007C463.57 546.528 463.412 546.055 463.067 545.585C462.704 545.09 462.309 544.772 461.881 544.63C461.474 544.491 461.11 544.539 460.789 544.775C460.455 545.02 460.268 545.386 460.226 545.873C460.184 546.361 460.31 547.076 460.604 548.021L460.925 549.041C461.368 550.447 461.494 551.695 461.305 552.785C461.116 553.875 460.478 554.819 459.39 555.617C458.698 556.125 457.994 556.423 457.279 556.511C456.573 556.611 455.889 556.561 455.229 556.362C454.577 556.174 453.967 555.861 453.398 555.423C452.826 555.006 452.345 554.532 451.954 554ZM460.604 565.16L464.452 563.134L462.928 561.057L465.3 559.858L466.797 561.897L468.661 560.899L467.137 558.823L469.495 557.605L471.006 559.663L474.674 557.74L476.389 560.076L472.721 561.999L474.082 563.853L477.75 561.93L479.465 564.266L475.797 566.189L477.322 568.265L474.963 569.483L473.452 567.425L471.588 568.423L473.127 570.518L470.768 571.736L469.243 569.66L465.395 571.686L463.68 569.35L467.528 567.324L466.167 565.47L462.319 567.496L460.604 565.16ZM468.421 564.186L469.863 566.151L471.829 565.136L470.386 563.171L468.421 564.186ZM474.124 578.6L477.622 583.365L475.249 585.107L468.933 576.505L471.381 574.708C472.654 574.914 473.832 575.106 474.912 575.282C475.372 575.364 475.837 575.44 476.309 575.513C476.771 575.573 477.195 575.632 477.581 575.691C477.988 575.754 478.342 575.808 478.642 575.854C478.963 575.903 479.205 575.935 479.368 575.949C480.026 576.017 480.559 576.016 480.964 575.946C481.382 575.868 481.77 575.697 482.129 575.434C482.487 575.171 482.69 574.812 482.738 574.359C482.807 573.909 482.669 573.449 482.324 572.979C481.979 572.51 481.566 572.233 481.086 572.148C480.626 572.067 480.131 572.117 479.598 572.298L478.785 569.015C479.25 568.845 479.748 568.745 480.279 568.717C480.81 568.689 481.343 568.754 481.878 568.913C482.425 569.063 482.962 569.315 483.489 569.67C484.025 570.037 484.511 570.518 484.947 571.111C485.437 571.778 485.778 572.45 485.97 573.127C486.175 573.795 486.242 574.43 486.172 575.034C486.11 575.649 485.923 576.224 485.611 576.758C485.299 577.291 484.877 577.753 484.346 578.143C483.58 578.706 482.737 579.048 481.819 579.171C480.922 579.297 479.927 579.276 478.834 579.108L474.241 578.371L474.124 578.6ZM480.134 592.382C479.517 591.541 479.13 590.665 478.974 589.753C478.817 588.84 478.863 587.931 479.112 587.026C479.36 586.121 479.791 585.243 480.404 584.394C481.038 583.548 481.831 582.775 482.783 582.077C483.734 581.378 484.703 580.857 485.688 580.515C486.694 580.175 487.666 580.023 488.604 580.057C489.542 580.091 490.423 580.319 491.247 580.742C492.071 581.164 492.791 581.795 493.408 582.636C494.016 583.464 494.398 584.334 494.555 585.247C494.72 586.172 494.679 587.087 494.43 587.992C494.182 588.897 493.74 589.773 493.106 590.619C492.493 591.468 491.711 592.242 490.759 592.941C489.808 593.64 488.829 594.159 487.822 594.498C486.837 594.841 485.876 594.995 484.938 594.961C484 594.927 483.114 594.692 482.281 594.258C481.458 593.835 480.742 593.21 480.134 592.382ZM482.729 590.476C483.038 590.896 483.409 591.195 483.843 591.371C484.298 591.55 484.786 591.62 485.308 591.579C485.839 591.551 486.392 591.411 486.968 591.159C487.554 590.92 488.137 590.587 488.717 590.16C489.298 589.734 489.791 589.277 490.194 588.79C490.607 588.316 490.906 587.83 491.092 587.332C491.288 586.846 491.361 586.364 491.314 585.885C491.288 585.41 491.121 584.962 490.813 584.542C490.504 584.121 490.122 583.821 489.667 583.642C489.233 583.466 488.751 583.392 488.22 583.42C487.699 583.461 487.145 583.601 486.56 583.84C485.984 584.092 485.405 584.431 484.825 584.858C484.244 585.284 483.747 585.735 483.334 586.209C482.93 586.695 482.631 587.181 482.436 587.667C482.25 588.165 482.17 588.652 482.196 589.128C482.243 589.606 482.421 590.056 482.729 590.476ZM490.74 601.232L494.238 605.996L491.865 607.739L485.549 599.136L487.997 597.339C489.27 597.546 490.447 597.737 491.528 597.914C491.987 597.995 492.453 598.072 492.924 598.144C493.387 598.204 493.811 598.264 494.197 598.323C494.604 598.385 494.958 598.439 495.258 598.485C495.579 598.535 495.821 598.566 495.984 598.58C496.642 598.648 497.174 598.647 497.58 598.578C497.998 598.499 498.386 598.329 498.744 598.065C499.103 597.802 499.306 597.444 499.353 596.991C499.422 596.54 499.285 596.081 498.94 595.611C498.595 595.141 498.182 594.864 497.702 594.779C497.242 594.698 496.747 594.748 496.214 594.93L495.401 591.646C495.866 591.476 496.364 591.377 496.895 591.349C497.425 591.32 497.958 591.386 498.494 591.544C499.041 591.694 499.578 591.946 500.105 592.301C500.641 592.669 501.127 593.149 501.562 593.742C502.053 594.41 502.394 595.082 502.586 595.758C502.791 596.426 502.858 597.062 502.788 597.665C502.726 598.281 502.539 598.856 502.227 599.389C501.915 599.923 501.493 600.384 500.962 600.775C500.195 601.337 499.353 601.68 498.435 601.802C497.538 601.928 496.543 601.907 495.45 601.74L490.857 601.003L490.74 601.232ZM496.096 614.123C495.724 613.617 495.425 613.066 495.198 612.472C494.971 611.878 494.845 611.266 494.821 610.637C494.806 610.021 494.901 609.399 495.107 608.773C495.312 608.146 495.656 607.551 496.137 606.989L498.984 608.807C498.494 609.358 498.209 609.928 498.13 610.519C498.062 611.101 498.237 611.677 498.655 612.245C499.018 612.739 499.499 613.033 500.099 613.125C500.7 613.217 501.259 613.072 501.778 612.691C502.297 612.31 502.603 611.819 502.695 611.219C502.796 610.631 502.656 610.078 502.275 609.559C502.012 609.2 501.717 608.941 501.39 608.781C501.064 608.622 500.727 608.526 500.381 608.495L499.645 604.927L506.433 600.999L511.864 608.396L509.491 610.138L505.762 605.058L502.775 606.509L502.856 606.735C503.214 606.834 503.6 606.998 504.015 607.226C504.438 607.466 504.836 607.84 505.208 608.346C505.59 608.866 505.847 609.437 505.982 610.061C506.138 610.688 506.163 611.317 506.055 611.948C505.956 612.591 505.723 613.219 505.355 613.831C504.987 614.444 504.475 614.991 503.82 615.472C503.165 615.953 502.484 616.282 501.777 616.459C501.082 616.626 500.393 616.647 499.711 616.52C499.028 616.394 498.377 616.129 497.759 615.728C497.141 615.326 496.586 614.791 496.096 614.123Z" fill="white"/>
<path fill-rule="evenodd" clip-rule="evenodd" d="M526.005 640.911C526.546 641.844 526.807 642.808 526.899 644.22L526.968 645.274L527.87 645.229C528.972 645.174 529.686 645.544 530.323 646.499C530.877 647.332 531.048 648.378 530.829 649.593L530.673 650.457L531.336 650.489C531.701 650.507 532.355 650.676 532.79 650.866C533.462 651.158 533.709 651.385 534.432 652.38C535.337 653.625 535.681 654.738 535.609 656.196L535.576 656.888L536.707 656.839C538.185 656.776 539.018 657.152 539.724 658.202C540.062 658.704 540.267 659.247 540.302 659.728L540.356 660.475L540.899 660.493C541.197 660.503 541.729 660.66 542.081 660.842C543.826 661.744 544.576 664.049 544.078 666.986C543.722 669.089 543.538 669.006 543.086 666.538C542.556 663.642 541.904 662.328 540.805 661.94C540.135 661.704 539.97 661.787 539.546 662.577C539.033 663.532 537.494 664.816 536.64 665C535.444 665.259 535.011 664.636 535.535 663.414C535.819 662.753 537.297 661.504 538.312 661.067C538.697 660.901 539.03 660.752 539.05 660.735C539.07 660.718 539.041 660.364 538.985 659.949C538.796 658.546 537.803 657.828 536.21 657.941L535.377 658L535.029 658.947C534.523 660.321 533.874 661.251 532.801 662.14C531.993 662.809 531.811 662.902 531.12 663.001C530.455 663.096 530.293 663.049 529.98 662.67C529.676 662.3 529.652 662.102 529.835 661.454C530.114 660.462 530.793 659.648 532.178 658.643C532.768 658.215 533.452 657.717 533.696 657.538C534.101 657.241 534.138 657.107 534.114 656.044C534.054 653.461 532.602 651.613 530.561 651.523C530.234 651.508 530.18 651.55 529.798 652.109C528.851 653.496 527.041 654.578 525.67 654.578C523.817 654.578 524.923 652.61 527.447 651.416C528.029 651.141 528.671 650.792 528.873 650.64C529.688 650.03 529.526 647.539 528.63 646.899C528.197 646.59 527.18 646.365 526.975 646.534C526.907 646.59 526.706 647.199 526.529 647.886C525.782 650.777 524.034 652.946 522.212 653.242C520.92 653.452 520.347 652.518 520.795 650.93C521.21 649.46 522.292 648.092 524.113 646.736L525.383 645.789L525.256 644.328C525.186 643.525 525.022 642.585 524.892 642.24C524.632 641.553 523.758 640.386 523.356 640.191C523.105 640.069 523.097 640.076 522.658 640.779C522.013 641.812 520.019 643.571 518.924 644.074C516.996 644.959 515.813 643.636 516.839 641.742C517.255 640.973 518.596 639.727 519.582 639.191C520.008 638.96 520.726 638.687 521.177 638.584C521.924 638.414 521.994 638.373 521.956 638.13C521.933 637.983 521.665 637.571 521.36 637.215C520.707 636.451 519.615 635.973 518.498 635.961L517.736 635.954L517.29 637.012C516.173 639.663 513.828 641.689 512.713 640.967C512.059 640.543 512.166 639.231 512.956 638.001C513.585 637.021 514.895 635.98 516.099 635.504L517.063 635.122L517.19 634.475C517.334 633.74 517.216 632.015 517.004 631.757C516.81 631.522 517.011 631.179 517.218 631.391C517.841 632.028 518.094 632.928 517.994 634.146L517.926 634.965L518.764 634.986C521.278 635.05 522.845 636.042 523.26 637.832C523.412 638.488 523.51 638.633 523.963 638.868C524.734 639.268 525.494 640.028 526.005 640.911ZM521.086 639.758C519.565 640.072 517.949 641.406 517.775 642.493C517.673 643.131 517.722 643.189 518.324 643.139C518.76 643.103 518.928 642.994 519.959 642.074C521.093 641.062 522.013 639.916 521.851 639.719C521.805 639.663 521.46 639.681 521.086 639.758ZM536.729 663.341C536.516 663.617 536.392 663.905 536.454 663.98C536.621 664.183 537.49 663.606 537.998 662.954C538.7 662.052 538.688 661.998 537.877 662.431C537.308 662.735 537.019 662.964 536.729 663.341ZM514.836 637.158C513.786 638.021 513.049 639.59 513.515 639.967C514.011 640.368 515.389 638.95 516.321 637.081L516.785 636.15L516.066 636.443C515.671 636.605 515.117 636.926 514.836 637.158ZM524.25 647.93C522.715 649.195 521.532 651.231 522.002 651.801C522.418 652.306 523.436 651.426 524.192 649.908C524.627 649.034 525.126 647.56 525.027 647.44C524.986 647.39 524.637 647.611 524.25 647.93ZM526.704 652.895C526.124 653.371 526.123 653.374 526.603 653.219C526.87 653.133 527.382 652.817 527.741 652.517L528.394 651.971L527.841 652.193C527.537 652.315 527.025 652.631 526.704 652.895ZM532.365 659.614C531.392 660.413 530.77 661.357 530.97 661.733C531.264 662.289 532.541 661.16 533.283 659.688C533.82 658.623 533.594 658.605 532.365 659.614Z" fill="white"/>
<path fill-rule="evenodd" clip-rule="evenodd" d="M520.127 627.958C520.797 628.551 521.578 628.9 522.809 629.156L523.727 629.347L523.417 630.139C523.039 631.106 523.156 631.783 523.816 632.463C524.393 633.056 525.274 633.337 526.423 633.292L527.239 633.261L527.069 633.851C526.976 634.176 526.931 634.776 526.97 635.183C527.03 635.813 527.159 636.059 527.829 636.821C528.668 637.775 529.557 638.216 530.878 638.333L531.504 638.388L531.123 639.383C530.624 640.681 530.711 641.464 531.436 642.218C531.782 642.578 532.205 642.827 532.623 642.916L533.272 643.056L533.126 643.538C533.046 643.803 533.027 644.293 533.084 644.627C533.366 646.28 535.196 647.227 537.962 647.15C539.943 647.095 539.924 646.922 537.859 646.218C535.437 645.392 534.461 644.654 534.444 643.634C534.433 643.013 534.557 642.877 535.388 642.6C536.392 642.265 537.996 641.063 538.415 640.33C539.003 639.306 538.577 638.846 537.332 639.159C536.658 639.328 535.103 640.48 534.411 641.323C534.148 641.643 533.915 641.918 533.894 641.934C533.873 641.95 533.566 641.881 533.213 641.78C532.02 641.439 531.677 640.473 532.253 639.079L532.554 638.35L533.503 638.159C534.878 637.882 535.901 637.423 537.014 636.584C537.851 635.953 537.989 635.804 538.283 635.205C538.567 634.629 538.574 634.48 538.329 634.157C538.091 633.842 537.921 633.797 537.289 633.878C536.322 634.003 535.393 634.503 534.084 635.602C533.526 636.071 532.878 636.614 532.645 636.808C532.26 637.129 532.13 637.145 531.189 636.992C528.905 636.621 527.692 635.109 528.222 633.294C528.307 633.004 528.361 632.96 528.972 632.692C530.491 632.026 531.996 630.56 532.406 629.349C532.96 627.711 530.875 628.445 529.058 630.528C528.638 631.009 528.135 631.533 527.94 631.693C527.152 632.338 524.982 631.887 524.679 631.017C524.533 630.595 524.637 629.669 524.848 629.509C524.919 629.456 525.521 629.353 526.186 629.281C528.986 628.979 531.441 627.701 532.249 626.127C532.822 625.011 532.161 624.39 530.612 624.59C529.179 624.775 527.636 625.562 525.883 627.004L524.66 628.01L523.396 627.717C522.702 627.556 521.913 627.295 521.644 627.137C521.109 626.823 520.331 625.907 520.277 625.527C520.244 625.29 520.252 625.284 521.01 624.982C522.123 624.54 524.287 622.995 525.062 622.089C526.427 620.495 525.601 619.286 523.607 619.959C522.798 620.232 521.286 621.263 520.514 622.069C520.181 622.416 519.723 623.017 519.496 623.403C519.122 624.042 519.064 624.099 518.859 624.036C518.735 623.997 518.448 623.709 518.221 623.395C517.736 622.724 517.636 621.7 517.96 620.711L518.181 620.037L519.257 619.774C521.953 619.113 524.46 617.291 524.15 616.217C523.967 615.586 522.766 615.519 521.433 616.065C520.373 616.5 519.054 617.529 518.269 618.535L517.641 619.339L517.027 619.371C516.328 619.408 514.826 619.091 514.66 618.872C514.509 618.672 514.142 618.807 514.269 619.016C514.651 619.645 515.378 619.98 516.493 620.042L517.243 620.083L517.012 620.826C516.317 623.056 516.733 624.564 518.204 625.151C518.743 625.366 518.843 625.471 518.917 625.901C519.043 626.631 519.493 627.397 520.127 627.958ZM520.57 623.467C521.304 622.162 522.976 620.898 523.996 620.879C524.596 620.867 524.633 620.918 524.408 621.444C524.245 621.825 524.098 621.96 522.97 622.757C521.729 623.634 520.434 624.306 520.307 624.138C520.271 624.091 520.389 623.789 520.57 623.467ZM536.91 640.205C537.22 640.051 537.513 639.977 537.562 640.04C537.693 640.214 536.919 640.91 536.186 641.278C535.172 641.787 535.128 641.77 535.756 641.107C536.197 640.642 536.488 640.415 536.91 640.205ZM520.12 617.622C521.203 616.801 522.822 616.343 523.018 616.802C523.228 617.289 521.553 618.332 519.609 618.925L518.64 619.221L519.116 618.622C519.378 618.292 519.83 617.842 520.12 617.622ZM526.906 627.273C528.493 626.072 530.66 625.278 531.028 625.764C531.353 626.194 530.265 626.985 528.686 627.466C527.777 627.743 526.315 628.001 526.237 627.899C526.206 627.857 526.507 627.575 526.906 627.273ZM530.597 630.054C531.195 629.601 531.198 629.6 530.916 630.006C530.76 630.23 530.326 630.644 529.951 630.924L529.269 631.434L529.632 630.973C529.831 630.719 530.266 630.306 530.597 630.054ZM534.893 635.887C535.895 635.127 536.923 634.693 537.199 634.916C537.606 635.245 536.218 636.234 534.685 636.708C533.575 637.051 533.627 636.849 534.893 635.887Z" fill="white"/>
</g>
<defs>
<linearGradient id="paint0_linear_37_793" x1="111.193" y1="517.56" x2="-190.075" y2="-631.263" gradientUnits="userSpaceOnUse">
<stop stop-color="#861B43"/>
<stop offset="0.403846" stop-color="#FF0A69"/>
</linearGradient>
<clipPath id="clip0_37_793">
<rect width="514.5" height="751.5" fill="white"/>
</clipPath>
</defs>
</svg>
