<svg width="22" height="18" viewBox="0 0 22 18" fill="none" xmlns="http://www.w3.org/2000/svg">
<g clip-path="url(#clip0_52_967)">
<path d="M2.05071 0H19.6751C20.219 0 20.7406 0.206236 21.1251 0.573339C21.5097 0.940441 21.7258 1.43834 21.7258 1.9575C21.7258 2.47666 21.5097 2.97456 21.1251 3.34166C20.7406 3.70876 20.219 3.915 19.6751 3.915H2.05071C1.50683 3.915 0.985224 3.70876 0.60064 3.34166C0.216057 2.97456 6.1116e-08 2.47666 6.1116e-08 1.9575C6.1116e-08 1.43834 0.216057 0.940441 0.60064 0.573339C0.985224 0.206236 1.50683 0 2.05071 0ZM2.05071 7.0425H19.6751C19.9444 7.0425 20.211 7.09313 20.4598 7.19151C20.7087 7.28988 20.9347 7.43407 21.1251 7.61584C21.3156 7.79761 21.4666 8.0134 21.5697 8.2509C21.6727 8.48839 21.7258 8.74294 21.7258 9C21.7258 9.25706 21.6727 9.51161 21.5697 9.7491C21.4666 9.9866 21.3156 10.2024 21.1251 10.3842C20.9347 10.5659 20.7087 10.7101 20.4598 10.8085C20.211 10.9069 19.9444 10.9575 19.6751 10.9575H2.05071C1.78141 10.9575 1.51474 10.9069 1.26594 10.8085C1.01714 10.7101 0.791067 10.5659 0.60064 10.3842C0.410214 10.2024 0.259159 9.9866 0.156101 9.7491C0.0530433 9.51161 1.79005e-08 9.25706 1.79005e-08 9C1.79005e-08 8.74294 0.0530433 8.48839 0.156101 8.2509C0.259159 8.0134 0.410214 7.79761 0.60064 7.61584C0.791067 7.43407 1.01714 7.28988 1.26594 7.19151C1.51474 7.09313 1.78141 7.0425 2.05071 7.0425ZM2.05071 14.0858H19.6751C19.9444 14.0857 20.211 14.1364 20.4598 14.2348C20.7087 14.3331 20.9347 14.4773 21.1251 14.6591C21.3156 14.8409 21.4666 15.0567 21.5697 15.2941C21.6727 15.5316 21.7258 15.7862 21.7258 16.0433C21.7258 16.3003 21.6727 16.5549 21.5697 16.7924C21.4666 17.0298 21.3156 17.2456 21.1251 17.4274C20.9347 17.6092 20.7087 17.7534 20.4598 17.8517C20.211 17.9501 19.9444 18.0007 19.6751 18.0007H2.05071C1.78141 18.0007 1.51474 17.9501 1.26594 17.8517C1.01714 17.7534 0.791067 17.6092 0.60064 17.4274C0.410214 17.2456 0.259159 17.0298 0.156101 16.7924C0.0530433 16.5549 0 16.3003 0 16.0433C0 15.7862 0.0530433 15.5316 0.156101 15.2941C0.259159 15.0567 0.410214 14.8409 0.60064 14.6591C0.791067 14.4773 1.01714 14.3331 1.26594 14.2348C1.51474 14.1364 1.78141 14.0857 2.05071 14.0858Z" fill="white"/>
</g>
<defs>
<clipPath id="clip0_52_967">
<rect width="22" height="18" fill="white"/>
</clipPath>
</defs>
</svg>
