<svg width="14" height="15" viewBox="0 0 14 15" fill="none" xmlns="http://www.w3.org/2000/svg">
<path d="M10.5001 4H4.83447C4.71844 4 4.60716 3.95391 4.52511 3.87186C4.44307 3.78981 4.39697 3.67853 4.39697 3.5625C4.39697 3.44647 4.44307 3.33519 4.52511 3.25314C4.60716 3.17109 4.71844 3.125 4.83447 3.125H10.9376C11.0536 3.125 11.1649 3.17109 11.247 3.25314C11.329 3.33519 11.3751 3.44647 11.3751 3.5625V9.6875C11.3751 9.80353 11.329 9.91481 11.247 9.99686C11.1649 10.0789 11.0536 10.125 10.9376 10.125C10.8216 10.125 10.7103 10.0789 10.6282 9.99686C10.5462 9.91481 10.5001 9.80353 10.5001 9.6875V4Z" fill="white"/>
<path d="M10.6278 3.25281C10.71 3.17066 10.8214 3.12451 10.9376 3.12451C11.0537 3.12451 11.1652 3.17066 11.2473 3.25281C11.3295 3.33497 11.3756 3.44639 11.3756 3.56256C11.3756 3.67874 11.3295 3.79016 11.2473 3.87231L3.80981 11.3098C3.76914 11.3505 3.72085 11.3828 3.6677 11.4048C3.61455 11.4268 3.55759 11.4381 3.50006 11.4381C3.44254 11.4381 3.38558 11.4268 3.33243 11.4048C3.27928 11.3828 3.23099 11.3505 3.19031 11.3098C3.14964 11.2691 3.11737 11.2208 3.09536 11.1677C3.07334 11.1146 3.06201 11.0576 3.06201 11.0001C3.06201 10.9425 3.07334 10.8856 3.09536 10.8324C3.11737 10.7793 3.14964 10.731 3.19031 10.6903L10.6278 3.25281Z" fill="white"/>
</svg>
